<?xml version="1.0" encoding="UTF-8"?>
<svg xmlns="http://www.w3.org/2000/svg" xmlns:xlink="http://www.w3.org/1999/xlink" width="193pt" height="193pt" viewBox="0 0 193 193" version="1.1">
<g id="surface1">
<path style=" stroke:none;fill-rule:evenodd;fill:rgb(100%,100%,100%);fill-opacity:1;" d="M 0 0.242188 L 192.757813 0.242188 L 192.757813 193 L 0 193 L 0 0.242188 "/>
<path style=" stroke:none;fill-rule:evenodd;fill:rgb(100%,100%,100%);fill-opacity:1;" d="M 20.964844 11.894531 L 171.789063 11.894531 L 171.789063 162.746094 L 20.964844 162.746094 L 20.964844 11.894531 "/>
<path style=" stroke:none;fill-rule:evenodd;fill:rgb(100%,78.399658%,26.298523%);fill-opacity:1;" d="M 25.492188 101.058594 L 166.046875 101.058594 L 166.046875 73.078125 L 25.492188 73.078125 L 25.492188 101.058594 "/>
<path style=" stroke:none;fill-rule:evenodd;fill:rgb(65.499878%,53.69873%,37.599182%);fill-opacity:1;" d="M 166.046875 101.011719 L 110.917969 101.011719 L 110.917969 157.308594 L 166.046875 157.308594 L 166.046875 101.011719 "/>
<path style=" stroke:none;fill-rule:evenodd;fill:rgb(80.799866%,27.099609%,27.799988%);fill-opacity:1;" d="M 154.488281 87.617188 C 157.585938 87.617188 160.113281 90.144531 160.113281 93.242188 C 160.113281 96.316406 157.585938 98.820313 154.488281 98.820313 C 151.414063 98.820313 148.886719 96.316406 148.886719 93.242188 C 148.886719 90.144531 151.414063 87.617188 154.488281 87.617188 "/>
<path style=" stroke:none;fill-rule:evenodd;fill:rgb(80.799866%,27.099609%,27.799988%);fill-opacity:1;" d="M 112.941406 75.652344 C 116.039063 75.652344 118.566406 78.179688 118.566406 81.253906 C 118.566406 84.351563 116.039063 86.878906 112.941406 86.878906 C 109.867188 86.878906 107.34375 84.351563 107.34375 81.253906 C 107.34375 78.179688 109.867188 75.652344 112.941406 75.652344 "/>
<path style=" stroke:none;fill-rule:evenodd;fill:rgb(80.799866%,27.099609%,27.799988%);fill-opacity:1;" d="M 119.996094 99.128906 L 115.253906 94.433594 L 133.367188 76.320313 L 138.113281 81.039063 L 119.996094 99.128906 "/>
<path style=" stroke:none;fill-rule:evenodd;fill:rgb(80.799866%,27.099609%,27.799988%);fill-opacity:1;" d="M 107.269531 99.367188 L 111.988281 94.671875 L 93.898438 76.558594 L 89.179688 81.277344 L 107.269531 99.367188 "/>
<path style=" stroke:none;fill-rule:evenodd;fill:rgb(80.799866%,27.099609%,27.799988%);fill-opacity:1;" d="M 134.058594 99.128906 L 129.339844 94.433594 L 147.453125 76.320313 L 152.175781 81.039063 L 134.058594 99.128906 "/>
<path style=" stroke:none;fill-rule:evenodd;fill:rgb(80.799866%,27.099609%,27.799988%);fill-opacity:1;" d="M 93.207031 99.367188 L 97.902344 94.671875 L 79.8125 76.558594 L 75.09375 81.277344 L 93.207031 99.367188 "/>
<path style=" stroke:none;fill-rule:evenodd;fill:rgb(80.799866%,27.099609%,27.799988%);fill-opacity:1;" d="M 71.710938 87.449219 C 74.972656 87.449219 77.644531 90.121094 77.644531 93.386719 C 77.644531 96.628906 74.972656 99.296875 71.710938 99.296875 C 68.445313 99.296875 65.773438 96.628906 65.773438 93.386719 C 65.773438 90.121094 68.445313 87.449219 71.710938 87.449219 "/>
<path style=" stroke:none;fill-rule:evenodd;fill:rgb(80.799866%,27.099609%,27.799988%);fill-opacity:1;" d="M 35.671875 99.65625 L 30.664063 94.671875 L 49.851563 75.484375 L 54.859375 80.492188 L 35.671875 99.65625 "/>
<path style=" stroke:none;fill-rule:evenodd;fill:rgb(80.799866%,27.099609%,27.799988%);fill-opacity:1;" d="M 50.59375 99.65625 L 45.585938 94.671875 L 64.773438 75.484375 L 69.777344 80.492188 L 50.59375 99.65625 "/>
<path style=" stroke:none;fill-rule:evenodd;fill:rgb(80.799866%,27.099609%,27.799988%);fill-opacity:1;" d="M 25.613281 101.109375 L 111.058594 101.109375 L 111.058594 157.308594 L 25.613281 157.308594 L 25.613281 101.109375 "/>
<path style=" stroke:none;fill-rule:evenodd;fill:rgb(28.599548%,39.599609%,50.999451%);fill-opacity:1;" d="M 25.613281 16.566406 L 166.355469 16.566406 L 166.355469 73.03125 L 25.613281 73.03125 L 25.613281 16.566406 "/>
<path style=" stroke:none;fill-rule:evenodd;fill:rgb(32.499695%,31.799316%,42.399597%);fill-opacity:1;" d="M 147.910156 180.859375 L 147.910156 166.914063 L 151.625 166.914063 L 151.625 180.859375 L 147.910156 180.859375 "/>
<path style=" stroke:none;fill-rule:evenodd;fill:rgb(32.499695%,31.799316%,42.399597%);fill-opacity:1;" d="M 31.835938 170.085938 L 32.335938 170.085938 C 32.859375 170.085938 33.265625 169.917969 33.527344 169.609375 C 33.789063 169.300781 33.90625 168.824219 33.90625 168.179688 C 33.90625 167.558594 33.789063 167.082031 33.527344 166.773438 C 33.238281 166.4375 32.859375 166.296875 32.335938 166.296875 L 31.835938 166.296875 L 31.835938 162.816406 L 32.785156 162.816406 C 35.625 162.816406 38.078125 164.554688 38.078125 167.203125 C 38.078125 168.226563 37.863281 169.0625 37.457031 169.703125 C 37.054688 170.371094 36.433594 170.894531 35.550781 171.277344 C 36.601563 171.636719 37.363281 172.207031 37.839844 172.96875 C 38.316406 173.730469 38.554688 174.757813 38.554688 176.066406 C 38.554688 177.664063 38.222656 178.878906 37.578125 179.714844 C 36.910156 180.550781 35.957031 180.976563 34.667969 180.976563 L 31.835938 180.976563 L 31.835938 177.808594 L 32.429688 177.808594 C 33.050781 177.808594 33.476563 177.640625 33.789063 177.285156 C 34.097656 176.949219 34.242188 176.472656 34.242188 175.804688 C 34.242188 175.140625 34.097656 174.398438 33.789063 174.066406 C 33.503906 173.730469 33.050781 173.566406 32.429688 173.566406 L 31.835938 173.566406 Z M 29.761719 166.296875 L 29.761719 170.085938 L 31.835938 170.085938 L 31.835938 173.566406 L 29.761719 173.566406 L 29.761719 177.808594 L 31.835938 177.808594 L 31.835938 180.976563 L 25.945313 180.976563 L 25.945313 162.816406 L 31.835938 162.816406 L 31.835938 166.296875 L 29.761719 166.296875 "/>
<path style=" stroke:none;fill-rule:evenodd;fill:rgb(32.499695%,31.799316%,42.399597%);fill-opacity:1;" d="M 45.515625 166.726563 L 47.398438 166.703125 L 52.164063 181.003906 L 48.304688 181.003906 L 47.253906 178.285156 L 45.515625 178.285156 L 45.515625 175.496094 L 46.609375 175.496094 L 45.515625 170.777344 Z M 38.625 181.003906 C 40.558594 176.257813 42.988281 166.726563 44.441406 166.75 L 45.515625 166.726563 L 45.515625 170.777344 L 45.492188 170.707031 L 44.394531 175.496094 L 45.515625 175.496094 L 45.515625 178.285156 L 43.441406 178.261719 L 42.558594 181.003906 L 38.625 181.003906 "/>
<path style=" stroke:none;fill-rule:evenodd;fill:rgb(32.499695%,31.799316%,42.399597%);fill-opacity:1;" d="M 53.476563 180.90625 L 53.476563 166.890625 L 57.265625 166.890625 L 60.816406 174.828125 L 60.816406 166.84375 L 64.105469 166.890625 L 64.105469 180.90625 L 60.578125 180.882813 L 56.574219 172.0625 L 56.667969 180.953125 L 53.476563 180.90625 "/>
<path style=" stroke:none;fill-rule:evenodd;fill:rgb(32.499695%,31.799316%,42.399597%);fill-opacity:1;" d="M 83.984375 178.285156 C 84.960938 178.285156 85.675781 177.925781 86.175781 177.234375 C 86.675781 176.542969 86.914063 175.519531 86.914063 174.136719 C 86.914063 172.660156 86.652344 171.515625 86.152344 170.753906 C 85.652344 169.988281 84.9375 169.585938 83.984375 169.585938 L 83.984375 166.773438 L 84.054688 166.773438 C 86.175781 166.773438 87.796875 167.390625 88.917969 168.632813 C 91.183594 171.132813 91.230469 176.832031 88.871094 179.308594 C 87.75 180.453125 86.128906 181.050781 83.984375 181.097656 Z M 81.050781 174.042969 C 81.050781 175.449219 81.289063 176.519531 81.765625 177.214844 C 82.269531 177.925781 82.984375 178.285156 83.960938 178.285156 L 83.984375 178.285156 L 83.984375 181.097656 C 83.914063 181.097656 83.839844 181.097656 83.792969 181.097656 C 81.695313 181.097656 80.097656 180.476563 79.003906 179.261719 C 77.90625 178.023438 77.382813 176.234375 77.382813 173.875 C 77.382813 171.585938 77.953125 169.847656 79.097656 168.605469 C 80.242188 167.390625 81.863281 166.796875 83.984375 166.773438 L 83.984375 169.585938 L 83.9375 169.585938 C 83.03125 169.585938 82.316406 169.96875 81.816406 170.753906 C 81.289063 171.539063 81.050781 172.636719 81.050781 174.042969 "/>
<path style=" stroke:none;fill-rule:evenodd;fill:rgb(32.499695%,31.799316%,42.399597%);fill-opacity:1;" d="M 108.484375 178.285156 C 109.464844 178.285156 110.203125 177.925781 110.679688 177.234375 C 111.179688 176.542969 111.417969 175.519531 111.417969 174.136719 C 111.417969 172.660156 111.179688 171.515625 110.65625 170.753906 C 110.152344 169.988281 109.4375 169.585938 108.484375 169.585938 L 108.484375 166.773438 L 108.558594 166.773438 C 110.679688 166.773438 112.324219 167.390625 113.421875 168.632813 C 115.683594 171.132813 115.753906 176.832031 113.371094 179.308594 C 112.273438 180.453125 110.632813 181.050781 108.484375 181.097656 Z M 105.554688 174.042969 C 105.554688 175.449219 105.792969 176.519531 106.292969 177.214844 C 106.769531 177.925781 107.507813 178.285156 108.460938 178.285156 L 108.484375 178.285156 L 108.484375 181.097656 C 108.414063 181.097656 108.367188 181.097656 108.296875 181.097656 C 106.195313 181.097656 104.601563 180.476563 103.503906 179.261719 C 102.433594 178.023438 101.882813 176.234375 101.882813 173.875 C 101.882813 171.585938 102.453125 169.847656 103.601563 168.605469 C 104.742188 167.390625 106.363281 166.796875 108.484375 166.773438 L 108.484375 169.585938 L 108.4375 169.585938 C 107.53125 169.585938 106.816406 169.96875 106.316406 170.753906 C 105.816406 171.539063 105.554688 172.636719 105.554688 174.042969 "/>
<path style=" stroke:none;fill-rule:evenodd;fill:rgb(32.499695%,31.799316%,42.399597%);fill-opacity:1;" d="M 92.492188 180.929688 L 92.492188 167.203125 L 96.234375 167.203125 L 96.234375 178.023438 L 101.027344 178.023438 L 100.550781 180.929688 L 92.492188 180.929688 "/>
<path style=" stroke:none;fill-rule:evenodd;fill:rgb(32.499695%,31.799316%,42.399597%);fill-opacity:1;" d="M 116.566406 180.8125 L 117.734375 166.914063 L 122.40625 166.914063 L 124.71875 175.351563 L 126.957031 166.867188 L 131.273438 166.914063 L 132.914063 180.8125 L 129.699219 180.859375 L 128.886719 171.15625 L 126.480469 180.90625 C 125.359375 180.90625 125.074219 181.003906 123.953125 181.003906 C 122.761719 180.738281 121.429688 174.421875 120.59375 171.183594 L 120.234375 180.8125 L 116.566406 180.8125 "/>
<path style=" stroke:none;fill-rule:evenodd;fill:rgb(32.499695%,31.799316%,42.399597%);fill-opacity:1;" d="M 140.042969 172.421875 L 140.449219 172.421875 C 140.902344 172.421875 141.234375 172.277344 141.449219 172.039063 C 141.664063 171.800781 141.78125 171.421875 141.78125 170.917969 C 141.78125 170.445313 141.664063 170.0625 141.449219 169.800781 C 141.210938 169.5625 140.902344 169.441406 140.449219 169.441406 L 140.042969 169.441406 L 140.042969 166.703125 L 140.828125 166.703125 C 143.1875 166.703125 145.238281 168.058594 145.238281 170.132813 C 145.238281 170.945313 145.070313 171.609375 144.714844 172.109375 C 144.382813 172.636719 143.855469 173.039063 143.140625 173.351563 C 144 173.636719 144.644531 174.066406 145.046875 174.683594 C 145.429688 175.28125 145.621094 176.09375 145.621094 177.117188 C 145.621094 178.378906 145.359375 179.332031 144.808594 179.976563 C 144.261719 180.644531 143.476563 180.976563 142.402344 180.976563 L 140.042969 180.976563 L 140.042969 178.476563 L 140.542969 178.476563 C 141.042969 178.476563 141.425781 178.355469 141.664063 178.070313 C 141.925781 177.808594 142.046875 177.425781 142.046875 176.902344 C 142.046875 176.402344 141.925781 175.804688 141.6875 175.542969 C 141.425781 175.28125 141.042969 175.140625 140.542969 175.140625 L 140.042969 175.140625 Z M 138.328125 169.441406 L 138.328125 172.421875 L 140.042969 172.421875 L 140.042969 175.140625 L 138.328125 175.140625 L 138.328125 178.476563 L 140.042969 178.476563 L 140.042969 180.976563 L 135.132813 180.976563 L 135.132813 166.703125 L 140.042969 166.703125 L 140.042969 169.441406 L 138.328125 169.441406 "/>
<path style=" stroke:none;fill-rule:evenodd;fill:rgb(32.499695%,31.799316%,42.399597%);fill-opacity:1;" d="M 160.277344 166.726563 L 162.1875 166.703125 L 166.953125 181.003906 L 163.089844 181.003906 L 162.019531 178.285156 L 160.277344 178.285156 L 160.277344 175.496094 L 161.398438 175.496094 L 160.277344 170.777344 Z M 153.414063 181.003906 C 155.34375 176.257813 157.777344 166.726563 159.230469 166.75 L 160.277344 166.726563 L 160.277344 170.777344 L 160.277344 170.707031 L 159.183594 175.496094 L 160.277344 175.496094 L 160.277344 178.285156 L 158.203125 178.261719 L 157.347656 181.003906 L 153.414063 181.003906 "/>
<path style=" stroke:none;fill-rule:evenodd;fill:rgb(32.499695%,31.799316%,42.399597%);fill-opacity:1;" d="M 77.382813 180.023438 C 75.378906 181.214844 73.804688 181.835938 70.589844 180.882813 C 69.753906 180.644531 69.015625 180.191406 68.324219 179.644531 C 67.515625 179 66.894531 178.191406 66.488281 177.261719 C 66.085938 176.332031 65.894531 175.210938 65.894531 173.945313 C 65.894531 171.824219 66.558594 170.109375 67.894531 168.796875 C 69.230469 167.464844 70.945313 166.796875 73.042969 166.796875 C 73.542969 166.796875 74.070313 166.84375 74.546875 166.914063 C 75.046875 166.964844 76.453125 167.152344 76.929688 167.75 L 75.523438 170.179688 C 70.78125 168.105469 69.230469 171.921875 69.800781 175.164063 C 70.300781 178.117188 72.234375 179.644531 75.617188 177.664063 L 77.382813 180.023438 "/>
</g>
</svg>
