<?xml version="1.0" encoding="UTF-8"?>
<svg xmlns="http://www.w3.org/2000/svg" xmlns:xlink="http://www.w3.org/1999/xlink" width="134.07pt" height="41.34pt" viewBox="0 0 134.07 41.34" version="1.1">
<defs>
<clipPath id="clip1">
  <path d="M 1 0.0390625 L 6 0.0390625 L 6 4 L 1 4 Z M 1 0.0390625 "/>
</clipPath>
<clipPath id="clip2">
  <path d="M 6 0.0390625 L 12 0.0390625 L 12 3 L 6 3 Z M 6 0.0390625 "/>
</clipPath>
<clipPath id="clip3">
  <path d="M 13 0.0390625 L 19 0.0390625 L 19 4 L 13 4 Z M 13 0.0390625 "/>
</clipPath>
<clipPath id="clip4">
  <path d="M 19 0.0390625 L 25 0.0390625 L 25 4 L 19 4 Z M 19 0.0390625 "/>
</clipPath>
<clipPath id="clip5">
  <path d="M 26 0.0390625 L 28 0.0390625 L 28 3 L 26 3 Z M 26 0.0390625 "/>
</clipPath>
<clipPath id="clip6">
  <path d="M 29 0.0390625 L 35 0.0390625 L 35 4 L 29 4 Z M 29 0.0390625 "/>
</clipPath>
<clipPath id="clip7">
  <path d="M 38 0.0390625 L 45 0.0390625 L 45 4 L 38 4 Z M 38 0.0390625 "/>
</clipPath>
<clipPath id="clip8">
  <path d="M 45 0.0390625 L 51 0.0390625 L 51 4 L 45 4 Z M 45 0.0390625 "/>
</clipPath>
<clipPath id="clip9">
  <path d="M 54 0.0390625 L 58 0.0390625 L 58 3 L 54 3 Z M 54 0.0390625 "/>
</clipPath>
<clipPath id="clip10">
  <path d="M 57 0.0390625 L 63 0.0390625 L 63 4 L 57 4 Z M 57 0.0390625 "/>
</clipPath>
<clipPath id="clip11">
  <path d="M 63 0.0390625 L 67 0.0390625 L 67 1 L 63 1 Z M 63 0.0390625 "/>
</clipPath>
<clipPath id="clip12">
  <path d="M 67 0.0390625 L 72 0.0390625 L 72 4 L 67 4 Z M 67 0.0390625 "/>
</clipPath>
<clipPath id="clip13">
  <path d="M 71 0.0390625 L 77 0.0390625 L 77 4 L 71 4 Z M 71 0.0390625 "/>
</clipPath>
<clipPath id="clip14">
  <path d="M 77 0.0390625 L 83 0.0390625 L 83 3 L 77 3 Z M 77 0.0390625 "/>
</clipPath>
<clipPath id="clip15">
  <path d="M 83 0.0390625 L 89 0.0390625 L 89 4 L 83 4 Z M 83 0.0390625 "/>
</clipPath>
<clipPath id="clip16">
  <path d="M 89 0.0390625 L 95 0.0390625 L 95 4 L 89 4 Z M 89 0.0390625 "/>
</clipPath>
<clipPath id="clip17">
  <path d="M 98 0.0390625 L 103 0.0390625 L 103 3 L 98 3 Z M 98 0.0390625 "/>
</clipPath>
<clipPath id="clip18">
  <path d="M 102 0.0390625 L 106 0.0390625 L 106 3 L 102 3 Z M 102 0.0390625 "/>
</clipPath>
<clipPath id="clip19">
  <path d="M 105 0.0390625 L 112 0.0390625 L 112 4 L 105 4 Z M 105 0.0390625 "/>
</clipPath>
<clipPath id="clip20">
  <path d="M 112 0.0390625 L 122 0.0390625 L 122 3 L 112 3 Z M 112 0.0390625 "/>
</clipPath>
<clipPath id="clip21">
  <path d="M 0 40 L 2 40 L 2 41.339844 L 0 41.339844 Z M 0 40 "/>
</clipPath>
<clipPath id="clip22">
  <path d="M 5 38 L 7 38 L 7 41.339844 L 5 41.339844 Z M 5 38 "/>
</clipPath>
<clipPath id="clip23">
  <path d="M 8 37 L 10 37 L 10 41.339844 L 8 41.339844 Z M 8 37 "/>
</clipPath>
<clipPath id="clip24">
  <path d="M 10 37 L 12 37 L 12 41.339844 L 10 41.339844 Z M 10 37 "/>
</clipPath>
<clipPath id="clip25">
  <path d="M 13 40 L 19 40 L 19 41.339844 L 13 41.339844 Z M 13 40 "/>
</clipPath>
<clipPath id="clip26">
  <path d="M 19 40 L 24 40 L 24 41.339844 L 19 41.339844 Z M 19 40 "/>
</clipPath>
<clipPath id="clip27">
  <path d="M 24 39 L 28 39 L 28 41.339844 L 24 41.339844 Z M 24 39 "/>
</clipPath>
<clipPath id="clip28">
  <path d="M 28 40 L 32 40 L 32 41.339844 L 28 41.339844 Z M 28 40 "/>
</clipPath>
<clipPath id="clip29">
  <path d="M 32 40 L 37 40 L 37 41.339844 L 32 41.339844 Z M 32 40 "/>
</clipPath>
<clipPath id="clip30">
  <path d="M 37 39 L 42 39 L 42 41.339844 L 37 41.339844 Z M 37 39 "/>
</clipPath>
<clipPath id="clip31">
  <path d="M 42 40 L 48 40 L 48 41.339844 L 42 41.339844 Z M 42 40 "/>
</clipPath>
<clipPath id="clip32">
  <path d="M 48 40 L 52 40 L 52 41.339844 L 48 41.339844 Z M 48 40 "/>
</clipPath>
<clipPath id="clip33">
  <path d="M 55 38 L 62 38 L 62 41.339844 L 55 41.339844 Z M 55 38 "/>
</clipPath>
<clipPath id="clip34">
  <path d="M 62 40 L 68 40 L 68 41.339844 L 62 41.339844 Z M 62 40 "/>
</clipPath>
<clipPath id="clip35">
  <path d="M 68 39 L 72 39 L 72 41.339844 L 68 41.339844 Z M 68 39 "/>
</clipPath>
<clipPath id="clip36">
  <path d="M 72 38 L 75 38 L 75 41.339844 L 72 41.339844 Z M 72 38 "/>
</clipPath>
<clipPath id="clip37">
  <path d="M 75 40 L 81 40 L 81 41.339844 L 75 41.339844 Z M 75 40 "/>
</clipPath>
<clipPath id="clip38">
  <path d="M 81 40 L 87 40 L 87 41.339844 L 81 41.339844 Z M 81 40 "/>
</clipPath>
<clipPath id="clip39">
  <path d="M 90 38 L 95 38 L 95 41.339844 L 90 41.339844 Z M 90 38 "/>
</clipPath>
<clipPath id="clip40">
  <path d="M 95 40 L 101 40 L 101 41.339844 L 95 41.339844 Z M 95 40 "/>
</clipPath>
<clipPath id="clip41">
  <path d="M 102 40 L 106 40 L 106 41.339844 L 102 41.339844 Z M 102 40 "/>
</clipPath>
<clipPath id="clip42">
  <path d="M 106 40 L 115 40 L 115 41.339844 L 106 41.339844 Z M 106 40 "/>
</clipPath>
<clipPath id="clip43">
  <path d="M 115 40 L 121 40 L 121 41.339844 L 115 41.339844 Z M 115 40 "/>
</clipPath>
<clipPath id="clip44">
  <path d="M 121 39 L 125 39 L 125 41.339844 L 121 41.339844 Z M 121 39 "/>
</clipPath>
</defs>
<g id="surface1">
<g clip-path="url(#clip1)" clip-rule="nonzero">
<path style=" stroke:none;fill-rule:nonzero;fill:rgb(13.699341%,12.199402%,12.5%);fill-opacity:1;" d="M 1.871094 1.851563 C 2.195313 2.042969 2.746094 2.257813 3.277344 2.257813 C 4.03125 2.257813 4.390625 1.886719 4.390625 1.394531 C 4.390625 0.890625 4.09375 0.613281 3.324219 0.324219 C 2.265625 -0.0546875 1.777344 -0.621094 1.777344 -1.316406 C 1.777344 -2.253906 2.542969 -3.023438 3.78125 -3.023438 C 4.367188 -3.023438 4.882813 -2.867188 5.195313 -2.664063 L 4.945313 -1.90625 C 4.714844 -2.039063 4.296875 -2.242188 3.757813 -2.242188 C 3.132813 -2.242188 2.796875 -1.882813 2.796875 -1.449219 C 2.796875 -0.957031 3.132813 -0.742188 3.886719 -0.453125 C 4.882813 -0.0820313 5.410156 0.421875 5.410156 1.296875 C 5.410156 2.328125 4.609375 3.050781 3.25 3.050781 C 2.617188 3.050781 2.027344 2.882813 1.617188 2.640625 "/>
</g>
<g clip-path="url(#clip2)" clip-rule="nonzero">
<path style=" stroke:none;fill-rule:nonzero;fill:rgb(13.699341%,12.199402%,12.5%);fill-opacity:1;" d="M 6.765625 -5.601563 L 7.824219 -5.601563 L 7.824219 -1.976563 L 7.847656 -1.976563 C 8.015625 -2.277344 8.28125 -2.554688 8.601563 -2.722656 C 8.914063 -2.914063 9.289063 -3.023438 9.683594 -3.023438 C 10.464844 -3.023438 11.710938 -2.542969 11.710938 -0.539063 L 11.710938 2.917969 L 10.65625 2.917969 L 10.65625 -0.417969 C 10.65625 -1.367188 10.308594 -2.144531 9.3125 -2.144531 C 8.628906 -2.144531 8.097656 -1.667969 7.894531 -1.089844 C 7.835938 -0.945313 7.824219 -0.789063 7.824219 -0.585938 L 7.824219 2.917969 L 6.765625 2.917969 "/>
</g>
<g clip-path="url(#clip3)" clip-rule="nonzero">
<path style=" stroke:none;fill-rule:nonzero;fill:rgb(13.699341%,12.199402%,12.5%);fill-opacity:1;" d="M 15.828125 2.257813 C 16.835938 2.257813 17.59375 1.308594 17.59375 -0.0117188 C 17.59375 -0.996094 17.097656 -2.230469 15.851563 -2.230469 C 14.617188 -2.230469 14.074219 -1.078125 14.074219 0.0273438 C 14.074219 1.296875 14.796875 2.257813 15.816406 2.257813 Z M 15.792969 3.050781 C 14.230469 3.050781 13.007813 1.898438 13.007813 0.0625 C 13.007813 -1.882813 14.292969 -3.023438 15.886719 -3.023438 C 17.554688 -3.023438 18.683594 -1.808594 18.683594 -0.046875 C 18.683594 2.117188 17.183594 3.050781 15.804688 3.050781 "/>
</g>
<g clip-path="url(#clip4)" clip-rule="nonzero">
<path style=" stroke:none;fill-rule:nonzero;fill:rgb(13.699341%,12.199402%,12.5%);fill-opacity:1;" d="M 24.875 1.332031 C 24.875 1.933594 24.886719 2.460938 24.925781 2.917969 L 23.988281 2.917969 L 23.929688 1.96875 L 23.90625 1.96875 C 23.640625 2.4375 23.015625 3.050781 21.984375 3.050781 C 21.074219 3.050781 19.980469 2.535156 19.980469 0.503906 L 19.980469 -2.886719 L 21.035156 -2.886719 L 21.035156 0.3125 C 21.035156 1.417969 21.382813 2.171875 22.332031 2.171875 C 23.039063 2.171875 23.53125 1.683594 23.722656 1.203125 C 23.78125 1.058594 23.820313 0.867188 23.820313 0.660156 L 23.820313 -2.886719 L 24.875 -2.886719 "/>
</g>
<g clip-path="url(#clip5)" clip-rule="nonzero">
<path style=" stroke:none;fill-rule:nonzero;fill:rgb(13.699341%,12.199402%,12.5%);fill-opacity:1;" d="M 26.628906 2.917969 L 27.683594 2.917969 L 27.683594 -5.601563 L 26.628906 -5.601563 Z M 26.628906 2.917969 "/>
</g>
<g clip-path="url(#clip6)" clip-rule="nonzero">
<path style=" stroke:none;fill-rule:nonzero;fill:rgb(13.699341%,12.199402%,12.5%);fill-opacity:1;" d="M 33.394531 -0.527344 C 33.394531 -0.671875 33.382813 -0.839844 33.34375 -0.980469 C 33.191406 -1.640625 32.613281 -2.195313 31.824219 -2.195313 C 30.730469 -2.195313 30.082031 -1.234375 30.082031 0.0390625 C 30.082031 1.226563 30.671875 2.199219 31.800781 2.199219 C 32.507813 2.199219 33.15625 1.71875 33.34375 0.9375 C 33.382813 0.792969 33.394531 0.648438 33.394531 0.480469 Z M 34.449219 -5.601563 L 34.449219 1.417969 C 34.449219 1.933594 34.460938 2.523438 34.496094 2.917969 L 33.550781 2.917969 L 33.503906 1.910156 L 33.480469 1.910156 C 33.15625 2.558594 32.457031 3.050781 31.511719 3.050781 C 30.105469 3.050781 29.015625 1.863281 29.015625 0.0976563 C 29.003906 -1.847656 30.214844 -3.023438 31.617188 -3.023438 C 32.519531 -3.023438 33.117188 -2.601563 33.371094 -2.144531 L 33.394531 -2.144531 L 33.394531 -5.601563 "/>
</g>
<g clip-path="url(#clip7)" clip-rule="nonzero">
<path style=" stroke:none;fill-rule:nonzero;fill:rgb(13.699341%,12.199402%,12.5%);fill-opacity:1;" d="M 39.804688 0.589844 C 39.804688 0.722656 39.816406 0.855469 39.839844 0.972656 C 40.042969 1.707031 40.667969 2.210938 41.421875 2.210938 C 42.539063 2.210938 43.1875 1.308594 43.1875 -0.0234375 C 43.1875 -1.199219 42.585938 -2.195313 41.460938 -2.195313 C 40.738281 -2.195313 40.070313 -1.691406 39.863281 -0.898438 C 39.828125 -0.765625 39.804688 -0.621094 39.804688 -0.453125 Z M 38.746094 -5.601563 L 39.804688 -5.601563 L 39.804688 -1.964844 L 39.828125 -1.964844 C 40.199219 -2.613281 40.871094 -3.023438 41.808594 -3.023438 C 43.246094 -3.023438 44.253906 -1.824219 44.253906 -0.0703125 C 44.253906 2.019531 42.9375 3.050781 41.640625 3.050781 C 40.800781 3.050781 40.140625 2.726563 39.695313 1.957031 L 39.671875 1.957031 L 39.613281 2.917969 L 38.699219 2.917969 C 38.734375 2.523438 38.746094 1.933594 38.746094 1.417969 "/>
</g>
<g clip-path="url(#clip8)" clip-rule="nonzero">
<path style=" stroke:none;fill-rule:nonzero;fill:rgb(13.699341%,12.199402%,12.5%);fill-opacity:1;" d="M 49.269531 -0.5625 C 49.28125 -1.21875 48.992188 -2.277344 47.820313 -2.277344 C 46.738281 -2.277344 46.28125 -1.292969 46.199219 -0.5625 Z M 46.1875 0.195313 C 46.210938 1.621094 47.109375 2.210938 48.164063 2.210938 C 48.921875 2.210938 49.390625 2.078125 49.777344 1.921875 L 49.964844 2.664063 C 49.59375 2.832031 48.949219 3.039063 48.023438 3.039063 C 46.246094 3.039063 45.164063 1.851563 45.164063 0.113281 C 45.164063 -1.65625 46.210938 -3.035156 47.902344 -3.035156 C 49.796875 -3.035156 50.289063 -1.367188 50.289063 -0.296875 C 50.289063 -0.0820313 50.28125 0.0859375 50.253906 0.207031 "/>
</g>
<g clip-path="url(#clip9)" clip-rule="nonzero">
<path style=" stroke:none;fill-rule:nonzero;fill:rgb(13.699341%,12.199402%,12.5%);fill-opacity:1;" d="M 54.15625 -1.078125 C 54.15625 -1.761719 54.144531 -2.351563 54.105469 -2.886719 L 55.03125 -2.886719 L 55.078125 -1.75 L 55.113281 -1.75 C 55.378906 -2.53125 56.027344 -3.023438 56.734375 -3.023438 C 56.84375 -3.023438 56.925781 -3.011719 57.023438 -2.988281 L 57.023438 -2.003906 C 56.902344 -2.015625 56.796875 -2.027344 56.652344 -2.027344 C 55.90625 -2.027344 55.378906 -1.460938 55.234375 -0.683594 C 55.210938 -0.527344 55.199219 -0.359375 55.199219 -0.179688 L 55.199219 2.917969 L 54.144531 2.917969 "/>
</g>
<g clip-path="url(#clip10)" clip-rule="nonzero">
<path style=" stroke:none;fill-rule:nonzero;fill:rgb(13.699341%,12.199402%,12.5%);fill-opacity:1;" d="M 61.679688 -0.5625 C 61.691406 -1.21875 61.402344 -2.277344 60.226563 -2.277344 C 59.148438 -2.277344 58.691406 -1.292969 58.605469 -0.5625 Z M 58.59375 0.195313 C 58.617188 1.621094 59.519531 2.210938 60.574219 2.210938 C 61.332031 2.210938 61.796875 2.078125 62.183594 1.921875 L 62.375 2.664063 C 62.003906 2.832031 61.355469 3.039063 60.429688 3.039063 C 58.65625 3.039063 57.574219 1.851563 57.574219 0.113281 C 57.574219 -1.65625 58.617188 -3.035156 60.3125 -3.035156 C 62.207031 -3.035156 62.699219 -1.367188 62.699219 -0.296875 C 62.699219 -0.0820313 62.6875 0.0859375 62.660156 0.207031 "/>
</g>
<g clip-path="url(#clip11)" clip-rule="nonzero">
<path style=" stroke:none;fill-rule:nonzero;fill:rgb(13.699341%,12.199402%,12.5%);fill-opacity:1;" d="M 63.488281 0.0625 L 66.453125 0.0625 L 66.453125 -0.707031 L 63.488281 -0.707031 Z M 63.488281 0.0625 "/>
</g>
<g clip-path="url(#clip12)" clip-rule="nonzero">
<path style=" stroke:none;fill-rule:nonzero;fill:rgb(13.699341%,12.199402%,12.5%);fill-opacity:1;" d="M 67.546875 1.851563 C 67.871094 2.042969 68.421875 2.257813 68.949219 2.257813 C 69.707031 2.257813 70.066406 1.886719 70.066406 1.394531 C 70.066406 0.890625 69.765625 0.613281 68.996094 0.324219 C 67.945313 -0.0546875 67.449219 -0.621094 67.449219 -1.316406 C 67.449219 -2.253906 68.21875 -3.023438 69.453125 -3.023438 C 70.042969 -3.023438 70.558594 -2.867188 70.871094 -2.664063 L 70.617188 -1.90625 C 70.390625 -2.039063 69.972656 -2.242188 69.429688 -2.242188 C 68.808594 -2.242188 68.472656 -1.882813 68.472656 -1.449219 C 68.472656 -0.957031 68.808594 -0.742188 69.5625 -0.453125 C 70.558594 -0.0820313 71.085938 0.421875 71.085938 1.296875 C 71.085938 2.328125 70.28125 3.050781 68.925781 3.050781 C 68.289063 3.050781 67.703125 2.882813 67.296875 2.640625 "/>
</g>
<g clip-path="url(#clip13)" clip-rule="nonzero">
<path style=" stroke:none;fill-rule:nonzero;fill:rgb(13.699341%,12.199402%,12.5%);fill-opacity:1;" d="M 75.503906 -0.046875 C 74.351563 -0.0703125 73.042969 0.132813 73.042969 1.261719 C 73.042969 1.957031 73.496094 2.269531 74.027344 2.269531 C 74.792969 2.269531 75.285156 1.789063 75.453125 1.296875 C 75.492188 1.191406 75.503906 1.070313 75.503906 0.960938 Z M 76.535156 1.527344 C 76.535156 2.03125 76.558594 2.523438 76.617188 2.917969 L 75.671875 2.917969 L 75.574219 2.1875 L 75.539063 2.1875 C 75.226563 2.640625 74.589844 3.050781 73.761719 3.050781 C 72.585938 3.050781 71.988281 2.222656 71.988281 1.382813 C 71.988281 -0.0234375 73.234375 -0.789063 75.480469 -0.777344 L 75.480469 -0.898438 C 75.480469 -1.378906 75.347656 -2.253906 74.15625 -2.242188 C 73.605469 -2.242188 73.042969 -2.085938 72.636719 -1.808594 L 72.394531 -2.519531 C 72.875 -2.816406 73.582031 -3.023438 74.316406 -3.023438 C 76.101563 -3.023438 76.535156 -1.808594 76.535156 -0.644531 "/>
</g>
<g clip-path="url(#clip14)" clip-rule="nonzero">
<path style=" stroke:none;fill-rule:nonzero;fill:rgb(13.699341%,12.199402%,12.5%);fill-opacity:1;" d="M 78.476563 -2.886719 L 79.617188 0.363281 C 79.808594 0.902344 79.964844 1.382813 80.085938 1.863281 L 80.121094 1.863281 C 80.253906 1.382813 80.421875 0.902344 80.613281 0.363281 L 81.742188 -2.886719 L 82.84375 -2.886719 L 80.566406 2.917969 L 79.558594 2.917969 L 77.351563 -2.886719 "/>
</g>
<g clip-path="url(#clip15)" clip-rule="nonzero">
<path style=" stroke:none;fill-rule:nonzero;fill:rgb(13.699341%,12.199402%,12.5%);fill-opacity:1;" d="M 87.394531 -0.5625 C 87.40625 -1.21875 87.117188 -2.277344 85.945313 -2.277344 C 84.863281 -2.277344 84.40625 -1.292969 84.324219 -0.5625 Z M 84.308594 0.195313 C 84.335938 1.621094 85.234375 2.210938 86.289063 2.210938 C 87.046875 2.210938 87.515625 2.078125 87.898438 1.921875 L 88.089844 2.664063 C 87.71875 2.832031 87.070313 3.039063 86.148438 3.039063 C 84.371094 3.039063 83.289063 1.851563 83.289063 0.113281 C 83.289063 -1.65625 84.335938 -3.035156 86.027344 -3.035156 C 87.921875 -3.035156 88.414063 -1.367188 88.414063 -0.296875 C 88.414063 -0.0820313 88.402344 0.0859375 88.378906 0.207031 "/>
</g>
<g clip-path="url(#clip16)" clip-rule="nonzero">
<path style=" stroke:none;fill-rule:nonzero;fill:rgb(13.699341%,12.199402%,12.5%);fill-opacity:1;" d="M 93.683594 -0.527344 C 93.683594 -0.671875 93.671875 -0.839844 93.632813 -0.980469 C 93.476563 -1.640625 92.902344 -2.195313 92.109375 -2.195313 C 91.019531 -2.195313 90.371094 -1.234375 90.371094 0.0390625 C 90.371094 1.226563 90.957031 2.199219 92.085938 2.199219 C 92.792969 2.199219 93.441406 1.71875 93.632813 0.9375 C 93.671875 0.792969 93.683594 0.648438 93.683594 0.480469 Z M 94.738281 -5.601563 L 94.738281 1.417969 C 94.738281 1.933594 94.75 2.523438 94.785156 2.917969 L 93.839844 2.917969 L 93.789063 1.910156 L 93.765625 1.910156 C 93.441406 2.558594 92.746094 3.050781 91.796875 3.050781 C 90.394531 3.050781 89.300781 1.863281 89.300781 0.0976563 C 89.289063 -1.847656 90.503906 -3.023438 91.90625 -3.023438 C 92.804688 -3.023438 93.40625 -2.601563 93.65625 -2.144531 L 93.683594 -2.144531 L 93.683594 -5.601563 "/>
</g>
<g clip-path="url(#clip17)" clip-rule="nonzero">
<path style=" stroke:none;fill-rule:nonzero;fill:rgb(13.699341%,12.199402%,12.5%);fill-opacity:1;" d="M 99.128906 2.917969 L 99.128906 -2.085938 L 98.328125 -2.085938 L 98.328125 -2.886719 L 99.128906 -2.886719 L 99.128906 -3.167969 C 99.128906 -3.980469 99.324219 -4.722656 99.816406 -5.195313 C 100.210938 -5.578125 100.738281 -5.734375 101.21875 -5.734375 C 101.601563 -5.734375 101.914063 -5.648438 102.117188 -5.566406 L 101.988281 -4.75 C 101.820313 -4.824219 101.613281 -4.882813 101.300781 -4.882813 C 100.414063 -4.882813 100.175781 -4.089844 100.175781 -3.203125 L 100.175781 -2.886719 L 101.578125 -2.886719 L 101.578125 -2.085938 L 100.1875 -2.085938 L 100.1875 2.917969 "/>
</g>
<g clip-path="url(#clip18)" clip-rule="nonzero">
<path style=" stroke:none;fill-rule:nonzero;fill:rgb(13.699341%,12.199402%,12.5%);fill-opacity:1;" d="M 102.550781 -1.078125 C 102.550781 -1.761719 102.539063 -2.351563 102.503906 -2.886719 L 103.425781 -2.886719 L 103.476563 -1.75 L 103.511719 -1.75 C 103.773438 -2.53125 104.421875 -3.023438 105.128906 -3.023438 C 105.238281 -3.023438 105.324219 -3.011719 105.417969 -2.988281 L 105.417969 -2.003906 C 105.296875 -2.015625 105.191406 -2.027344 105.046875 -2.027344 C 104.300781 -2.027344 103.773438 -1.460938 103.628906 -0.683594 C 103.605469 -0.527344 103.59375 -0.359375 103.59375 -0.179688 L 103.59375 2.917969 L 102.539063 2.917969 "/>
</g>
<g clip-path="url(#clip19)" clip-rule="nonzero">
<path style=" stroke:none;fill-rule:nonzero;fill:rgb(13.699341%,12.199402%,12.5%);fill-opacity:1;" d="M 108.789063 2.257813 C 109.796875 2.257813 110.554688 1.308594 110.554688 -0.0117188 C 110.554688 -0.996094 110.0625 -2.230469 108.8125 -2.230469 C 107.578125 -2.230469 107.039063 -1.078125 107.039063 0.0273438 C 107.039063 1.296875 107.757813 2.257813 108.777344 2.257813 Z M 108.753906 3.050781 C 107.195313 3.050781 105.96875 1.898438 105.96875 0.0625 C 105.96875 -1.882813 107.253906 -3.023438 108.851563 -3.023438 C 110.519531 -3.023438 111.644531 -1.808594 111.644531 -0.046875 C 111.644531 2.117188 110.144531 3.050781 108.765625 3.050781 "/>
</g>
<g clip-path="url(#clip20)" clip-rule="nonzero">
<path style=" stroke:none;fill-rule:nonzero;fill:rgb(13.699341%,12.199402%,12.5%);fill-opacity:1;" d="M 112.976563 -1.316406 C 112.976563 -1.929688 112.953125 -2.410156 112.929688 -2.886719 L 113.855469 -2.886719 L 113.902344 -1.953125 L 113.9375 -1.953125 C 114.261719 -2.507813 114.800781 -3.023438 115.773438 -3.023438 C 116.554688 -3.023438 117.152344 -2.542969 117.40625 -1.859375 L 117.429688 -1.859375 C 117.609375 -2.195313 117.851563 -2.433594 118.089844 -2.613281 C 118.4375 -2.878906 118.808594 -3.023438 119.363281 -3.023438 C 120.140625 -3.023438 121.28125 -2.519531 121.28125 -0.503906 L 121.28125 2.917969 L 120.25 2.917969 L 120.25 -0.371094 C 120.25 -1.5 119.828125 -2.160156 118.988281 -2.160156 C 118.378906 -2.160156 117.921875 -1.714844 117.730469 -1.210938 C 117.683594 -1.050781 117.644531 -0.863281 117.644531 -0.683594 L 117.644531 2.917969 L 116.613281 2.917969 L 116.613281 -0.5625 C 116.613281 -1.5 116.207031 -2.160156 115.402344 -2.160156 C 114.753906 -2.160156 114.261719 -1.628906 114.09375 -1.101563 C 114.03125 -0.945313 114.011719 -0.765625 114.011719 -0.585938 L 114.011719 2.917969 L 112.976563 2.917969 "/>
</g>
<path style=" stroke:none;fill-rule:nonzero;fill:rgb(13.699341%,12.199402%,12.5%);fill-opacity:1;" d="M 3.503906 16.757813 C 4.511719 16.757813 5.265625 15.8125 5.265625 14.492188 C 5.265625 13.507813 4.773438 12.269531 3.527344 12.269531 C 2.292969 12.269531 1.75 13.421875 1.75 14.527344 C 1.75 15.796875 2.472656 16.757813 3.492188 16.757813 Z M 3.46875 17.550781 C 1.90625 17.550781 0.683594 16.398438 0.683594 14.5625 C 0.683594 12.617188 1.96875 11.480469 3.5625 11.480469 C 5.230469 11.480469 6.359375 12.691406 6.359375 14.457031 C 6.359375 16.613281 4.859375 17.550781 3.480469 17.550781 "/>
<path style=" stroke:none;fill-rule:nonzero;fill:rgb(13.699341%,12.199402%,12.5%);fill-opacity:1;" d="M 7.703125 13.421875 C 7.703125 12.738281 7.691406 12.152344 7.65625 11.613281 L 8.578125 11.613281 L 8.628906 12.75 L 8.664063 12.75 C 8.925781 11.96875 9.574219 11.480469 10.28125 11.480469 C 10.390625 11.480469 10.476563 11.492188 10.570313 11.515625 L 10.570313 12.5 C 10.453125 12.488281 10.34375 12.476563 10.199219 12.476563 C 9.457031 12.476563 8.925781 13.039063 8.78125 13.820313 C 8.757813 13.976563 8.746094 14.144531 8.746094 14.324219 L 8.746094 17.417969 L 7.691406 17.417969 "/>
<path style=" stroke:none;fill-rule:nonzero;fill:rgb(13.699341%,12.199402%,12.5%);fill-opacity:1;" d="M 14.578125 11.613281 L 15.359375 14.550781 C 15.515625 15.199219 15.671875 15.8125 15.78125 16.410156 L 15.816406 16.410156 C 15.949219 15.824219 16.140625 15.199219 16.332031 14.5625 L 17.28125 11.613281 L 18.167969 11.613281 L 19.070313 14.515625 C 19.28125 15.199219 19.453125 15.824219 19.582031 16.410156 L 19.617188 16.410156 C 19.714844 15.824219 19.871094 15.210938 20.0625 14.527344 L 20.890625 11.613281 L 21.933594 11.613281 L 20.0625 17.417969 L 19.101563 17.417969 L 18.214844 14.648438 C 18.011719 13.988281 17.84375 13.410156 17.699219 12.726563 L 17.675781 12.726563 C 17.53125 13.421875 17.351563 14.035156 17.148438 14.660156 L 16.210938 17.417969 L 15.25 17.417969 L 13.5 11.613281 "/>
<path style=" stroke:none;fill-rule:nonzero;fill:rgb(13.699341%,12.199402%,12.5%);fill-opacity:1;" d="M 22.992188 11.613281 L 24.046875 11.613281 L 24.046875 17.417969 L 22.992188 17.417969 Z M 23.496094 10.542969 C 23.097656 10.542969 22.835938 10.230469 22.835938 9.859375 C 22.835938 9.488281 23.113281 9.1875 23.519531 9.1875 C 23.929688 9.1875 24.191406 9.488281 24.191406 9.859375 C 24.191406 10.230469 23.929688 10.542969 23.507813 10.542969 "/>
<path style=" stroke:none;fill-rule:nonzero;fill:rgb(13.699341%,12.199402%,12.5%);fill-opacity:1;" d="M 27.074219 10.21875 L 27.074219 11.613281 L 28.585938 11.613281 L 28.585938 12.414063 L 27.074219 12.414063 L 27.074219 15.546875 C 27.074219 16.265625 27.277344 16.675781 27.863281 16.675781 C 28.152344 16.675781 28.320313 16.652344 28.476563 16.601563 L 28.523438 17.410156 C 28.320313 17.480469 27.996094 17.550781 27.589844 17.550781 C 27.09375 17.550781 26.699219 17.382813 26.449219 17.105469 C 26.160156 16.78125 26.039063 16.265625 26.039063 15.582031 L 26.039063 12.414063 L 25.140625 12.414063 L 25.140625 11.613281 L 26.039063 11.613281 L 26.039063 10.542969 "/>
<path style=" stroke:none;fill-rule:nonzero;fill:rgb(13.699341%,12.199402%,12.5%);fill-opacity:1;" d="M 29.769531 8.898438 L 30.828125 8.898438 L 30.828125 12.523438 L 30.851563 12.523438 C 31.019531 12.222656 31.28125 11.949219 31.605469 11.78125 C 31.917969 11.585938 32.289063 11.480469 32.6875 11.480469 C 33.46875 11.480469 34.714844 11.957031 34.714844 13.960938 L 34.714844 17.417969 L 33.660156 17.417969 L 33.660156 14.082031 C 33.660156 13.132813 33.3125 12.355469 32.316406 12.355469 C 31.632813 12.355469 31.101563 12.835938 30.898438 13.410156 C 30.839844 13.554688 30.828125 13.710938 30.828125 13.914063 L 30.828125 17.417969 L 29.769531 17.417969 "/>
<path style=" stroke:none;fill-rule:nonzero;fill:rgb(13.699341%,12.199402%,12.5%);fill-opacity:1;" d="M 40.246094 10.21875 L 40.246094 11.613281 L 41.761719 11.613281 L 41.761719 12.414063 L 40.246094 12.414063 L 40.246094 15.546875 C 40.246094 16.265625 40.453125 16.675781 41.039063 16.675781 C 41.328125 16.675781 41.496094 16.652344 41.652344 16.601563 L 41.699219 17.410156 C 41.496094 17.480469 41.171875 17.550781 40.765625 17.550781 C 40.273438 17.550781 39.875 17.382813 39.625 17.105469 C 39.335938 16.78125 39.214844 16.265625 39.214844 15.582031 L 39.214844 12.414063 L 38.316406 12.414063 L 38.316406 11.613281 L 39.214844 11.613281 L 39.214844 10.542969 "/>
<path style=" stroke:none;fill-rule:nonzero;fill:rgb(13.699341%,12.199402%,12.5%);fill-opacity:1;" d="M 42.949219 8.898438 L 44.003906 8.898438 L 44.003906 12.523438 L 44.027344 12.523438 C 44.195313 12.222656 44.457031 11.949219 44.78125 11.78125 C 45.09375 11.585938 45.46875 11.480469 45.863281 11.480469 C 46.644531 11.480469 47.890625 11.957031 47.890625 13.960938 L 47.890625 17.417969 L 46.835938 17.417969 L 46.835938 14.082031 C 46.835938 13.132813 46.488281 12.355469 45.492188 12.355469 C 44.808594 12.355469 44.28125 12.835938 44.074219 13.410156 C 44.015625 13.554688 44.003906 13.710938 44.003906 13.914063 L 44.003906 17.417969 L 42.949219 17.417969 "/>
<path style=" stroke:none;fill-rule:nonzero;fill:rgb(13.699341%,12.199402%,12.5%);fill-opacity:1;" d="M 53.289063 13.9375 C 53.304688 13.277344 53.015625 12.222656 51.839844 12.222656 C 50.757813 12.222656 50.304688 13.207031 50.21875 13.9375 Z M 50.207031 14.695313 C 50.230469 16.121094 51.132813 16.710938 52.1875 16.710938 C 52.945313 16.710938 53.410156 16.578125 53.796875 16.421875 L 53.988281 17.167969 C 53.613281 17.335938 52.96875 17.539063 52.042969 17.539063 C 50.265625 17.539063 49.1875 16.351563 49.1875 14.613281 C 49.1875 12.847656 50.230469 11.464844 51.921875 11.464844 C 53.820313 11.464844 54.3125 13.132813 54.3125 14.203125 C 54.3125 14.417969 54.300781 14.585938 54.277344 14.707031 "/>
<path style=" stroke:none;fill-rule:nonzero;fill:rgb(13.699341%,12.199402%,12.5%);fill-opacity:1;" d="M 60.71875 9.117188 L 60.527344 11.996094 L 59.878906 11.996094 L 59.6875 9.117188 Z M 58.929688 9.117188 L 58.738281 11.996094 L 58.089844 11.996094 L 57.902344 9.117188 "/>
<path style=" stroke:none;fill-rule:nonzero;fill:rgb(13.699341%,12.199402%,12.5%);fill-opacity:1;" d="M 67.882813 17.167969 C 67.511719 17.359375 66.730469 17.550781 65.746094 17.550781 C 63.46875 17.550781 61.761719 16.113281 61.761719 13.445313 C 61.761719 10.902344 63.480469 9.199219 65.988281 9.199219 C 66.984375 9.199219 67.632813 9.414063 67.90625 9.558594 L 67.644531 10.410156 C 67.257813 10.21875 66.695313 10.074219 66.023438 10.074219 C 64.128906 10.074219 62.867188 11.289063 62.867188 13.410156 C 62.867188 15.402344 64.007813 16.664063 65.964844 16.664063 C 66.613281 16.664063 67.257813 16.53125 67.679688 16.328125 "/>
<path style=" stroke:none;fill-rule:nonzero;fill:rgb(13.699341%,12.199402%,12.5%);fill-opacity:1;" d="M 69.164063 13.421875 C 69.164063 12.738281 69.15625 12.152344 69.117188 11.613281 L 70.039063 11.613281 L 70.089844 12.75 L 70.125 12.75 C 70.390625 11.96875 71.035156 11.480469 71.746094 11.480469 C 71.855469 11.480469 71.9375 11.492188 72.03125 11.515625 L 72.03125 12.5 C 71.914063 12.488281 71.804688 12.476563 71.660156 12.476563 C 70.917969 12.476563 70.390625 13.039063 70.246094 13.820313 C 70.222656 13.976563 70.210938 14.144531 70.210938 14.324219 L 70.210938 17.417969 L 69.15625 17.417969 "/>
<path style=" stroke:none;fill-rule:nonzero;fill:rgb(13.699341%,12.199402%,12.5%);fill-opacity:1;" d="M 76.691406 13.9375 C 76.703125 13.277344 76.414063 12.222656 75.238281 12.222656 C 74.15625 12.222656 73.703125 13.207031 73.617188 13.9375 Z M 73.605469 14.695313 C 73.628906 16.121094 74.53125 16.710938 75.585938 16.710938 C 76.34375 16.710938 76.808594 16.578125 77.195313 16.421875 L 77.386719 17.167969 C 77.015625 17.335938 76.367188 17.539063 75.441406 17.539063 C 73.664063 17.539063 72.585938 16.351563 72.585938 14.613281 C 72.585938 12.847656 73.628906 11.464844 75.324219 11.464844 C 77.21875 11.464844 77.710938 13.132813 77.710938 14.203125 C 77.710938 14.417969 77.699219 14.585938 77.675781 14.707031 "/>
<path style=" stroke:none;fill-rule:nonzero;fill:rgb(13.699341%,12.199402%,12.5%);fill-opacity:1;" d="M 82.078125 14.457031 C 80.925781 14.429688 79.617188 14.632813 79.617188 15.761719 C 79.617188 16.457031 80.074219 16.769531 80.601563 16.769531 C 81.371094 16.769531 81.863281 16.289063 82.03125 15.796875 C 82.066406 15.691406 82.078125 15.570313 82.078125 15.460938 Z M 83.109375 16.027344 C 83.109375 16.53125 83.136719 17.023438 83.195313 17.417969 L 82.246094 17.417969 L 82.152344 16.6875 L 82.113281 16.6875 C 81.804688 17.144531 81.167969 17.550781 80.339844 17.550781 C 79.160156 17.550781 78.5625 16.722656 78.5625 15.882813 C 78.5625 14.480469 79.8125 13.710938 82.054688 13.722656 L 82.054688 13.601563 C 82.054688 13.121094 81.921875 12.246094 80.734375 12.257813 C 80.183594 12.257813 79.617188 12.414063 79.210938 12.691406 L 78.972656 11.984375 C 79.449219 11.683594 80.15625 11.480469 80.890625 11.480469 C 82.679688 11.480469 83.109375 12.691406 83.109375 13.855469 "/>
<path style=" stroke:none;fill-rule:nonzero;fill:rgb(13.699341%,12.199402%,12.5%);fill-opacity:1;" d="M 86.027344 10.21875 L 86.027344 11.613281 L 87.539063 11.613281 L 87.539063 12.414063 L 86.027344 12.414063 L 86.027344 15.546875 C 86.027344 16.265625 86.230469 16.675781 86.820313 16.675781 C 87.105469 16.675781 87.277344 16.652344 87.429688 16.601563 L 87.476563 17.410156 C 87.277344 17.480469 86.949219 17.550781 86.542969 17.550781 C 86.050781 17.550781 85.65625 17.382813 85.402344 17.105469 C 85.113281 16.78125 84.992188 16.265625 84.992188 15.582031 L 84.992188 12.414063 L 84.09375 12.414063 L 84.09375 11.613281 L 84.992188 11.613281 L 84.992188 10.542969 "/>
<path style=" stroke:none;fill-rule:nonzero;fill:rgb(13.699341%,12.199402%,12.5%);fill-opacity:1;" d="M 92.335938 13.9375 C 92.351563 13.277344 92.0625 12.222656 90.886719 12.222656 C 89.804688 12.222656 89.351563 13.207031 89.265625 13.9375 Z M 89.253906 14.695313 C 89.277344 16.121094 90.179688 16.710938 91.234375 16.710938 C 91.988281 16.710938 92.457031 16.578125 92.84375 16.421875 L 93.03125 17.167969 C 92.660156 17.335938 92.015625 17.539063 91.089844 17.539063 C 89.3125 17.539063 88.234375 16.351563 88.234375 14.613281 C 88.234375 12.847656 89.277344 11.464844 90.96875 11.464844 C 92.867188 11.464844 93.359375 13.132813 93.359375 14.203125 C 93.359375 14.417969 93.34375 14.585938 93.324219 14.707031 "/>
<path style=" stroke:none;fill-rule:nonzero;fill:rgb(13.699341%,12.199402%,12.5%);fill-opacity:1;" d="M 98.289063 13.328125 C 98.519531 13.386719 98.820313 13.410156 99.15625 13.410156 C 100.425781 13.410156 101.183594 12.785156 101.183594 11.695313 C 101.183594 10.613281 100.425781 10.097656 99.277344 10.097656 C 98.820313 10.097656 98.46875 10.148438 98.289063 10.183594 Z M 97.246094 9.4375 C 97.75 9.34375 98.410156 9.269531 99.25 9.269531 C 100.28125 9.269531 101.039063 9.511719 101.519531 9.945313 C 101.960938 10.328125 102.238281 10.914063 102.238281 11.632813 C 102.238281 12.367188 102.023438 12.945313 101.601563 13.363281 C 101.050781 13.949219 100.152344 14.25 99.128906 14.25 C 98.820313 14.25 98.53125 14.238281 98.289063 14.179688 L 98.289063 17.417969 L 97.246094 17.417969 "/>
<path style=" stroke:none;fill-rule:nonzero;fill:rgb(13.699341%,12.199402%,12.5%);fill-opacity:1;" d="M 104.675781 16.601563 C 104.9375 16.652344 105.324219 16.652344 105.730469 16.652344 C 107.960938 16.664063 109.175781 15.402344 109.175781 13.21875 C 109.1875 11.289063 108.105469 10.097656 105.898438 10.097656 C 105.359375 10.097656 104.949219 10.148438 104.675781 10.207031 Z M 103.617188 9.4375 C 104.265625 9.34375 105.023438 9.269531 105.851563 9.269531 C 107.351563 9.269531 108.417969 9.605469 109.125 10.265625 C 109.859375 10.925781 110.277344 11.875 110.277344 13.183594 C 110.277344 14.503906 109.859375 15.582031 109.113281 16.328125 C 108.34375 17.082031 107.097656 17.492188 105.527344 17.492188 C 104.769531 17.492188 104.15625 17.464844 103.617188 17.394531 "/>
<path style=" stroke:none;fill-rule:nonzero;fill:rgb(13.699341%,12.199402%,12.5%);fill-opacity:1;" d="M 111.609375 9.332031 L 115.964844 9.332031 L 115.964844 10.207031 L 112.664063 10.207031 L 112.664063 12.894531 L 115.714844 12.894531 L 115.714844 13.757813 L 112.664063 13.757813 L 112.664063 17.417969 L 111.609375 17.417969 "/>
<path style=" stroke:none;fill-rule:nonzero;fill:rgb(13.699341%,12.199402%,12.5%);fill-opacity:1;" d="M 3.480469 28.4375 C 3.492188 27.78125 3.203125 26.722656 2.027344 26.722656 C 0.949219 26.722656 0.492188 27.707031 0.40625 28.4375 Z M 0.394531 29.195313 C 0.421875 30.625 1.320313 31.210938 2.375 31.210938 C 3.132813 31.210938 3.601563 31.078125 3.984375 30.921875 L 4.175781 31.667969 C 3.804688 31.835938 3.15625 32.039063 2.230469 32.039063 C 0.457031 32.039063 -0.625 30.851563 -0.625 29.113281 C -0.625 27.347656 0.421875 25.964844 2.113281 25.964844 C 4.007813 25.964844 4.5 27.632813 4.5 28.703125 C 4.5 28.917969 4.488281 29.085938 4.464844 29.207031 "/>
<path style=" stroke:none;fill-rule:nonzero;fill:rgb(13.699341%,12.199402%,12.5%);fill-opacity:1;" d="M 8.363281 23.613281 L 8.171875 26.496094 L 7.523438 26.496094 L 7.332031 23.613281 Z M 6.574219 23.613281 L 6.386719 26.496094 L 5.738281 26.496094 L 5.542969 23.613281 "/>
<path style=" stroke:none;fill-rule:nonzero;fill:rgb(13.699341%,12.199402%,12.5%);fill-opacity:1;" d="M 14.796875 31.257813 C 15.804688 31.257813 16.558594 30.3125 16.558594 28.992188 C 16.558594 28.007813 16.066406 26.769531 14.820313 26.769531 C 13.582031 26.769531 13.042969 27.921875 13.042969 29.027344 C 13.042969 30.296875 13.761719 31.257813 14.78125 31.257813 Z M 14.761719 32.050781 C 13.199219 32.050781 11.976563 30.898438 11.976563 29.0625 C 11.976563 27.121094 13.261719 25.980469 14.855469 25.980469 C 16.523438 25.980469 17.652344 27.191406 17.652344 28.953125 C 17.652344 31.117188 16.152344 32.050781 14.769531 32.050781 "/>
<path style=" stroke:none;fill-rule:nonzero;fill:rgb(13.699341%,12.199402%,12.5%);fill-opacity:1;" d="M 20.039063 29.554688 C 20.039063 29.699219 20.050781 29.855469 20.089844 29.988281 C 20.269531 30.71875 20.914063 31.222656 21.660156 31.222656 C 22.777344 31.222656 23.425781 30.3125 23.425781 28.980469 C 23.425781 27.816406 22.824219 26.820313 21.707031 26.820313 C 20.988281 26.820313 20.304688 27.324219 20.101563 28.117188 C 20.074219 28.257813 20.039063 28.414063 20.039063 28.546875 Z M 18.984375 28.007813 C 18.984375 27.261719 18.972656 26.664063 18.9375 26.113281 L 19.882813 26.113281 L 19.945313 27.105469 L 19.96875 27.105469 C 20.386719 26.386719 21.085938 25.980469 22.019531 25.980469 C 23.4375 25.980469 24.492188 27.167969 24.492188 28.929688 C 24.492188 31.019531 23.207031 32.050781 21.851563 32.050781 C 21.074219 32.050781 20.410156 31.714844 20.0625 31.140625 L 20.039063 31.140625 L 20.039063 34.292969 L 18.984375 34.292969 "/>
<path style=" stroke:none;fill-rule:nonzero;fill:rgb(13.699341%,12.199402%,12.5%);fill-opacity:1;" d="M 27.082031 24.71875 L 27.082031 26.113281 L 28.59375 26.113281 L 28.59375 26.914063 L 27.082031 26.914063 L 27.082031 30.046875 C 27.082031 30.765625 27.285156 31.175781 27.875 31.175781 C 28.164063 31.175781 28.332031 31.152344 28.488281 31.101563 L 28.535156 31.910156 C 28.332031 31.980469 28.007813 32.050781 27.597656 32.050781 C 27.105469 32.050781 26.710938 31.882813 26.460938 31.605469 C 26.171875 31.28125 26.050781 30.765625 26.050781 30.082031 L 26.050781 26.914063 L 25.152344 26.914063 L 25.152344 26.113281 L 26.050781 26.113281 L 26.050781 25.042969 "/>
<path style=" stroke:none;fill-rule:nonzero;fill:rgb(13.699341%,12.199402%,12.5%);fill-opacity:1;" d="M 29.785156 26.113281 L 30.839844 26.113281 L 30.839844 31.917969 L 29.785156 31.917969 Z M 30.289063 25.042969 C 29.890625 25.042969 29.628906 24.730469 29.628906 24.359375 C 29.628906 23.988281 29.90625 23.6875 30.3125 23.6875 C 30.71875 23.6875 30.984375 23.988281 30.984375 24.359375 C 30.984375 24.730469 30.71875 25.042969 30.300781 25.042969 "/>
<path style=" stroke:none;fill-rule:nonzero;fill:rgb(13.699341%,12.199402%,12.5%);fill-opacity:1;" d="M 34.992188 31.257813 C 36 31.257813 36.757813 30.3125 36.757813 28.992188 C 36.757813 28.007813 36.265625 26.769531 35.015625 26.769531 C 33.78125 26.769531 33.242188 27.921875 33.242188 29.027344 C 33.242188 30.296875 33.960938 31.257813 34.980469 31.257813 Z M 34.957031 32.050781 C 33.398438 32.050781 32.171875 30.898438 32.171875 29.0625 C 32.171875 27.121094 33.457031 25.980469 35.054688 25.980469 C 36.722656 25.980469 37.847656 27.191406 37.847656 28.953125 C 37.847656 31.117188 36.347656 32.050781 34.96875 32.050781 "/>
<path style=" stroke:none;fill-rule:nonzero;fill:rgb(13.699341%,12.199402%,12.5%);fill-opacity:1;" d="M 39.179688 27.683594 C 39.179688 27.070313 39.167969 26.589844 39.132813 26.113281 L 40.070313 26.113281 L 40.128906 27.058594 L 40.152344 27.058594 C 40.441406 26.519531 41.113281 25.980469 42.074219 25.980469 C 42.875 25.980469 44.125 26.457031 44.125 28.449219 L 44.125 31.917969 L 43.070313 31.917969 L 43.070313 28.570313 C 43.070313 27.632813 42.71875 26.84375 41.722656 26.84375 C 41.039063 26.84375 40.5 27.335938 40.308594 27.921875 C 40.261719 28.054688 40.234375 28.246094 40.234375 28.414063 L 40.234375 31.917969 L 39.179688 31.917969 "/>
<path style=" stroke:none;fill-rule:nonzero;fill:rgb(13.699341%,12.199402%,12.5%);fill-opacity:1;" d="M 49.65625 24.71875 L 49.65625 26.113281 L 51.167969 26.113281 L 51.167969 26.914063 L 49.65625 26.914063 L 49.65625 30.046875 C 49.65625 30.765625 49.859375 31.175781 50.449219 31.175781 C 50.734375 31.175781 50.90625 31.152344 51.058594 31.101563 L 51.109375 31.910156 C 50.90625 31.980469 50.582031 32.050781 50.171875 32.050781 C 49.679688 32.050781 49.285156 31.882813 49.03125 31.605469 C 48.742188 31.28125 48.625 30.765625 48.625 30.082031 L 48.625 26.914063 L 47.722656 26.914063 L 47.722656 26.113281 L 48.625 26.113281 L 48.625 25.042969 "/>
<path style=" stroke:none;fill-rule:nonzero;fill:rgb(13.699341%,12.199402%,12.5%);fill-opacity:1;" d="M 57.214844 30.335938 C 57.214844 30.933594 57.226563 31.460938 57.265625 31.917969 L 56.328125 31.917969 L 56.269531 30.96875 L 56.242188 30.96875 C 55.980469 31.4375 55.355469 32.050781 54.324219 32.050781 C 53.410156 32.050781 52.320313 31.535156 52.320313 29.507813 L 52.320313 26.113281 L 53.375 26.113281 L 53.375 29.316406 C 53.375 30.417969 53.722656 31.175781 54.671875 31.175781 C 55.378906 31.175781 55.871094 30.683594 56.0625 30.203125 C 56.121094 30.058594 56.160156 29.867188 56.160156 29.664063 L 56.160156 26.113281 L 57.214844 26.113281 "/>
<path style=" stroke:none;fill-rule:nonzero;fill:rgb(13.699341%,12.199402%,12.5%);fill-opacity:1;" d="M 58.980469 27.921875 C 58.980469 27.238281 58.96875 26.652344 58.933594 26.113281 L 59.855469 26.113281 L 59.90625 27.25 L 59.941406 27.25 C 60.203125 26.46875 60.851563 25.980469 61.558594 25.980469 C 61.667969 25.980469 61.753906 25.992188 61.847656 26.015625 L 61.847656 27 C 61.726563 26.988281 61.621094 26.976563 61.476563 26.976563 C 60.730469 26.976563 60.203125 27.539063 60.058594 28.320313 C 60.035156 28.476563 60.023438 28.644531 60.023438 28.824219 L 60.023438 31.917969 L 58.96875 31.917969 "/>
<path style=" stroke:none;fill-rule:nonzero;fill:rgb(13.699341%,12.199402%,12.5%);fill-opacity:1;" d="M 62.9375 27.683594 C 62.9375 27.070313 62.925781 26.589844 62.890625 26.113281 L 63.828125 26.113281 L 63.886719 27.058594 L 63.910156 27.058594 C 64.199219 26.519531 64.871094 25.980469 65.832031 25.980469 C 66.636719 25.980469 67.882813 26.457031 67.882813 28.449219 L 67.882813 31.917969 L 66.828125 31.917969 L 66.828125 28.570313 C 66.828125 27.632813 66.480469 26.84375 65.484375 26.84375 C 64.800781 26.84375 64.257813 27.335938 64.066406 27.921875 C 64.019531 28.054688 63.992188 28.246094 63.992188 28.414063 L 63.992188 31.917969 L 62.9375 31.917969 "/>
<path style=" stroke:none;fill-rule:nonzero;fill:rgb(13.699341%,12.199402%,12.5%);fill-opacity:1;" d="M 73.28125 28.4375 C 73.296875 27.78125 73.007813 26.722656 71.832031 26.722656 C 70.75 26.722656 70.296875 27.707031 70.210938 28.4375 Z M 70.199219 29.195313 C 70.222656 30.625 71.121094 31.210938 72.179688 31.210938 C 72.933594 31.210938 73.402344 31.078125 73.785156 30.921875 L 73.980469 31.667969 C 73.605469 31.835938 72.960938 32.039063 72.035156 32.039063 C 70.257813 32.039063 69.179688 30.851563 69.179688 29.113281 C 69.179688 27.347656 70.222656 25.964844 71.914063 25.964844 C 73.8125 25.964844 74.304688 27.632813 74.304688 28.703125 C 74.304688 28.917969 74.289063 29.085938 74.265625 29.207031 "/>
<path style=" stroke:none;fill-rule:nonzero;fill:rgb(13.699341%,12.199402%,12.5%);fill-opacity:1;" d="M 79.570313 28.476563 C 79.570313 28.332031 79.558594 28.164063 79.523438 28.019531 C 79.367188 27.359375 78.789063 26.808594 77.996094 26.808594 C 76.90625 26.808594 76.257813 27.765625 76.257813 29.039063 C 76.257813 30.226563 76.847656 31.199219 77.976563 31.199219 C 78.683594 31.199219 79.332031 30.71875 79.523438 29.9375 C 79.558594 29.792969 79.570313 29.652344 79.570313 29.484375 Z M 80.625 23.398438 L 80.625 30.417969 C 80.625 30.933594 80.640625 31.523438 80.675781 31.917969 L 79.726563 31.917969 L 79.679688 30.910156 L 79.65625 30.910156 C 79.332031 31.558594 78.636719 32.050781 77.6875 32.050781 C 76.28125 32.050781 75.191406 30.863281 75.191406 29.097656 C 75.179688 27.15625 76.390625 25.980469 77.792969 25.980469 C 78.695313 25.980469 79.292969 26.398438 79.546875 26.855469 L 79.570313 26.855469 L 79.570313 23.398438 "/>
<path style=" stroke:none;fill-rule:nonzero;fill:rgb(13.699341%,12.199402%,12.5%);fill-opacity:1;" d="M 87.324219 31.257813 C 88.332031 31.257813 89.085938 30.3125 89.085938 28.992188 C 89.085938 28.007813 88.59375 26.769531 87.347656 26.769531 C 86.113281 26.769531 85.574219 27.921875 85.574219 29.027344 C 85.574219 30.296875 86.289063 31.257813 87.3125 31.257813 Z M 87.285156 32.050781 C 85.726563 32.050781 84.503906 30.898438 84.503906 29.0625 C 84.503906 27.121094 85.785156 25.980469 87.382813 25.980469 C 89.050781 25.980469 90.179688 27.191406 90.179688 28.953125 C 90.179688 31.117188 88.679688 32.050781 87.300781 32.050781 "/>
<path style=" stroke:none;fill-rule:nonzero;fill:rgb(13.699341%,12.199402%,12.5%);fill-opacity:1;" d="M 91.511719 27.683594 C 91.511719 27.070313 91.5 26.589844 91.464844 26.113281 L 92.398438 26.113281 L 92.460938 27.058594 L 92.484375 27.058594 C 92.769531 26.519531 93.445313 25.980469 94.402344 25.980469 C 95.207031 25.980469 96.457031 26.457031 96.457031 28.449219 L 96.457031 31.917969 L 95.398438 31.917969 L 95.398438 28.570313 C 95.398438 27.632813 95.050781 26.84375 94.054688 26.84375 C 93.371094 26.84375 92.832031 27.335938 92.640625 27.921875 C 92.589844 28.054688 92.566406 28.246094 92.566406 28.414063 L 92.566406 31.917969 L 91.511719 31.917969 "/>
<path style=" stroke:none;fill-rule:nonzero;fill:rgb(13.699341%,12.199402%,12.5%);fill-opacity:1;" d="M 98.613281 32.050781 C 98.207031 32.050781 97.917969 31.726563 97.917969 31.292969 C 97.917969 30.863281 98.21875 30.539063 98.636719 30.539063 C 99.058594 30.539063 99.34375 30.851563 99.34375 31.292969 C 99.34375 31.726563 99.058594 32.050781 98.625 32.050781 "/>
<path style=" stroke:none;fill-rule:nonzero;fill:rgb(13.699341%,12.199402%,12.5%);fill-opacity:1;" d="M 105.933594 24.71875 L 103.472656 24.71875 L 103.472656 23.832031 L 109.460938 23.832031 L 109.460938 24.71875 L 106.988281 24.71875 L 106.988281 31.917969 L 105.933594 31.917969 "/>
<path style=" stroke:none;fill-rule:nonzero;fill:rgb(13.699341%,12.199402%,12.5%);fill-opacity:1;" d="M 110.242188 23.398438 L 111.296875 23.398438 L 111.296875 27.023438 L 111.324219 27.023438 C 111.492188 26.722656 111.753906 26.445313 112.078125 26.277344 C 112.390625 26.085938 112.761719 25.980469 113.15625 25.980469 C 113.9375 25.980469 115.1875 26.457031 115.1875 28.460938 L 115.1875 31.917969 L 114.128906 31.917969 L 114.128906 28.582031 C 114.128906 27.632813 113.78125 26.855469 112.785156 26.855469 C 112.101563 26.855469 111.574219 27.335938 111.371094 27.910156 C 111.3125 28.054688 111.296875 28.210938 111.296875 28.414063 L 111.296875 31.917969 L 110.242188 31.917969 "/>
<path style=" stroke:none;fill-rule:nonzero;fill:rgb(13.699341%,12.199402%,12.5%);fill-opacity:1;" d="M 116.902344 26.113281 L 117.957031 26.113281 L 117.957031 31.917969 L 116.902344 31.917969 Z M 117.40625 25.042969 C 117.011719 25.042969 116.746094 24.730469 116.746094 24.359375 C 116.746094 23.988281 117.023438 23.6875 117.429688 23.6875 C 117.839844 23.6875 118.101563 23.988281 118.101563 24.359375 C 118.101563 24.730469 117.839844 25.042969 117.417969 25.042969 "/>
<path style=" stroke:none;fill-rule:nonzero;fill:rgb(13.699341%,12.199402%,12.5%);fill-opacity:1;" d="M 119.566406 30.851563 C 119.890625 31.042969 120.441406 31.257813 120.96875 31.257813 C 121.726563 31.257813 122.085938 30.886719 122.085938 30.394531 C 122.085938 29.890625 121.785156 29.613281 121.019531 29.328125 C 119.960938 28.945313 119.46875 28.378906 119.46875 27.683594 C 119.46875 26.746094 120.238281 25.980469 121.472656 25.980469 C 122.0625 25.980469 122.578125 26.132813 122.890625 26.339844 L 122.636719 27.09375 C 122.410156 26.960938 121.992188 26.757813 121.449219 26.757813 C 120.824219 26.757813 120.492188 27.121094 120.492188 27.550781 C 120.492188 28.042969 120.824219 28.257813 121.582031 28.546875 C 122.578125 28.917969 123.105469 29.421875 123.105469 30.296875 C 123.105469 31.332031 122.300781 32.050781 120.945313 32.050781 C 120.308594 32.050781 119.722656 31.882813 119.316406 31.644531 "/>
<g clip-path="url(#clip21)" clip-rule="nonzero">
<path style=" stroke:none;fill-rule:nonzero;fill:rgb(13.699341%,12.199402%,12.5%);fill-opacity:1;" d="M 0.132813 42.9375 C 0.144531 42.277344 -0.144531 41.222656 -1.320313 41.222656 C -2.398438 41.222656 -2.855469 42.207031 -2.941406 42.9375 Z M -2.949219 43.695313 C -2.925781 45.121094 -2.027344 45.710938 -0.96875 45.710938 C -0.214844 45.710938 0.253906 45.578125 0.636719 45.421875 L 0.828125 46.164063 C 0.457031 46.332031 -0.191406 46.539063 -1.113281 46.539063 C -2.890625 46.539063 -3.96875 45.351563 -3.96875 43.613281 C -3.96875 41.84375 -2.925781 40.464844 -1.234375 40.464844 C 0.660156 40.464844 1.152344 42.132813 1.152344 43.203125 C 1.152344 43.417969 1.140625 43.585938 1.117188 43.707031 "/>
</g>
<g clip-path="url(#clip22)" clip-rule="nonzero">
<path style=" stroke:none;fill-rule:nonzero;fill:rgb(13.699341%,12.199402%,12.5%);fill-opacity:1;" d="M 5.027344 46.417969 L 6.085938 46.417969 L 6.085938 38.328125 L 5.027344 38.328125 Z M 5.027344 46.417969 "/>
</g>
<g clip-path="url(#clip23)" clip-rule="nonzero">
<path style=" stroke:none;fill-rule:nonzero;fill:rgb(13.699341%,12.199402%,12.5%);fill-opacity:1;" d="M 8.003906 46.417969 L 9.058594 46.417969 L 9.058594 37.898438 L 8.003906 37.898438 Z M 8.003906 46.417969 "/>
</g>
<g clip-path="url(#clip24)" clip-rule="nonzero">
<path style=" stroke:none;fill-rule:nonzero;fill:rgb(13.699341%,12.199402%,12.5%);fill-opacity:1;" d="M 10.808594 46.417969 L 11.867188 46.417969 L 11.867188 37.898438 L 10.808594 37.898438 Z M 10.808594 46.417969 "/>
</g>
<g clip-path="url(#clip25)" clip-rule="nonzero">
<path style=" stroke:none;fill-rule:nonzero;fill:rgb(13.699341%,12.199402%,12.5%);fill-opacity:1;" d="M 18.480469 44.832031 C 18.480469 45.433594 18.492188 45.960938 18.527344 46.417969 L 17.59375 46.417969 L 17.53125 45.46875 L 17.507813 45.46875 C 17.242188 45.9375 16.617188 46.550781 15.589844 46.550781 C 14.675781 46.550781 13.582031 46.035156 13.582031 44.003906 L 13.582031 40.613281 L 14.640625 40.613281 L 14.640625 43.8125 C 14.640625 44.917969 14.988281 45.671875 15.933594 45.671875 C 16.644531 45.671875 17.136719 45.183594 17.328125 44.703125 C 17.386719 44.558594 17.425781 44.367188 17.425781 44.160156 L 17.425781 40.613281 L 18.480469 40.613281 "/>
</g>
<g clip-path="url(#clip26)" clip-rule="nonzero">
<path style=" stroke:none;fill-rule:nonzero;fill:rgb(13.699341%,12.199402%,12.5%);fill-opacity:1;" d="M 20.085938 45.351563 C 20.410156 45.542969 20.960938 45.757813 21.492188 45.757813 C 22.246094 45.757813 22.605469 45.386719 22.605469 44.894531 C 22.605469 44.390625 22.304688 44.117188 21.539063 43.824219 C 20.480469 43.445313 19.992188 42.878906 19.992188 42.183594 C 19.992188 41.246094 20.757813 40.476563 21.992188 40.476563 C 22.582031 40.476563 23.097656 40.632813 23.410156 40.835938 L 23.15625 41.59375 C 22.929688 41.460938 22.511719 41.257813 21.96875 41.257813 C 21.347656 41.257813 21.011719 41.617188 21.011719 42.050781 C 21.011719 42.542969 21.347656 42.757813 22.101563 43.046875 C 23.097656 43.417969 23.625 43.921875 23.625 44.796875 C 23.625 45.828125 22.824219 46.550781 21.464844 46.550781 C 20.832031 46.550781 20.242188 46.382813 19.835938 46.140625 "/>
</g>
<g clip-path="url(#clip27)" clip-rule="nonzero">
<path style=" stroke:none;fill-rule:nonzero;fill:rgb(13.699341%,12.199402%,12.5%);fill-opacity:1;" d="M 26.253906 39.21875 L 26.253906 40.613281 L 27.765625 40.613281 L 27.765625 41.414063 L 26.253906 41.414063 L 26.253906 44.546875 C 26.253906 45.265625 26.457031 45.671875 27.046875 45.671875 C 27.335938 45.671875 27.503906 45.648438 27.65625 45.601563 L 27.707031 46.40625 C 27.503906 46.476563 27.179688 46.550781 26.769531 46.550781 C 26.277344 46.550781 25.882813 46.382813 25.628906 46.105469 C 25.34375 45.78125 25.222656 45.265625 25.222656 44.582031 L 25.222656 41.414063 L 24.324219 41.414063 L 24.324219 40.613281 L 25.222656 40.613281 L 25.222656 39.542969 "/>
</g>
<g clip-path="url(#clip28)" clip-rule="nonzero">
<path style=" stroke:none;fill-rule:nonzero;fill:rgb(13.699341%,12.199402%,12.5%);fill-opacity:1;" d="M 28.96875 42.421875 C 28.96875 41.738281 28.953125 41.148438 28.917969 40.613281 L 29.84375 40.613281 L 29.890625 41.75 L 29.925781 41.75 C 30.191406 40.96875 30.839844 40.476563 31.546875 40.476563 C 31.65625 40.476563 31.738281 40.488281 31.835938 40.511719 L 31.835938 41.496094 C 31.714844 41.484375 31.605469 41.472656 31.460938 41.472656 C 30.71875 41.472656 30.191406 42.039063 30.046875 42.816406 C 30.023438 42.972656 30.011719 43.140625 30.011719 43.320313 L 30.011719 46.417969 L 28.953125 46.417969 "/>
</g>
<g clip-path="url(#clip29)" clip-rule="nonzero">
<path style=" stroke:none;fill-rule:nonzero;fill:rgb(13.699341%,12.199402%,12.5%);fill-opacity:1;" d="M 35.867188 43.453125 C 34.714844 43.429688 33.40625 43.632813 33.40625 44.761719 C 33.40625 45.457031 33.863281 45.769531 34.390625 45.769531 C 35.160156 45.769531 35.652344 45.289063 35.820313 44.796875 C 35.855469 44.691406 35.867188 44.570313 35.867188 44.460938 Z M 36.902344 45.027344 C 36.902344 45.53125 36.921875 46.023438 36.984375 46.417969 L 36.035156 46.417969 L 35.941406 45.6875 L 35.90625 45.6875 C 35.589844 46.140625 34.957031 46.550781 34.128906 46.550781 C 32.953125 46.550781 32.351563 45.722656 32.351563 44.882813 C 32.351563 43.476563 33.601563 42.710938 35.84375 42.722656 L 35.84375 42.601563 C 35.84375 42.121094 35.710938 41.246094 34.523438 41.257813 C 33.972656 41.257813 33.40625 41.414063 33 41.691406 L 32.761719 40.980469 C 33.238281 40.683594 33.949219 40.476563 34.679688 40.476563 C 36.46875 40.476563 36.902344 41.691406 36.902344 42.855469 "/>
</g>
<g clip-path="url(#clip30)" clip-rule="nonzero">
<path style=" stroke:none;fill-rule:nonzero;fill:rgb(13.699341%,12.199402%,12.5%);fill-opacity:1;" d="M 39.816406 39.21875 L 39.816406 40.613281 L 41.328125 40.613281 L 41.328125 41.414063 L 39.816406 41.414063 L 39.816406 44.546875 C 39.816406 45.265625 40.019531 45.671875 40.605469 45.671875 C 40.894531 45.671875 41.0625 45.648438 41.21875 45.601563 L 41.265625 46.40625 C 41.0625 46.476563 40.738281 46.550781 40.332031 46.550781 C 39.839844 46.550781 39.445313 46.382813 39.191406 46.105469 C 38.902344 45.78125 38.78125 45.265625 38.78125 44.582031 L 38.78125 41.414063 L 37.882813 41.414063 L 37.882813 40.613281 L 38.78125 40.613281 L 38.78125 39.542969 "/>
</g>
<g clip-path="url(#clip31)" clip-rule="nonzero">
<path style=" stroke:none;fill-rule:nonzero;fill:rgb(13.699341%,12.199402%,12.5%);fill-opacity:1;" d="M 44.84375 45.757813 C 45.851563 45.757813 46.605469 44.808594 46.605469 43.488281 C 46.605469 42.503906 46.113281 41.269531 44.867188 41.269531 C 43.632813 41.269531 43.089844 42.421875 43.089844 43.527344 C 43.089844 44.796875 43.8125 45.757813 44.832031 45.757813 Z M 44.808594 46.550781 C 43.246094 46.550781 42.023438 45.398438 42.023438 43.5625 C 42.023438 41.617188 43.308594 40.476563 44.902344 40.476563 C 46.570313 40.476563 47.699219 41.691406 47.699219 43.453125 C 47.699219 45.613281 46.199219 46.550781 44.820313 46.550781 "/>
</g>
<g clip-path="url(#clip32)" clip-rule="nonzero">
<path style=" stroke:none;fill-rule:nonzero;fill:rgb(13.699341%,12.199402%,12.5%);fill-opacity:1;" d="M 49.042969 42.421875 C 49.042969 41.738281 49.03125 41.148438 48.992188 40.613281 L 49.917969 40.613281 L 49.96875 41.75 L 50.003906 41.75 C 50.265625 40.96875 50.914063 40.476563 51.621094 40.476563 C 51.730469 40.476563 51.816406 40.488281 51.910156 40.511719 L 51.910156 41.496094 C 51.789063 41.484375 51.683594 41.472656 51.539063 41.472656 C 50.792969 41.472656 50.265625 42.039063 50.121094 42.816406 C 50.097656 42.972656 50.085938 43.140625 50.085938 43.320313 L 50.085938 46.417969 L 49.03125 46.417969 "/>
</g>
<g clip-path="url(#clip33)" clip-rule="nonzero">
<path style=" stroke:none;fill-rule:nonzero;fill:rgb(13.699341%,12.199402%,12.5%);fill-opacity:1;" d="M 55.535156 46.417969 L 55.535156 38.328125 L 56.6875 38.328125 L 59.265625 42.421875 C 59.855469 43.371094 60.335938 44.210938 60.707031 45.050781 L 60.742188 45.039063 C 60.648438 43.957031 60.621094 42.972656 60.621094 41.726563 L 60.621094 38.328125 L 61.605469 38.328125 L 61.605469 46.417969 L 60.550781 46.417969 L 57.984375 42.3125 C 57.417969 41.414063 56.878906 40.488281 56.484375 39.613281 L 56.449219 39.625 C 56.507813 40.644531 56.519531 41.617188 56.519531 42.960938 L 56.519531 46.417969 "/>
</g>
<g clip-path="url(#clip34)" clip-rule="nonzero">
<path style=" stroke:none;fill-rule:nonzero;fill:rgb(13.699341%,12.199402%,12.5%);fill-opacity:1;" d="M 66.429688 43.453125 C 65.28125 43.429688 63.96875 43.632813 63.96875 44.761719 C 63.96875 45.457031 64.425781 45.769531 64.953125 45.769531 C 65.722656 45.769531 66.214844 45.289063 66.382813 44.796875 C 66.417969 44.691406 66.429688 44.570313 66.429688 44.460938 Z M 67.460938 45.027344 C 67.460938 45.53125 67.488281 46.023438 67.546875 46.417969 L 66.597656 46.417969 L 66.503906 45.6875 L 66.464844 45.6875 C 66.15625 46.140625 65.519531 46.550781 64.691406 46.550781 C 63.515625 46.550781 62.914063 45.722656 62.914063 44.882813 C 62.914063 43.476563 64.160156 42.710938 66.40625 42.722656 L 66.40625 42.601563 C 66.40625 42.121094 66.277344 41.246094 65.085938 41.257813 C 64.535156 41.257813 63.96875 41.414063 63.5625 41.691406 L 63.324219 40.980469 C 63.800781 40.683594 64.511719 40.476563 65.242188 40.476563 C 67.03125 40.476563 67.460938 41.691406 67.460938 42.855469 "/>
</g>
<g clip-path="url(#clip35)" clip-rule="nonzero">
<path style=" stroke:none;fill-rule:nonzero;fill:rgb(13.699341%,12.199402%,12.5%);fill-opacity:1;" d="M 70.378906 39.21875 L 70.378906 40.613281 L 71.890625 40.613281 L 71.890625 41.414063 L 70.378906 41.414063 L 70.378906 44.546875 C 70.378906 45.265625 70.582031 45.671875 71.171875 45.671875 C 71.457031 45.671875 71.628906 45.648438 71.78125 45.601563 L 71.832031 46.40625 C 71.628906 46.476563 71.304688 46.550781 70.894531 46.550781 C 70.402344 46.550781 70.007813 46.382813 69.753906 46.105469 C 69.46875 45.78125 69.347656 45.265625 69.347656 44.582031 L 69.347656 41.414063 L 68.449219 41.414063 L 68.449219 40.613281 L 69.347656 40.613281 L 69.347656 39.542969 "/>
</g>
<g clip-path="url(#clip36)" clip-rule="nonzero">
<path style=" stroke:none;fill-rule:nonzero;fill:rgb(13.699341%,12.199402%,12.5%);fill-opacity:1;" d="M 73.078125 40.613281 L 74.132813 40.613281 L 74.132813 46.417969 L 73.078125 46.417969 Z M 73.582031 39.542969 C 73.1875 39.542969 72.921875 39.230469 72.921875 38.859375 C 72.921875 38.484375 73.199219 38.1875 73.605469 38.1875 C 74.015625 38.1875 74.28125 38.484375 74.28125 38.859375 C 74.28125 39.230469 74.015625 39.542969 73.59375 39.542969 "/>
</g>
<g clip-path="url(#clip37)" clip-rule="nonzero">
<path style=" stroke:none;fill-rule:nonzero;fill:rgb(13.699341%,12.199402%,12.5%);fill-opacity:1;" d="M 76.292969 40.613281 L 77.433594 43.863281 C 77.625 44.402344 77.78125 44.882813 77.902344 45.363281 L 77.9375 45.363281 C 78.070313 44.882813 78.238281 44.402344 78.429688 43.863281 L 79.558594 40.613281 L 80.660156 40.613281 L 78.382813 46.417969 L 77.375 46.417969 L 75.164063 40.613281 "/>
</g>
<g clip-path="url(#clip38)" clip-rule="nonzero">
<path style=" stroke:none;fill-rule:nonzero;fill:rgb(13.699341%,12.199402%,12.5%);fill-opacity:1;" d="M 85.210938 42.9375 C 85.222656 42.277344 84.933594 41.222656 83.757813 41.222656 C 82.679688 41.222656 82.222656 42.207031 82.140625 42.9375 Z M 82.125 43.695313 C 82.152344 45.121094 83.050781 45.710938 84.105469 45.710938 C 84.863281 45.710938 85.332031 45.578125 85.714844 45.421875 L 85.90625 46.164063 C 85.535156 46.332031 84.886719 46.539063 83.964844 46.539063 C 82.1875 46.539063 81.105469 45.351563 81.105469 43.613281 C 81.105469 41.84375 82.152344 40.464844 83.84375 40.464844 C 85.738281 40.464844 86.230469 42.132813 86.230469 43.203125 C 86.230469 43.417969 86.21875 43.585938 86.195313 43.707031 "/>
</g>
<g clip-path="url(#clip39)" clip-rule="nonzero">
<path style=" stroke:none;fill-rule:nonzero;fill:rgb(13.699341%,12.199402%,12.5%);fill-opacity:1;" d="M 90.105469 38.328125 L 94.460938 38.328125 L 94.460938 39.207031 L 91.160156 39.207031 L 91.160156 41.894531 L 94.210938 41.894531 L 94.210938 42.757813 L 91.160156 42.757813 L 91.160156 46.417969 L 90.105469 46.417969 "/>
</g>
<g clip-path="url(#clip40)" clip-rule="nonzero">
<path style=" stroke:none;fill-rule:nonzero;fill:rgb(13.699341%,12.199402%,12.5%);fill-opacity:1;" d="M 97.964844 45.757813 C 98.972656 45.757813 99.730469 44.808594 99.730469 43.488281 C 99.730469 42.503906 99.238281 41.269531 97.988281 41.269531 C 96.753906 41.269531 96.214844 42.421875 96.214844 43.527344 C 96.214844 44.796875 96.933594 45.757813 97.953125 45.757813 Z M 97.929688 46.550781 C 96.367188 46.550781 95.144531 45.398438 95.144531 43.5625 C 95.144531 41.617188 96.429688 40.476563 98.027344 40.476563 C 99.695313 40.476563 100.820313 41.691406 100.820313 43.453125 C 100.820313 45.613281 99.324219 46.550781 97.941406 46.550781 "/>
</g>
<g clip-path="url(#clip41)" clip-rule="nonzero">
<path style=" stroke:none;fill-rule:nonzero;fill:rgb(13.699341%,12.199402%,12.5%);fill-opacity:1;" d="M 102.164063 42.421875 C 102.164063 41.738281 102.152344 41.148438 102.117188 40.613281 L 103.039063 40.613281 L 103.089844 41.75 L 103.125 41.75 C 103.390625 40.96875 104.035156 40.476563 104.746094 40.476563 C 104.855469 40.476563 104.9375 40.488281 105.03125 40.511719 L 105.03125 41.496094 C 104.914063 41.484375 104.804688 41.472656 104.660156 41.472656 C 103.917969 41.472656 103.390625 42.039063 103.246094 42.816406 C 103.222656 42.972656 103.210938 43.140625 103.210938 43.320313 L 103.210938 46.417969 L 102.152344 46.417969 "/>
</g>
<g clip-path="url(#clip42)" clip-rule="nonzero">
<path style=" stroke:none;fill-rule:nonzero;fill:rgb(13.699341%,12.199402%,12.5%);fill-opacity:1;" d="M 106.125 42.183594 C 106.125 41.570313 106.101563 41.089844 106.078125 40.613281 L 107.003906 40.613281 L 107.050781 41.546875 L 107.085938 41.546875 C 107.410156 40.992188 107.949219 40.476563 108.921875 40.476563 C 109.703125 40.476563 110.300781 40.957031 110.554688 41.640625 L 110.578125 41.640625 C 110.757813 41.304688 110.996094 41.066406 111.238281 40.886719 C 111.585938 40.621094 111.957031 40.476563 112.511719 40.476563 C 113.289063 40.476563 114.429688 40.980469 114.429688 42.996094 L 114.429688 46.417969 L 113.398438 46.417969 L 113.398438 43.128906 C 113.398438 42 112.980469 41.339844 112.136719 41.339844 C 111.527344 41.339844 111.070313 41.785156 110.878906 42.289063 C 110.828125 42.445313 110.792969 42.636719 110.792969 42.816406 L 110.792969 46.417969 L 109.761719 46.417969 L 109.761719 42.9375 C 109.761719 42 109.355469 41.339844 108.550781 41.339844 C 107.902344 41.339844 107.410156 41.871094 107.242188 42.398438 C 107.183594 42.554688 107.15625 42.734375 107.15625 42.914063 L 107.15625 46.417969 L 106.125 46.417969 "/>
</g>
<g clip-path="url(#clip43)" clip-rule="nonzero">
<path style=" stroke:none;fill-rule:nonzero;fill:rgb(13.699341%,12.199402%,12.5%);fill-opacity:1;" d="M 119.195313 43.453125 C 118.042969 43.429688 116.734375 43.632813 116.734375 44.761719 C 116.734375 45.457031 117.191406 45.769531 117.71875 45.769531 C 118.484375 45.769531 118.976563 45.289063 119.144531 44.796875 C 119.183594 44.691406 119.195313 44.570313 119.195313 44.460938 Z M 120.226563 45.027344 C 120.226563 45.53125 120.25 46.023438 120.308594 46.417969 L 119.363281 46.417969 L 119.265625 45.6875 L 119.230469 45.6875 C 118.917969 46.140625 118.28125 46.550781 117.453125 46.550781 C 116.277344 46.550781 115.679688 45.722656 115.679688 44.882813 C 115.679688 43.476563 116.925781 42.710938 119.171875 42.722656 L 119.171875 42.601563 C 119.171875 42.121094 119.039063 41.246094 117.851563 41.257813 C 117.296875 41.257813 116.734375 41.414063 116.324219 41.691406 L 116.085938 40.980469 C 116.566406 40.683594 117.273438 40.476563 118.007813 40.476563 C 119.792969 40.476563 120.226563 41.691406 120.226563 42.855469 "/>
</g>
<g clip-path="url(#clip44)" clip-rule="nonzero">
<path style=" stroke:none;fill-rule:nonzero;fill:rgb(13.699341%,12.199402%,12.5%);fill-opacity:1;" d="M 123.144531 39.21875 L 123.144531 40.613281 L 124.65625 40.613281 L 124.65625 41.414063 L 123.144531 41.414063 L 123.144531 44.546875 C 123.144531 45.265625 123.34375 45.671875 123.933594 45.671875 C 124.222656 45.671875 124.390625 45.648438 124.546875 45.601563 L 124.59375 46.40625 C 124.390625 46.476563 124.066406 46.550781 123.65625 46.550781 C 123.164063 46.550781 122.769531 46.382813 122.519531 46.105469 C 122.230469 45.78125 122.109375 45.265625 122.109375 44.582031 L 122.109375 41.414063 L 121.210938 41.414063 L 121.210938 40.613281 L 122.109375 40.613281 L 122.109375 39.542969 "/>
</g>
</g>
</svg>
