<?xml version="1.0" encoding="UTF-8"?>
<svg xmlns="http://www.w3.org/2000/svg" xmlns:xlink="http://www.w3.org/1999/xlink" width="430pt" height="75pt" viewBox="0 0 430 75" version="1.1">
<g id="surface1">
<path style=" stroke:none;fill-rule:evenodd;fill:rgb(92.89856%,10.998535%,14.099121%);fill-opacity:1;" d="M 257.871094 17.46875 C 259.414063 17.46875 260.675781 18.730469 260.675781 20.277344 L 260.675781 43.535156 C 260.675781 45.078125 259.414063 46.339844 257.871094 46.339844 C 256.328125 46.339844 255.066406 45.078125 255.066406 43.535156 L 255.066406 20.277344 C 255.066406 18.730469 256.328125 17.46875 257.871094 17.46875 "/>
<path style=" stroke:none;fill-rule:nonzero;fill:rgb(92.89856%,10.998535%,14.099121%);fill-opacity:1;" d="M 294.796875 18.398438 C 296.335938 18.65625 297.378906 19.574219 297.121094 21.113281 C 296.863281 22.65625 295.40625 23.699219 293.863281 23.441406 C 288.199219 22.476563 283.175781 22.046875 279.175781 22.859375 C 275.605469 23.589844 272.855469 25.109375 271.230469 28.054688 C 270.382813 29.589844 269.800781 30.707031 269.703125 31.960938 C 269.621094 33.042969 269.378906 34.550781 270.230469 35.742188 L 270.773438 35.34375 C 271.296875 36.078125 271.445313 37.171875 272.265625 37.808594 C 273.15625 38.496094 274.179688 39.113281 275.300781 39.652344 C 281.429688 42.582031 290.652344 43.410156 297.683594 40.769531 C 299.144531 40.21875 300.773438 40.957031 301.324219 42.417969 C 301.875 43.882813 301.40625 44.972656 299.945313 45.523438 C 291.511719 48.691406 280.765625 47.859375 273.40625 44.339844 C 271.90625 43.621094 270.539063 42.796875 269.351563 41.875 C 268.097656 40.902344 267.019531 39.816406 266.167969 38.621094 L 266.164063 38.617188 C 264.460938 36.226563 263.875 33.910156 264.058594 31.542969 C 264.226563 29.34375 265.0625 27.246094 266.269531 25.0625 C 269.191406 20.769531 272.988281 19.195313 278.183594 18.132813 C 282.949219 17.160156 288.511719 17.328125 294.796875 18.398438 "/>
<path style=" stroke:none;fill-rule:evenodd;fill:rgb(92.89856%,10.998535%,14.099121%);fill-opacity:1;" d="M 284.097656 30.226563 L 266.753906 30.226563 L 266.753906 34.371094 L 284.097656 34.371094 C 285.265625 34.371094 286.222656 33.4375 286.222656 32.296875 C 286.222656 31.15625 285.265625 30.226563 284.097656 30.226563 "/>
<path style=" stroke:none;fill-rule:evenodd;fill:rgb(92.89856%,10.998535%,14.099121%);fill-opacity:1;" d="M 310.421875 25.976563 L 310.421875 43.535156 C 310.421875 45.078125 309.160156 46.339844 307.617188 46.339844 C 306.074219 46.339844 305.003906 45.078125 305.003906 43.535156 L 305.003906 27.730469 C 304.234375 21.058594 310.933594 13.449219 318.5625 20.570313 C 318.65625 20.65625 318.742188 20.753906 318.820313 20.847656 L 318.828125 20.847656 C 318.882813 20.914063 318.929688 20.980469 318.976563 21.046875 C 323.117188 26.476563 326.097656 32.363281 329.886719 38.019531 L 329.890625 38.027344 L 329.90625 38.054688 L 329.90625 38.050781 L 329.910156 38.058594 L 329.945313 38.121094 C 330.179688 38.507813 330.375 38.863281 330.585938 39.242188 C 332.824219 42.558594 336.019531 42.503906 336.121094 38.382813 C 336.199219 34.773438 336.195313 24.847656 335.886719 20.660156 C 335.773438 19.121094 337.148438 17.855469 338.691406 17.855469 C 340.234375 17.855469 341.113281 19.117188 341.113281 20.660156 L 341.113281 35.390625 C 341.398438 39.980469 340.039063 43.789063 338.925781 44.886719 C 337.390625 46.601563 335.40625 47.09375 333.277344 47.042969 C 332.894531 47.035156 332.519531 46.996094 332.167969 46.921875 C 327.878906 46.019531 319.4375 31.027344 317.96875 28.902344 C 317.386719 28.058594 316.824219 27.261719 316.300781 26.539063 C 315.855469 25.921875 315.363281 25.261719 314.828125 24.5625 C 312.355469 22.398438 310.425781 24.148438 310.421875 25.976563 Z M 329.945313 38.121094 C 330.171875 38.527344 330.285156 38.960938 330.300781 39.398438 L 329.945313 38.121094 "/>
<path style=" stroke:none;fill-rule:nonzero;fill:rgb(92.89856%,10.998535%,14.099121%);fill-opacity:1;" d="M 213.558594 19.339844 C 212.945313 17.90625 211.285156 17.234375 209.847656 17.847656 C 208.410156 18.457031 207.742188 20.117188 208.351563 21.554688 C 211.199219 28.199219 215.515625 35.015625 220.214844 40.398438 C 223.324219 43.957031 226.214844 46.589844 229.21875 46.949219 C 232.304688 47.316406 234.945313 45.445313 238.679688 42.121094 C 242.066406 39.101563 244.164063 35.777344 246.414063 32 C 248.613281 28.316406 250.347656 24.660156 251.648438 21.753906 C 252.285156 20.328125 251.644531 18.65625 250.222656 18.023438 C 248.796875 17.386719 247.125 18.027344 246.488281 19.449219 C 245.253906 22.207031 243.496094 25.675781 241.453125 29.101563 C 239.785156 31.902344 233.542969 41.796875 229.5625 41.324219 C 224.632813 40.738281 216.164063 25.425781 213.558594 19.339844 "/>
<path style=" stroke:none;fill-rule:evenodd;fill:rgb(92.89856%,10.998535%,14.099121%);fill-opacity:1;" d="M 202.808594 17.46875 C 204.351563 17.46875 205.613281 18.730469 205.613281 20.277344 L 205.613281 43.535156 C 205.613281 45.078125 204.351563 46.339844 202.808594 46.339844 C 201.265625 46.339844 200.003906 45.078125 200.003906 43.535156 L 200.003906 20.277344 C 200.003906 18.730469 201.265625 17.46875 202.808594 17.46875 "/>
<path style=" stroke:none;fill-rule:nonzero;fill:rgb(92.89856%,10.998535%,14.099121%);fill-opacity:1;" d="M 83.679688 24.167969 C 82.175781 24.59375 80.609375 23.90625 80.179688 22.402344 C 79.753906 20.898438 80.625 19.332031 82.128906 18.902344 C 95.128906 16.433594 102.96875 18.277344 109.359375 21.316406 C 111.980469 22.992188 114.523438 24.917969 115.78125 27.160156 C 117.101563 29.519531 117.660156 31.703125 117.425781 34.199219 C 117.066406 38.023438 114.863281 41.601563 110.695313 44.027344 C 108.652344 45.214844 106.476563 45.976563 104.238281 46.476563 C 102.082031 46.957031 99.929688 47.1875 97.808594 47.320313 C 95.648438 47.457031 93.816406 47.507813 91.988281 47.277344 C 90.058594 47.035156 88.1875 46.5 86.050781 45.46875 C 85.21875 45.066406 84.21875 44.308594 84.054688 43.464844 L 83.972656 43.6875 C 83.972656 38.421875 83.972656 32.9375 83.972656 27.675781 C 84.929688 24.90625 88.816406 25.730469 88.84375 27.675781 L 89.210938 40.722656 C 88.605469 43.382813 95.875 42.445313 97.457031 42.347656 C 99.359375 42.226563 101.25 42.03125 103.019531 41.636719 C 104.710938 41.257813 106.34375 40.6875 107.863281 39.804688 C 110.320313 38.375 111.605469 35.71875 111.800781 33.667969 C 111.925781 32.328125 111.601563 30.914063 110.839844 29.558594 C 110.015625 28.085938 108.699219 26.703125 106.914063 25.558594 C 102.015625 22.792969 94.921875 21.175781 83.679688 24.167969 "/>
<path style=" stroke:none;fill-rule:nonzero;fill:rgb(92.89856%,10.998535%,14.099121%);fill-opacity:1;" d="M 158.746094 19.339844 C 158.136719 17.90625 156.476563 17.234375 155.039063 17.847656 C 153.601563 18.457031 152.933594 20.117188 153.542969 21.554688 C 156.390625 28.199219 160.707031 35.015625 165.40625 40.398438 C 168.515625 43.957031 171.402344 46.589844 174.410156 46.949219 C 177.496094 47.316406 180.136719 45.445313 183.867188 42.121094 C 187.257813 39.101563 189.355469 35.777344 191.605469 32 C 193.804688 28.316406 195.539063 24.660156 196.839844 21.753906 C 197.476563 20.328125 196.835938 18.65625 195.410156 18.023438 C 193.988281 17.386719 192.316406 18.027344 191.679688 19.449219 C 190.445313 22.207031 188.6875 25.675781 186.644531 29.101563 C 184.976563 31.902344 178.734375 41.796875 174.753906 41.324219 C 169.824219 40.738281 161.355469 25.425781 158.746094 19.339844 "/>
<path style=" stroke:none;fill-rule:nonzero;fill:rgb(92.89856%,10.998535%,14.099121%);fill-opacity:1;" d="M 154.835938 45.273438 C 155.445313 46.710938 157.109375 47.378906 158.546875 46.769531 C 159.980469 46.15625 160.652344 44.496094 160.039063 43.058594 C 157.191406 36.414063 152.875 29.597656 148.175781 24.21875 C 145.066406 20.65625 142.179688 18.023438 139.175781 17.664063 C 136.089844 17.296875 133.449219 19.167969 129.714844 22.496094 C 126.324219 25.511719 124.230469 28.835938 121.976563 32.613281 C 119.777344 36.296875 118.042969 39.957031 116.742188 42.859375 C 116.105469 44.285156 116.746094 45.957031 118.171875 46.59375 C 119.597656 47.230469 121.269531 46.589844 121.902344 45.164063 C 123.140625 42.40625 124.894531 38.941406 126.9375 35.515625 C 128.609375 32.714844 134.851563 22.816406 138.832031 23.289063 C 143.761719 23.878906 152.226563 39.1875 154.835938 45.273438 "/>
<path style=" stroke:none;fill-rule:nonzero;fill:rgb(92.89856%,10.998535%,14.099121%);fill-opacity:1;" d="M 348.707031 24.167969 C 347.203125 24.59375 345.636719 23.90625 345.207031 22.402344 C 344.78125 20.898438 345.652344 19.332031 347.15625 18.902344 C 360.15625 16.433594 367.996094 18.277344 374.386719 21.316406 C 377.007813 22.992188 379.550781 24.917969 380.808594 27.160156 C 382.128906 29.519531 382.6875 31.703125 382.453125 34.199219 C 382.09375 38.023438 379.890625 41.601563 375.722656 44.027344 C 373.679688 45.214844 371.503906 45.976563 369.265625 46.476563 C 367.109375 46.957031 364.957031 47.1875 362.835938 47.320313 C 360.671875 47.457031 358.84375 47.507813 357.015625 47.277344 C 355.085938 47.035156 353.214844 46.5 351.078125 45.46875 C 350.242188 45.066406 349.246094 44.308594 349.082031 43.464844 L 349 43.6875 C 349 38.421875 349 32.9375 349 27.675781 C 349.957031 24.90625 353.84375 25.730469 353.871094 27.675781 L 354.238281 40.722656 C 353.632813 43.382813 360.902344 42.445313 362.484375 42.347656 C 364.386719 42.226563 366.277344 42.03125 368.046875 41.636719 C 369.734375 41.257813 371.371094 40.6875 372.890625 39.804688 C 375.347656 38.375 376.632813 35.71875 376.828125 33.667969 C 376.953125 32.328125 376.628906 30.914063 375.867188 29.558594 C 375.042969 28.085938 373.726563 26.703125 371.941406 25.558594 C 367.042969 22.792969 359.949219 21.175781 348.707031 24.167969 "/>
<path style=" stroke:none;fill-rule:nonzero;fill:rgb(92.89856%,10.998535%,14.099121%);fill-opacity:1;" d="M 386.890625 45.273438 C 386.277344 46.710938 384.617188 47.378906 383.179688 46.769531 C 381.742188 46.15625 381.074219 44.496094 381.683594 43.058594 C 384.53125 36.414063 388.847656 29.597656 393.546875 24.21875 C 396.65625 20.65625 399.546875 18.023438 402.550781 17.664063 C 405.636719 17.296875 408.277344 19.167969 412.011719 22.496094 C 415.398438 25.511719 417.496094 28.835938 419.746094 32.613281 C 421.945313 36.296875 423.679688 39.957031 424.980469 42.859375 C 425.617188 44.285156 424.976563 45.957031 423.554688 46.59375 C 422.128906 47.230469 420.457031 46.589844 419.820313 45.164063 C 418.585938 42.40625 416.828125 38.941406 414.785156 35.515625 C 413.117188 32.714844 406.875 22.816406 402.894531 23.289063 C 397.964844 23.878906 389.496094 39.1875 386.890625 45.273438 "/>
<path style=" stroke:none;fill-rule:nonzero;fill:rgb(92.89856%,10.998535%,14.099121%);fill-opacity:1;" d="M 295.535156 70.359375 L 296.285156 72.855469 L 298.652344 72.855469 L 295.621094 63.128906 L 292.75 63.128906 L 289.777344 72.855469 L 292.058594 72.855469 L 292.734375 70.359375 Z M 293.054688 68.714844 L 293.644531 66.648438 C 293.789063 66.085938 293.949219 65.351563 294.078125 64.773438 L 294.121094 64.773438 C 294.265625 65.335938 294.4375 66.074219 294.597656 66.648438 L 295.203125 68.714844 L 293.054688 68.714844 "/>
<path style=" stroke:none;fill-rule:nonzero;fill:rgb(92.89856%,10.998535%,14.099121%);fill-opacity:1;" d="M 308.539063 72.828125 C 307.773438 72.667969 306.9375 72.496094 306.203125 72.277344 L 306.203125 72.222656 C 307.472656 71.644531 308.496094 70.085938 308.496094 67.875 C 308.496094 65.222656 306.867188 62.96875 303.90625 62.96875 C 300.992188 62.96875 299.144531 65.148438 299.144531 68.078125 C 299.144531 71.253906 301.191406 72.875 303.402344 73.019531 C 303.617188 73.03125 303.847656 73.074219 304.066406 73.160156 C 305.378906 73.695313 306.535156 74.128906 307.917969 74.53125 Z M 303.820313 71.269531 C 302.347656 71.269531 301.46875 69.867188 301.46875 68.007813 C 301.46875 66.171875 302.335938 64.714844 303.835938 64.714844 C 305.335938 64.714844 306.171875 66.1875 306.171875 67.964844 C 306.171875 69.867188 305.320313 71.269531 303.835938 71.269531 L 303.820313 71.269531 "/>
<path style=" stroke:none;fill-rule:nonzero;fill:rgb(92.89856%,10.998535%,14.099121%);fill-opacity:1;" d="M 309.941406 63.128906 L 309.941406 68.554688 C 309.941406 71.644531 311.367188 73.019531 313.824219 73.019531 C 316.363281 73.019531 317.878906 71.585938 317.878906 68.582031 L 317.878906 63.128906 L 315.683594 63.128906 L 315.683594 68.714844 C 315.683594 70.445313 315.050781 71.253906 313.894531 71.253906 C 312.78125 71.253906 312.132813 70.402344 312.132813 68.714844 L 312.132813 63.128906 L 309.941406 63.128906 "/>
<path style=" stroke:none;fill-rule:nonzero;fill:rgb(92.89856%,10.998535%,14.099121%);fill-opacity:1;" d="M 319.796875 63.128906 L 319.796875 72.855469 L 321.992188 72.855469 L 321.992188 63.128906 Z M 321.109375 60.789063 L 319.855469 62.609375 L 321.574219 62.609375 L 323.390625 60.789063 L 321.109375 60.789063 "/>
<path style=" stroke:none;fill-rule:nonzero;fill:rgb(92.89856%,10.998535%,14.099121%);fill-opacity:1;" d="M 324.429688 74.445313 C 325.125 73.320313 325.773438 71.800781 326.25 70.332031 L 324.011719 70.476563 C 323.8125 71.789063 323.421875 73.292969 322.960938 74.578125 L 324.429688 74.445313 "/>
<path style=" stroke:none;fill-rule:nonzero;fill:rgb(92.89856%,10.998535%,14.099121%);fill-opacity:1;" d="M 329.730469 72.855469 L 335.789063 72.855469 L 335.789063 71.007813 L 331.921875 71.007813 L 331.921875 63.128906 L 329.730469 63.128906 L 329.730469 72.855469 "/>
<path style=" stroke:none;fill-rule:nonzero;fill:rgb(92.89856%,10.998535%,14.099121%);fill-opacity:1;" d="M 340.683594 73.019531 C 343.527344 73.019531 345.445313 71.09375 345.445313 67.890625 C 345.445313 65.207031 343.816406 62.96875 340.828125 62.96875 C 337.96875 62.96875 336.09375 65.148438 336.09375 68.0625 C 336.09375 70.835938 337.796875 73.019531 340.667969 73.019531 Z M 340.753906 71.269531 C 339.28125 71.269531 338.402344 69.839844 338.402344 68.007813 C 338.402344 66.1875 339.253906 64.714844 340.769531 64.714844 C 342.285156 64.714844 343.109375 66.21875 343.109375 67.964844 C 343.109375 69.867188 342.257813 71.269531 340.769531 71.269531 L 340.753906 71.269531 "/>
<path style=" stroke:none;fill-rule:nonzero;fill:rgb(92.89856%,10.998535%,14.099121%);fill-opacity:1;" d="M 351.132813 72.855469 L 353.328125 72.855469 L 353.328125 64.976563 L 355.980469 64.976563 L 355.980469 63.128906 L 348.507813 63.128906 L 348.507813 64.976563 L 351.132813 64.976563 L 351.132813 72.855469 "/>
<path style=" stroke:none;fill-rule:nonzero;fill:rgb(92.89856%,10.998535%,14.099121%);fill-opacity:1;" d="M 357.164063 63.128906 L 357.164063 72.855469 L 359.359375 72.855469 L 359.359375 63.128906 L 357.164063 63.128906 "/>
<path style=" stroke:none;fill-rule:nonzero;fill:rgb(92.89856%,10.998535%,14.099121%);fill-opacity:1;" d="M 367.054688 66.953125 L 363.472656 66.953125 L 363.472656 64.933594 L 367.269531 64.933594 L 367.269531 63.128906 L 361.28125 63.128906 L 361.28125 72.855469 L 367.472656 72.855469 L 367.472656 71.050781 L 363.472656 71.050781 L 363.472656 68.742188 L 367.054688 68.742188 L 367.054688 66.953125 "/>
<path style=" stroke:none;fill-rule:nonzero;fill:rgb(92.89856%,10.998535%,14.099121%);fill-opacity:1;" d="M 370.992188 72.855469 L 370.992188 69.925781 C 370.992188 68.339844 370.964844 66.96875 370.890625 65.667969 L 370.949219 65.667969 C 371.410156 66.808594 372.0625 68.050781 372.640625 69.105469 L 374.71875 72.855469 L 377.027344 72.855469 L 377.027344 63.128906 L 375.003906 63.128906 L 375.003906 65.957031 C 375.003906 67.429688 375.050781 68.742188 375.179688 70.027344 L 375.148438 70.027344 C 374.703125 68.929688 374.140625 67.71875 373.5625 66.695313 L 371.542969 63.128906 L 368.972656 63.128906 L 368.972656 72.855469 L 370.992188 72.855469 "/>
<path style=" stroke:none;fill-rule:nonzero;fill:rgb(92.89856%,10.998535%,14.099121%);fill-opacity:1;" d="M 384.71875 66.953125 L 381.140625 66.953125 L 381.140625 64.933594 L 384.9375 64.933594 L 384.9375 63.128906 L 378.945313 63.128906 L 378.945313 72.855469 L 385.136719 72.855469 L 385.136719 71.050781 L 381.140625 71.050781 L 381.140625 68.742188 L 384.71875 68.742188 L 384.71875 66.953125 "/>
<path style=" stroke:none;fill-rule:nonzero;fill:rgb(92.89856%,10.998535%,14.099121%);fill-opacity:1;" d="M 390.882813 72.855469 L 393.074219 72.855469 L 393.074219 64.976563 L 395.730469 64.976563 L 395.730469 63.128906 L 388.253906 63.128906 L 388.253906 64.976563 L 390.882813 64.976563 L 390.882813 72.855469 "/>
<path style=" stroke:none;fill-rule:nonzero;fill:rgb(92.89856%,10.998535%,14.099121%);fill-opacity:1;" d="M 400.625 73.019531 C 403.46875 73.019531 405.386719 71.09375 405.386719 67.890625 C 405.386719 65.207031 403.757813 62.96875 400.769531 62.96875 C 397.910156 62.96875 396.035156 65.148438 396.035156 68.0625 C 396.035156 70.835938 397.738281 73.019531 400.609375 73.019531 Z M 400.695313 71.269531 C 399.226563 71.269531 398.34375 69.839844 398.34375 68.007813 C 398.34375 66.1875 399.195313 64.714844 400.710938 64.714844 C 402.226563 64.714844 403.050781 66.21875 403.050781 67.964844 C 403.050781 69.867188 402.199219 71.269531 400.710938 71.269531 L 400.695313 71.269531 "/>
<path style=" stroke:none;fill-rule:nonzero;fill:rgb(92.89856%,10.998535%,14.099121%);fill-opacity:1;" d="M 406.832031 72.8125 C 407.363281 72.886719 408.1875 72.960938 409.328125 72.960938 C 411.234375 72.960938 412.804688 72.554688 413.832031 71.703125 C 414.753906 70.90625 415.433594 69.625 415.433594 67.761719 C 415.433594 66.03125 414.796875 64.816406 413.789063 64.066406 C 412.863281 63.359375 411.652344 63.054688 409.789063 63.054688 C 408.691406 63.054688 407.640625 63.128906 406.832031 63.273438 Z M 409.023438 64.832031 C 409.214844 64.789063 409.542969 64.746094 410.019531 64.746094 C 411.925781 64.746094 413.109375 65.742188 413.109375 67.832031 C 413.109375 70.15625 411.796875 71.253906 409.789063 71.238281 C 409.53125 71.238281 409.214844 71.238281 409.023438 71.195313 L 409.023438 64.832031 "/>
<path style=" stroke:none;fill-rule:nonzero;fill:rgb(92.89856%,10.998535%,14.099121%);fill-opacity:1;" d="M 421.019531 73.019531 C 423.863281 73.019531 425.78125 71.09375 425.78125 67.890625 C 425.78125 65.207031 424.152344 62.96875 421.164063 62.96875 C 418.304688 62.96875 416.429688 65.148438 416.429688 68.0625 C 416.429688 70.835938 418.132813 73.019531 421.003906 73.019531 Z M 421.089844 71.269531 C 419.617188 71.269531 418.738281 69.839844 418.738281 68.007813 C 418.738281 66.1875 419.589844 64.714844 421.105469 64.714844 C 422.621094 64.714844 423.445313 66.21875 423.445313 67.964844 C 423.445313 69.867188 422.59375 71.269531 421.105469 71.269531 L 421.089844 71.269531 "/>
<path style=" stroke:none;fill-rule:nonzero;fill:rgb(92.89856%,10.998535%,14.099121%);fill-opacity:1;" d="M 427.789063 73.019531 C 428.566406 73.019531 429.085938 72.453125 429.085938 71.6875 C 429.074219 70.878906 428.554688 70.34375 427.804688 70.34375 C 427.039063 70.34375 426.503906 70.894531 426.503906 71.6875 C 426.503906 72.453125 427.039063 73.019531 427.773438 73.019531 L 427.789063 73.019531 "/>
<path style=" stroke:none;fill-rule:evenodd;fill:rgb(92.89856%,10.998535%,14.099121%);fill-opacity:1;" d="M 54.449219 23.621094 C 54.308594 24.789063 53.941406 30.382813 58.480469 35.851563 C 66.882813 45.964844 55.507813 56.8125 42.558594 54.183594 C 42.558594 54.183594 37.359375 55.230469 31.644531 55.230469 C 25.925781 55.230469 20.695313 54.183594 20.695313 54.183594 C 7.746094 56.8125 -3.863281 45.964844 4.539063 35.851563 C 9.082031 30.382813 8.707031 24.789063 8.570313 23.621094 L 54.449219 23.621094 "/>
<path style="fill:none;stroke-width:4.26093;stroke-linecap:butt;stroke-linejoin:miter;stroke:rgb(13.699341%,12.199402%,12.5%);stroke-opacity:1;stroke-miterlimit:22.9256;" d="M -515.830203 542.344503 C -504.104115 540.982708 -447.944391 537.286408 -393.039633 582.497995 C -291.505048 666.190013 -182.597538 552.888686 -208.99104 423.907265 C -208.99104 423.907265 -198.480701 372.159063 -198.480701 315.197132 C -198.480701 258.235201 -208.99104 206.136823 -208.99104 206.136823 C -182.597538 77.155402 -291.505048 -38.48043 -393.039633 45.211587 C -447.944391 90.462083 -504.104115 86.726874 -515.830203 85.365079 Z M -515.830203 542.344503 " transform="matrix(0,0.0996043,0.100396,0,0,75)"/>
<path style=" stroke:none;fill-rule:evenodd;fill:rgb(92.89856%,10.998535%,14.099121%);fill-opacity:1;" d="M 41.578125 52.082031 C 41.578125 52.082031 42.308594 50.113281 43.816406 48.964844 C 44.554688 48.402344 45.789063 48.613281 45.167969 49.730469 C 45 50.03125 43.210938 51.214844 42.007813 52.632813 C 41.785156 52.894531 41.578125 52.082031 41.578125 52.082031 Z M 23.988281 50.757813 C 23.988281 50.757813 23.6875 48.679688 22.453125 47.246094 C 21.851563 46.546875 20.597656 46.5 20.972656 47.71875 C 21.074219 48.046875 22.578125 49.574219 23.453125 51.210938 C 23.617188 51.511719 23.988281 50.757813 23.988281 50.757813 Z M 21.675781 52.082031 C 21.675781 52.082031 20.945313 50.113281 19.4375 48.964844 C 18.703125 48.402344 17.464844 48.613281 18.085938 49.730469 C 18.257813 50.03125 20.046875 51.214844 21.25 52.632813 C 21.46875 52.894531 21.675781 52.082031 21.675781 52.082031 Z M 39.265625 50.757813 C 39.265625 50.757813 39.566406 48.679688 40.800781 47.246094 C 41.40625 46.546875 42.65625 46.5 42.285156 47.71875 C 42.183594 48.046875 40.679688 49.574219 39.800781 51.210938 C 39.640625 51.511719 39.265625 50.757813 39.265625 50.757813 "/>
<path style="fill:none;stroke-width:4.26219;stroke-linecap:butt;stroke-linejoin:miter;stroke:rgb(13.699341%,12.199402%,12.5%);stroke-opacity:1;stroke-miterlimit:22.9256;" d="M -230.090154 414.141251 C -230.090154 414.141251 -249.855867 421.417126 -261.385866 436.435777 C -267.033213 443.789469 -264.915458 456.08453 -253.6992 449.898091 C -250.679439 448.225029 -238.79648 430.404971 -224.560461 418.421177 C -221.932876 416.242305 -230.090154 414.141251 -230.090154 414.141251 Z M -243.384949 238.936623 C -243.384949 238.936623 -264.248757 235.940675 -278.641647 223.645613 C -285.661613 217.653716 -286.132225 205.164113 -273.896308 208.899321 C -270.602022 209.91094 -255.267908 224.890683 -238.835698 233.60617 C -235.815936 235.240323 -243.384949 238.936623 -243.384949 238.936623 Z M -230.090154 215.902837 C -230.090154 215.902837 -249.855867 208.626962 -261.385866 193.608311 C -267.033213 186.293528 -264.915458 173.959558 -253.6992 180.145997 C -250.679439 181.857967 -238.79648 199.678025 -224.560461 211.661819 C -221.932876 213.840691 -230.090154 215.902837 -230.090154 215.902837 Z M -243.384949 391.107464 C -243.384949 391.107464 -264.248757 394.103413 -278.641647 406.398475 C -285.661613 412.42928 -286.132225 424.918884 -273.896308 421.183675 C -270.602022 420.172056 -255.267908 405.192313 -238.835698 396.437918 C -235.815936 394.842673 -243.384949 391.107464 -243.384949 391.107464 Z M -243.384949 391.107464 " transform="matrix(0,0.0996043,0.100396,0,0,75)"/>
<path style=" stroke:none;fill-rule:evenodd;fill:rgb(100%,94.898987%,0%);fill-opacity:1;" d="M 37.664063 50.507813 C 37.664063 50.507813 41.515625 38.191406 35.695313 30.855469 C 35.175781 30.761719 34.636719 30.441406 34.054688 30.054688 C 34.054688 30.054688 33.410156 28.921875 31.890625 28.914063 C 30.375 28.921875 29.21875 30.054688 29.21875 30.054688 C 28.542969 30.503906 27.902344 30.785156 27.308594 30.855469 C 21.492188 38.191406 25.464844 50.570313 25.464844 50.570313 C 31.597656 48.257813 37.519531 50.441406 37.664063 50.507813 "/>
<path style="fill:none;stroke-width:4.26219;stroke-linecap:butt;stroke-linejoin:miter;stroke:rgb(13.699341%,12.199402%,12.5%);stroke-opacity:1;stroke-miterlimit:22.9256;" d="M -245.894881 375.155011 C -245.894881 375.155011 -369.54824 413.518716 -443.199051 355.545166 C -444.140276 350.370346 -447.356126 345.000984 -451.238676 339.203629 C -451.238676 339.203629 -462.611805 332.783739 -462.69024 317.648362 C -462.611805 302.551894 -451.238676 291.035001 -451.238676 291.035001 C -446.728643 284.303844 -443.904969 277.922863 -443.199051 272.047691 C -369.587458 214.074141 -245.267398 253.644007 -245.267398 253.644007 C -268.484267 314.730231 -246.561582 373.7154 -245.894881 375.155011 Z M -245.894881 375.155011 " transform="matrix(0,0.0996043,0.100396,0,0,75)"/>
<path style=" stroke:none;fill-rule:nonzero;fill:rgb(100%,100%,100%);fill-opacity:1;" d="M 35.882813 41.921875 C 35.882813 41.347656 36.351563 40.882813 36.933594 40.882813 C 37.511719 40.882813 37.980469 41.347656 37.980469 41.921875 C 37.980469 42.496094 37.511719 42.960938 36.933594 42.960938 C 36.351563 42.960938 35.882813 42.496094 35.882813 41.921875 "/>
<path style="fill:none;stroke-width:4.26219;stroke-linecap:butt;stroke-linejoin:miter;stroke:rgb(13.699341%,12.199402%,12.5%);stroke-opacity:1;stroke-miterlimit:22.9256;" d="M -332.095351 357.41277 C -337.860351 357.41277 -342.527255 362.081781 -342.527255 367.879136 C -342.527255 373.637583 -337.860351 378.306593 -332.095351 378.306593 C -326.330352 378.306593 -321.663447 373.637583 -321.663447 367.879136 C -321.663447 362.081781 -326.330352 357.41277 -332.095351 357.41277 Z M -332.095351 357.41277 " transform="matrix(0,0.0996043,0.100396,0,0,75)"/>
<path style=" stroke:none;fill-rule:evenodd;fill:rgb(0%,58.399963%,85.499573%);fill-opacity:1;" d="M 11.257813 31.695313 L 18.726563 31.695313 C 19.90625 31.695313 20.867188 32.648438 20.867188 33.820313 L 20.867188 38.816406 C 20.867188 39.992188 19.90625 40.941406 18.726563 40.941406 L 11.257813 40.941406 C 10.074219 40.941406 9.113281 39.992188 9.113281 38.816406 L 9.113281 33.820313 C 9.113281 32.648438 10.074219 31.695313 11.257813 31.695313 "/>
<path style="fill:none;stroke-width:4.26219;stroke-linecap:butt;stroke-linejoin:miter;stroke:rgb(13.699341%,12.199402%,12.5%);stroke-opacity:1;stroke-miterlimit:22.9256;" d="M -434.767249 112.134074 L -434.767249 186.526978 C -434.767249 198.31623 -425.198134 207.848794 -413.432829 207.848794 L -363.27341 207.848794 C -351.468887 207.848794 -341.93899 198.31623 -341.93899 186.526978 L -341.93899 112.134074 C -341.93899 100.344822 -351.468887 90.77335 -363.27341 90.77335 L -413.432829 90.77335 C -425.198134 90.77335 -434.767249 100.344822 -434.767249 112.134074 Z M -434.767249 112.134074 " transform="matrix(0,0.0996043,0.100396,0,0,75)"/>
<path style=" stroke:none;fill-rule:nonzero;fill:rgb(13.699341%,12.199402%,12.5%);fill-opacity:1;" d="M 12.109375 32.894531 L 18.027344 32.894531 C 18.917969 32.894531 19.644531 33.613281 19.644531 34.496094 L 19.644531 38.144531 C 19.644531 39.027344 18.917969 39.742188 18.027344 39.742188 L 12.109375 39.742188 C 11.21875 39.742188 10.496094 39.027344 10.496094 38.144531 L 10.496094 34.496094 C 10.496094 33.613281 11.21875 32.894531 12.109375 32.894531 "/>
<path style="fill:none;stroke-width:4.26219;stroke-linecap:butt;stroke-linejoin:miter;stroke:rgb(13.699341%,12.199402%,12.5%);stroke-opacity:1;stroke-miterlimit:22.9256;" d="M -422.72742 120.655019 L -422.72742 179.562371 C -422.72742 188.472399 -415.511366 195.670457 -406.648169 195.670457 L -370.018852 195.670457 C -361.155655 195.670457 -353.978819 188.472399 -353.978819 179.562371 L -353.978819 120.655019 C -353.978819 111.74499 -361.155655 104.546932 -370.018852 104.546932 L -406.648169 104.546932 C -415.511366 104.546932 -422.72742 111.74499 -422.72742 120.655019 Z M -422.72742 120.655019 " transform="matrix(0,0.0996043,0.100396,0,0,75)"/>
<path style=" stroke:none;fill-rule:evenodd;fill:rgb(96.899414%,57.998657%,11.399841%);fill-opacity:1;" d="M 19.644531 37.230469 C 16.972656 36.964844 16.042969 33.859375 15.816406 32.894531 L 18.027344 32.894531 C 18.917969 32.894531 19.644531 33.613281 19.644531 34.496094 L 19.644531 37.230469 "/>
<path style="fill:none;stroke-width:4.26219;stroke-linecap:butt;stroke-linejoin:miter;stroke:rgb(13.699341%,12.199402%,12.5%);stroke-opacity:1;stroke-miterlimit:22.9256;" d="M -379.19579 195.670457 C -381.862593 169.057096 -413.040652 159.796892 -422.72742 157.540203 L -422.72742 179.562371 C -422.72742 188.433491 -415.511366 195.670457 -406.648169 195.670457 Z M -379.19579 195.670457 " transform="matrix(0,0.0996043,0.100396,0,0,75)"/>
<path style=" stroke:none;fill-rule:evenodd;fill:rgb(96.899414%,57.998657%,11.399841%);fill-opacity:1;" d="M 14.359375 32.894531 C 14.183594 33.777344 13.34375 37.101563 10.496094 37.242188 L 10.496094 34.496094 C 10.496094 33.613281 11.21875 32.894531 12.113281 32.894531 L 14.359375 32.894531 "/>
<path style="fill:none;stroke-width:4.26219;stroke-linecap:butt;stroke-linejoin:miter;stroke:rgb(13.699341%,12.199402%,12.5%);stroke-opacity:1;stroke-miterlimit:22.9256;" d="M -422.72742 143.027362 C -413.864223 141.276483 -380.489974 132.911172 -379.078137 104.546932 L -406.648169 104.546932 C -415.511366 104.546932 -422.72742 111.74499 -422.72742 120.655019 Z M -422.72742 143.027362 " transform="matrix(0,0.0996043,0.100396,0,0,75)"/>
<path style=" stroke:none;fill-rule:evenodd;fill:rgb(0%,58.399963%,85.499573%);fill-opacity:1;" d="M 44.488281 31.695313 L 51.957031 31.695313 C 53.140625 31.695313 54.097656 32.648438 54.097656 33.820313 L 54.097656 38.816406 C 54.097656 39.992188 53.140625 40.941406 51.957031 40.941406 L 44.488281 40.941406 C 43.304688 40.941406 42.347656 39.992188 42.347656 38.816406 L 42.347656 33.820313 C 42.347656 32.648438 43.304688 31.695313 44.488281 31.695313 "/>
<path style="fill:none;stroke-width:4.26219;stroke-linecap:butt;stroke-linejoin:miter;stroke:rgb(13.699341%,12.199402%,12.5%);stroke-opacity:1;stroke-miterlimit:22.9256;" d="M -434.767249 443.128026 L -434.767249 517.52093 C -434.767249 529.310182 -425.198134 538.842745 -413.432829 538.842745 L -363.27341 538.842745 C -351.468887 538.842745 -341.93899 529.310182 -341.93899 517.52093 L -341.93899 443.128026 C -341.93899 431.338773 -351.468887 421.80621 -363.27341 421.80621 L -413.432829 421.80621 C -425.198134 421.80621 -434.767249 431.338773 -434.767249 443.128026 Z M -434.767249 443.128026 " transform="matrix(0,0.0996043,0.100396,0,0,75)"/>
<path style=" stroke:none;fill-rule:nonzero;fill:rgb(13.699341%,12.199402%,12.5%);fill-opacity:1;" d="M 45.34375 32.894531 L 51.261719 32.894531 C 52.152344 32.894531 52.875 33.613281 52.875 34.496094 L 52.875 38.144531 C 52.875 39.027344 52.152344 39.742188 51.261719 39.742188 L 45.34375 39.742188 C 44.453125 39.742188 43.730469 39.027344 43.730469 38.144531 L 43.730469 34.496094 C 43.730469 33.613281 44.453125 32.894531 45.34375 32.894531 "/>
<path style="fill:none;stroke-width:4.26219;stroke-linecap:butt;stroke-linejoin:miter;stroke:rgb(13.699341%,12.199402%,12.5%);stroke-opacity:1;stroke-miterlimit:22.9256;" d="M -422.72742 451.64897 L -422.72742 510.59523 C -422.72742 519.466351 -415.511366 526.664409 -406.648169 526.664409 L -370.018852 526.664409 C -361.155655 526.664409 -353.978819 519.466351 -353.978819 510.59523 L -353.978819 451.64897 C -353.978819 442.77785 -361.155655 435.579792 -370.018852 435.579792 L -406.648169 435.579792 C -415.511366 435.579792 -422.72742 442.77785 -422.72742 451.64897 Z M -422.72742 451.64897 " transform="matrix(0,0.0996043,0.100396,0,0,75)"/>
<path style=" stroke:none;fill-rule:evenodd;fill:rgb(96.899414%,57.998657%,11.399841%);fill-opacity:1;" d="M 52.875 37.230469 C 50.203125 36.964844 49.273438 33.859375 49.046875 32.894531 L 51.261719 32.894531 C 52.152344 32.894531 52.875 33.613281 52.875 34.496094 L 52.875 37.230469 "/>
<path style="fill:none;stroke-width:4.26219;stroke-linecap:butt;stroke-linejoin:miter;stroke:rgb(13.699341%,12.199402%,12.5%);stroke-opacity:1;stroke-miterlimit:22.9256;" d="M -379.19579 526.664409 C -381.862593 500.051048 -413.040652 490.790843 -422.72742 488.534155 L -422.72742 510.59523 C -422.72742 519.466351 -415.511366 526.664409 -406.648169 526.664409 Z M -379.19579 526.664409 " transform="matrix(0,0.0996043,0.100396,0,0,75)"/>
<path style=" stroke:none;fill-rule:evenodd;fill:rgb(96.899414%,57.998657%,11.399841%);fill-opacity:1;" d="M 47.589844 32.894531 C 47.417969 33.777344 46.578125 37.101563 43.730469 37.242188 L 43.730469 34.496094 C 43.730469 33.613281 44.453125 32.894531 45.34375 32.894531 L 47.589844 32.894531 "/>
<path style="fill:none;stroke-width:4.26219;stroke-linecap:butt;stroke-linejoin:miter;stroke:rgb(13.699341%,12.199402%,12.5%);stroke-opacity:1;stroke-miterlimit:22.9256;" d="M -422.72742 474.021313 C -413.864223 472.309343 -380.489974 463.944032 -379.078137 435.579792 L -406.648169 435.579792 C -415.511366 435.579792 -422.72742 442.77785 -422.72742 451.64897 Z M -422.72742 474.021313 " transform="matrix(0,0.0996043,0.100396,0,0,75)"/>
<path style=" stroke:none;fill-rule:evenodd;fill:rgb(96.099854%,50.999451%,12.199402%);fill-opacity:1;" d="M 24.035156 49.785156 C 24.035156 49.785156 21.996094 50.050781 21.25 51.273438 C 20.5 52.496094 21.363281 53.957031 22.261719 54.179688 C 26.074219 55.113281 31.382813 55.089844 31.507813 55.027344 C 31.628906 55.089844 37.175781 55.25 40.792969 54.179688 C 41.679688 53.914063 42.558594 52.496094 41.808594 51.273438 C 41.058594 50.050781 39.023438 49.785156 39.023438 49.785156 C 38.835938 48.644531 24.21875 49.117188 24.035156 49.785156 "/>
<path style="fill:none;stroke-width:4.26219;stroke-linecap:butt;stroke-linejoin:miter;stroke:rgb(13.699341%,12.199402%,12.5%);stroke-opacity:1;stroke-miterlimit:22.9256;" d="M -253.150153 239.403525 C -253.150153 239.403525 -250.48335 219.093328 -238.208215 211.661819 C -225.893862 204.191402 -211.265666 212.790163 -209.030258 221.739101 C -199.657231 259.713721 -199.892537 312.590268 -200.559238 313.835337 C -199.892537 315.041498 -198.284612 370.291458 -209.030258 406.320658 C -211.657843 415.15287 -225.893862 423.907265 -238.208215 416.436848 C -250.48335 408.96643 -253.150153 388.695142 -253.150153 388.695142 C -264.601716 386.827538 -259.856377 241.23222 -253.150153 239.403525 Z M -253.150153 239.403525 " transform="matrix(0,0.0996043,0.100396,0,0,75)"/>
<path style="fill:none;stroke-width:4.26219;stroke-linecap:butt;stroke-linejoin:miter;stroke:rgb(13.699341%,12.199402%,12.5%);stroke-opacity:1;stroke-miterlimit:3.8637;" d="M -253.463894 238.819898 C -253.463894 238.819898 -264.680152 300.528657 -253.463894 389.590036 " transform="matrix(0,0.0996043,0.100396,0,0,75)"/>
<path style=" stroke:none;fill-rule:evenodd;fill:rgb(92.89856%,10.998535%,14.099121%);fill-opacity:1;" d="M 46.867188 9.300781 L 46.863281 3.269531 L 54.113281 2.84375 L 54.414063 12.382813 C 50.480469 9.769531 50.371094 10.925781 46.867188 9.300781 "/>
<path style="fill:none;stroke-width:10.8678;stroke-linecap:butt;stroke-linejoin:miter;stroke:rgb(13.699341%,12.199402%,12.5%);stroke-opacity:1;stroke-miterlimit:22.9256;" d="M -659.602234 466.823255 L -720.154338 466.784346 L -724.429066 538.998379 L -628.659481 541.994327 C -654.896111 502.813546 -643.287677 501.763018 -659.602234 466.823255 Z M -659.602234 466.823255 " transform="matrix(0,0.0996043,0.100396,0,0,75)"/>
<path style="fill:none;stroke-width:10.8678;stroke-linecap:butt;stroke-linejoin:miter;stroke:rgb(13.699341%,12.199402%,12.5%);stroke-opacity:1;stroke-miterlimit:3.8637;" d="M -515.830203 542.344503 C -504.104115 540.982708 -447.944391 537.286408 -393.039633 582.497995 C -291.505048 666.190013 -182.597538 552.888686 -208.99104 423.907265 C -208.99104 423.907265 -198.480701 372.159063 -198.480701 315.197132 C -198.480701 258.235201 -208.99104 206.136823 -208.99104 206.136823 C -182.597538 77.155402 -291.505048 -38.48043 -393.039633 45.211587 C -447.944391 90.462083 -504.104115 86.726874 -515.830203 85.365079 " transform="matrix(0,0.0996043,0.100396,0,0,75)"/>
<path style=" stroke:none;fill-rule:evenodd;fill:rgb(96.099854%,50.999451%,12.199402%);fill-opacity:1;" d="M 31.453125 1.421875 C 30.839844 1.421875 29.570313 1.824219 29.570313 1.824219 C 29.570313 1.824219 12.066406 7.859375 2.417969 17.4375 C -0.304688 20.136719 0.875 23.621094 4.3125 23.621094 C 6.992188 23.621094 31.457031 23.621094 31.457031 23.621094 C 31.457031 23.621094 55.917969 23.621094 58.597656 23.621094 C 62.007813 23.621094 63.214844 20.140625 60.492188 17.4375 C 50.84375 7.859375 33.335938 1.824219 33.335938 1.824219 C 33.335938 1.824219 32.066406 1.421875 31.453125 1.421875 "/>
<path style="fill:none;stroke-width:10.8678;stroke-linecap:butt;stroke-linejoin:miter;stroke:rgb(13.699341%,12.199402%,12.5%);stroke-opacity:1;stroke-miterlimit:22.9256;" d="M -738.704303 313.290619 C -738.704303 307.181997 -734.664881 294.536759 -734.664881 294.536759 C -734.664881 294.536759 -674.073559 120.188118 -577.911797 24.084314 C -550.812377 -3.034857 -515.830203 8.715487 -515.830203 42.954899 C -515.830203 69.646077 -515.830203 313.329528 -515.830203 313.329528 C -515.830203 313.329528 -515.830203 556.97407 -515.830203 583.665248 C -515.830203 617.632301 -550.773159 629.655004 -577.911797 602.535833 C -674.073559 506.432029 -734.664881 332.044479 -734.664881 332.044479 C -734.664881 332.044479 -738.704303 319.399242 -738.704303 313.290619 Z M -738.704303 313.290619 " transform="matrix(0,0.0996043,0.100396,0,0,75)"/>
<path style=" stroke:none;fill-rule:evenodd;fill:rgb(0%,58.399963%,85.499573%);fill-opacity:1;" d="M 34.585938 28.546875 C 36.070313 29.347656 37.398438 30.53125 38.257813 31.773438 C 39.539063 33.625 42.121094 38.265625 40.859375 44.21875 C 40.859375 44.21875 42.441406 45.773438 45.3125 48.621094 C 46.976563 50.273438 44.34375 52.835938 43.152344 54.453125 L 39.960938 54.453125 C 39.960938 54.453125 41.121094 52.953125 40.355469 51.554688 C 39.820313 50.570313 37.933594 50.257813 37.933594 50.257813 C 37.933594 50.257813 38.820313 48.269531 37.382813 47.792969 C 37.382813 47.792969 40.144531 40.625 37.085938 34.109375 C 36.105469 32.023438 34.554688 30.046875 32.089844 29.671875 C 31.5 29.621094 30.902344 29.699219 30.289063 29.910156 C 28.089844 30.675781 26.972656 32.257813 25.964844 34.386719 C 22.960938 40.730469 25.871094 47.792969 25.871094 47.792969 C 24.4375 48.269531 25.324219 50.257813 25.324219 50.257813 C 25.324219 50.257813 23.4375 50.570313 22.898438 51.554688 C 22.136719 52.953125 23.292969 54.453125 23.292969 54.453125 L 20.101563 54.453125 C 19.296875 53.359375 16.707031 50.300781 17.550781 48.363281 C 18.59375 46.484375 22.398438 44.21875 22.398438 44.21875 C 21.234375 38.75 23.320313 34.390625 24.660156 32.28125 C 25.691406 30.660156 27.5 29.15625 29.453125 28.320313 C 31.445313 27.464844 32.660156 27.515625 34.585938 28.546875 "/>
<path style="fill:none;stroke-width:4.26219;stroke-linecap:butt;stroke-linejoin:miter;stroke:rgb(13.699341%,12.199402%,12.5%);stroke-opacity:1;stroke-miterlimit:22.9256;" d="M 344.495174 466.337485 C 359.280375 458.337077 372.509238 446.454119 381.069091 433.982895 C 393.831054 415.393713 419.58843 368.842322 406.982101 309.035353 C 406.982101 309.035353 422.740012 293.426715 451.337703 264.837023 C 467.912691 248.247942 441.688414 222.521141 429.821345 206.28502 L 398.033164 206.28502 C 398.033164 206.28502 409.588965 221.344611 401.962914 235.384542 C 396.63246 245.267398 377.839692 248.404813 377.839692 248.404813 C 377.839692 248.404813 386.671904 268.366614 372.353605 273.151172 C 372.353605 273.151172 399.86186 345.115623 369.396565 410.53072 C 359.630551 431.472964 344.183907 451.317112 319.632692 455.08201 C 313.75752 455.552622 307.804532 454.807486 301.695909 452.689731 C 279.790467 445.003065 268.662658 429.119902 258.624285 407.746264 C 228.703708 344.056745 257.729392 273.151172 257.729392 273.151172 C 243.411092 268.366614 252.243304 248.404813 252.243304 248.404813 C 252.243304 248.404813 233.450536 245.267398 228.081174 235.384542 C 220.494031 221.344611 232.010924 206.28502 232.010924 206.28502 L 200.222743 206.28502 C 192.246516 217.226754 166.411324 247.973418 174.815543 267.42539 C 185.204092 286.289096 223.100895 309.035353 223.100895 309.035353 C 211.506186 363.940111 232.283283 407.707047 245.628872 428.884596 C 255.900696 445.159935 273.915295 460.258744 293.369507 468.690546 C 313.212802 477.240001 325.313322 476.730171 344.495174 466.337485 Z M 344.495174 466.337485 " transform="matrix(0.100396,0,0,-0.0996043,0,75)"/>
</g>
</svg>
