<?xml version="1.0" standalone="no"?>
<!DOCTYPE svg PUBLIC "-//W3C//DTD SVG 20010904//EN"
 "http://www.w3.org/TR/2001/REC-SVG-20010904/DTD/svg10.dtd">
<svg version="1.0" xmlns="http://www.w3.org/2000/svg"
 width="1300.000000pt" height="1390.000000pt" viewBox="0 0 1300.000000 1390.000000"
 preserveAspectRatio="xMidYMid meet">

<g transform="translate(0.000000,1390.000000) scale(0.100000,-0.100000)"
fill="#000000" stroke="none">
<path d="M4470 10821 c-135 -20 -215 -58 -289 -136 l-50 -52 -183 -1 c-101 -1
-208 -6 -238 -12 -126 -24 -242 -108 -296 -212 -45 -87 -54 -148 -54 -349 l0
-186 -48 -6 c-180 -21 -365 -147 -457 -311 -38 -68 -75 -196 -75 -258 0 -30
-9 -50 -42 -91 -49 -61 -100 -168 -122 -254 -24 -91 -35 -265 -25 -389 14
-182 11 -274 -9 -314 -26 -52 -52 -50 -178 14 -119 60 -183 80 -317 96 -169
20 -379 -20 -522 -101 -70 -39 -156 -117 -197 -178 -17 -25 -32 -47 -34 -49
-1 -2 -37 4 -80 13 -248 52 -387 -87 -385 -384 1 -163 29 -278 117 -472 79
-178 122 -393 109 -554 -7 -76 -17 -130 -86 -460 -59 -286 -49 -524 34 -786
l14 -46 -49 -64 c-105 -139 -156 -300 -157 -497 -1 -105 5 -128 41 -166 11
-12 32 -37 47 -56 14 -19 32 -41 39 -49 16 -16 11 -24 -12 -15 -9 3 -16 14
-16 23 -1 18 -23 51 -35 51 -4 0 0 -11 9 -25 9 -13 16 -30 16 -37 0 -7 -8 3
-19 22 -10 19 -17 38 -14 42 2 4 -5 17 -15 28 -19 20 -19 20 -11 -29 10 -63
25 -92 44 -85 10 4 15 0 15 -11 0 -9 -4 -13 -10 -10 -18 11 8 -43 51 -108 103
-153 296 -282 489 -328 83 -19 281 -17 359 5 83 23 179 66 235 106 l44 32 62
-36 c33 -20 63 -36 65 -36 3 0 62 -26 132 -59 119 -55 322 -131 403 -151 19
-4 67 -17 105 -28 109 -31 257 -62 405 -84 183 -27 611 -35 885 -17 278 18
672 16 860 -5 178 -20 268 -41 430 -100 66 -24 147 -49 180 -56 33 -8 65 -17
70 -21 19 -14 164 -29 247 -25 181 9 331 78 468 217 l77 78 69 -71 c92 -94
191 -158 300 -194 76 -25 105 -29 199 -29 141 0 244 22 455 95 194 67 268 85
442 105 259 29 691 29 943 -1 111 -14 539 -7 685 10 416 49 730 137 1120 314
19 9 66 34 103 55 l69 38 62 -40 c82 -54 171 -88 275 -106 105 -19 154 -19
262 0 309 54 564 286 640 583 26 104 26 256 -2 373 -24 102 -89 238 -149 309
l-41 49 25 79 c46 147 60 244 60 422 -1 175 -5 201 -85 570 -27 126 -31 165
-31 300 -1 138 2 166 26 254 15 54 51 156 81 226 96 224 109 279 109 470 1
162 0 166 -28 228 -37 80 -99 136 -175 159 -55 16 -118 12 -233 -13 -21 -5
-27 -2 -33 15 -3 12 -32 49 -63 82 -143 155 -331 231 -577 233 -177 1 -298
-30 -445 -115 -62 -36 -83 -43 -122 -40 -39 2 -43 33 -43 356 0 265 -3 320
-18 380 -23 89 -76 199 -127 264 -33 41 -40 58 -40 93 0 60 -35 181 -73 253
-40 76 -153 189 -236 237 -35 21 -95 45 -133 55 l-68 17 0 186 c0 263 -22 348
-112 446 -22 24 -64 57 -93 74 -87 50 -157 60 -405 60 l-222 1 -48 52 c-56 61
-121 99 -211 124 -54 15 -105 18 -329 17 -236 -1 -273 -3 -338 -21 -74 -21
-129 -53 -189 -110 l-34 -32 -72 15 c-57 12 -126 15 -322 12 -223 -4 -257 -7
-315 -26 -36 -12 -81 -33 -101 -46 -32 -22 -40 -23 -75 -14 -21 5 -152 12
-290 15 -261 5 -391 -4 -464 -33 -38 -15 -38 -15 -83 19 -25 19 -74 45 -109
58 -60 22 -78 23 -351 26 l-288 3 -42 34 c-101 81 -168 96 -457 101 -124 2
-250 0 -280 -4z m89 -341 c-23 -15 26 -20 218 -22 146 -2 185 -6 197 -18 12
-13 16 -97 22 -525 7 -493 6 -511 -12 -530 -19 -18 -19 -9 -24 496 -3 283 -6
515 -8 516 -1 1 -9 9 -18 17 -13 13 -44 16 -184 16 -157 0 -169 -1 -163 -17 4
-10 9 -20 12 -23 3 -3 18 -40 32 -83 28 -86 27 -152 -3 -171 -25 -15 -47 7
-28 29 32 38 4 114 -42 115 -10 0 -25 11 -34 25 -9 14 -24 25 -33 26 -10 0
-11 2 -3 6 6 2 10 9 6 14 -3 5 0 9 5 9 6 0 12 -8 12 -17 1 -17 2 -16 6 0 4 17
6 17 30 2 30 -20 42 -12 25 16 -7 10 -10 30 -6 44 5 22 3 25 -21 25 -41 0 -65
-18 -66 -48 0 -15 -2 -59 -5 -99 -4 -45 -1 -79 6 -93 8 -14 8 -25 1 -34 -6 -7
-11 -169 -13 -441 -3 -379 -5 -434 -20 -468 -9 -20 -66 -89 -127 -152 -86 -89
-118 -131 -148 -191 -36 -74 -38 -83 -38 -173 0 -92 2 -100 40 -176 l39 -80 1
-585 c0 -322 -3 -601 -8 -621 -5 -25 -14 -39 -28 -42 -19 -5 -20 -2 -14 124 5
101 4 129 -6 129 -10 0 -10 3 -1 12 19 19 15 68 -5 68 -15 0 -15 1 1 13 18 13
18 26 7 273 -6 142 -11 353 -11 467 l0 209 -32 71 c-30 65 -33 81 -33 167 0
89 2 100 38 174 43 90 90 151 194 252 120 117 113 72 113 686 0 373 3 534 11
552 9 19 22 27 56 32 41 6 44 8 38 31 -5 22 -4 23 16 12 17 -8 19 -13 8 -19z
m3966 -42 l28 -22 -7 -361 c-10 -583 9 -702 214 -1315 128 -381 150 -459 174
-615 20 -130 38 -514 34 -730 l-3 -170 -31 -3 -32 -3 -6 208 c-20 703 -26 745
-196 1293 -94 304 -123 412 -155 585 -41 227 -47 330 -39 731 7 369 7 372 -14
383 -13 7 -97 11 -235 11 -198 0 -215 -1 -231 -19 -16 -17 -17 -39 -11 -233
15 -467 9 -629 -37 -875 -20 -111 -31 -131 -56 -100 -8 9 -6 37 8 97 48 221
60 442 46 865 -8 236 -4 268 36 285 13 5 127 9 254 9 224 1 232 0 259 -21z
m-172 -67 c4 -15 -2 -20 -27 -24 -64 -9 -101 -2 -104 21 -3 21 1 22 61 22 55
0 65 -3 70 -19z m-3590 -232 c4 -127 4 -235 1 -240 -3 -5 -23 -9 -45 -9 l-39
0 0 240 0 240 38 0 39 0 6 -231z m-374 164 c17 -18 29 -40 28 -53 l-1 -22 -18
24 c-10 12 -24 30 -30 38 -7 8 -11 17 -8 20 3 3 -10 6 -28 8 -28 3 -34 -1 -46
-29 -9 -23 -16 -28 -21 -18 -5 7 -4 14 3 17 7 2 12 8 12 14 0 17 32 36 56 33
13 -1 36 -16 53 -32z m1345 18 c30 -5 55 -16 63 -27 11 -15 14 -83 12 -359 -2
-332 -1 -341 21 -399 28 -73 87 -139 167 -185 83 -49 95 -61 82 -78 -17 -20
-37 -16 -98 18 -89 50 -126 84 -158 146 -55 103 -57 118 -54 489 l3 342 -23
16 c-35 24 -423 24 -458 0 l-24 -17 5 -311 c3 -171 1 -337 -4 -369 -22 -144
-79 -224 -212 -297 -141 -77 -166 -143 -107 -278 36 -82 47 -143 62 -342 14
-175 17 -1027 5 -1272 -8 -153 -9 -158 -30 -158 l-21 0 0 658 c0 829 -9 946
-86 1105 -46 95 -50 144 -16 198 28 45 74 84 157 134 116 70 179 144 205 240
5 17 7 181 6 365 -3 385 -6 370 80 381 78 9 366 9 423 0z m1869 -19 c22 -22
22 -24 27 -475 5 -434 6 -454 26 -498 29 -63 65 -94 159 -138 170 -80 186
-125 200 -568 l6 -201 -26 -56 -26 -55 6 -378 c6 -341 8 -383 26 -425 15 -36
19 -71 19 -158 l0 -111 -32 3 -33 3 -5 85 c-4 58 -12 99 -27 130 -21 44 -22
56 -23 464 l-1 418 27 45 26 44 -4 262 c-4 225 -7 270 -23 317 -27 75 -76 122
-158 149 -79 26 -111 50 -136 100 -36 69 -41 142 -41 576 0 348 -2 425 -14
441 -13 18 -28 19 -231 19 -203 0 -218 -1 -231 -19 -12 -16 -14 -92 -14 -435
0 -418 -6 -515 -37 -575 -28 -56 -41 -66 -74 -54 -36 12 -36 18 -3 47 14 12
35 43 47 69 21 46 22 60 24 477 2 237 5 444 8 461 10 57 40 63 318 60 189 -2
199 -3 220 -24z m752 9 c-15 -15 -115 -26 -115 -13 0 6 21 13 48 15 26 2 54 4
62 5 9 1 10 -1 5 -7z m-4192 -59 c8 -7 29 -14 46 -14 18 -1 28 -5 24 -11 -3
-6 -1 -7 5 -3 7 4 12 15 12 24 0 15 2 15 10 2 13 -20 13 -33 0 -25 -18 11 -11
-15 11 -38 19 -20 20 -21 13 -2 -9 25 -7 23 51 -49 35 -44 44 -61 35 -70 -8
-8 -10 -7 -4 7 5 13 2 16 -10 11 -12 -5 -15 -2 -9 12 5 13 3 16 -10 11 -12 -4
-14 -2 -10 10 4 10 2 14 -4 10 -6 -4 -17 1 -24 11 -13 15 -12 16 4 3 9 -7 17
-9 17 -3 0 13 -25 33 -33 25 -4 -3 -16 6 -28 20 -11 15 -29 27 -40 27 -11 0
-17 5 -14 10 3 6 1 10 -4 10 -7 0 -11 -28 -11 -74 0 -58 4 -78 20 -99 11 -14
20 -29 19 -34 -4 -21 2 -43 11 -43 7 0 7 7 0 23 -11 21 -11 21 4 3 11 -14 13
-23 5 -30 -14 -15 -48 30 -42 58 3 17 1 16 -8 -4 -8 -18 -9 -140 -5 -445 6
-410 6 -421 -14 -450 l-20 -30 -1 400 c0 220 -4 409 -8 419 -7 19 -8 19 -16 0
-4 -10 -10 -26 -13 -34 -3 -8 -8 -204 -12 -435 -3 -231 -7 -421 -8 -422 -1 -2
-6 -3 -12 -3 -6 0 -10 36 -10 89 0 50 -4 92 -8 95 -5 3 -18 2 -30 -1 -19 -5
-22 -12 -22 -59 0 -29 5 -88 11 -130 11 -68 10 -79 -5 -89 -9 -7 -16 -17 -16
-23 0 -18 -36 -32 -83 -32 -67 0 -72 12 -53 117 8 49 16 115 18 148 2 55 0 60
-23 66 -49 14 -49 15 -49 -94 0 -124 6 -113 -166 -283 -103 -101 -127 -130
-158 -195 -40 -84 -56 -153 -56 -239 0 -32 16 -214 36 -406 37 -368 56 -754
36 -754 -6 0 -13 -10 -15 -22 -2 -13 -5 27 -6 87 -2 159 -17 353 -56 746 -31
302 -34 357 -24 424 22 158 74 245 250 416 l129 126 0 116 0 116 55 -6 c38 -4
55 -2 55 6 0 11 -32 16 -82 12 l-28 -2 0 81 0 81 34 -6 c39 -8 76 1 76 17 0 7
-19 9 -55 5 l-55 -6 0 85 c0 83 -1 85 -22 82 l-23 -3 -5 -281 -5 -282 -136
-133 c-142 -140 -179 -194 -225 -329 -26 -74 -24 -255 4 -500 36 -314 52 -528
52 -702 l0 -168 -29 0 c-17 0 -31 6 -35 16 -3 9 -6 87 -6 173 0 87 -12 319
-26 517 -14 197 -26 422 -26 499 -1 126 1 148 25 220 38 114 92 189 227 317
66 62 124 123 129 138 6 14 11 145 13 291 3 224 1 269 -12 284 -8 11 -10 16
-3 12 7 -5 12 -1 12 10 -1 10 2 41 6 70 8 56 0 97 -14 74 -5 -7 -19 -18 -32
-24 -13 -7 -26 -23 -30 -37 -6 -22 -7 -23 -8 -4 -1 26 25 60 59 77 l25 13 5
190 c5 201 9 218 53 227 12 3 103 4 203 4 133 -2 185 -5 197 -15z m4177 8
c-36 -11 -112 -11 -85 0 11 5 40 8 65 8 37 0 41 -1 20 -8z m963 -8 c14 -12 16
-53 20 -305 3 -248 7 -309 26 -407 21 -112 21 -119 6 -250 -10 -93 -12 -145
-5 -168 6 -22 47 -73 113 -141 70 -73 114 -127 133 -167 l29 -59 0 -290 c0
-159 -4 -451 -9 -647 l-9 -358 28 -61 c25 -56 26 -67 19 -128 -9 -64 -10 -66
-38 -66 l-30 0 3 68 c2 61 -1 72 -25 104 l-27 36 7 221 c3 121 13 336 21 476
19 330 19 562 1 622 -17 58 -61 122 -154 222 -112 122 -107 104 -108 371 -3
505 -15 869 -30 893 -14 22 -18 22 -211 22 -169 0 -199 -2 -215 -17 -16 -15
-18 -36 -18 -246 0 -133 -7 -303 -16 -403 -13 -138 -14 -197 -6 -297 12 -141
5 -194 -34 -244 -29 -38 -40 -41 -47 -12 -3 12 4 34 20 57 27 40 27 18 7 287
-5 63 0 112 21 230 26 143 27 160 22 377 -4 147 -3 238 4 257 13 38 22 39 285
37 151 -1 205 -4 217 -14z m-3913 4 c0 -2 -9 -6 -20 -9 -11 -3 -18 -1 -14 4 5
9 34 13 34 5z m1347 -12 c46 -9 47 -21 53 -523 l6 -474 28 -22 c15 -12 60 -34
99 -50 99 -38 145 -66 204 -126 63 -63 107 -151 129 -260 21 -106 16 -344 -21
-874 -14 -203 -28 -452 -33 -553 -8 -197 -11 -205 -62 -200 l-25 3 3 185 c4
189 24 445 68 835 35 316 40 443 20 535 -38 177 -136 298 -336 412 l-115 66
-5 501 c-4 431 -7 503 -20 511 -28 18 -97 22 -298 18 -177 -3 -203 -5 -219
-21 -17 -17 -18 -51 -18 -505 0 -268 -3 -492 -8 -499 -4 -6 -57 -40 -118 -75
-182 -103 -272 -205 -322 -363 -31 -100 -28 -240 16 -645 43 -397 54 -524 63
-767 l7 -183 -36 0 c-20 0 -39 4 -42 10 -3 5 -10 101 -16 212 -5 112 -20 367
-34 568 -47 709 -46 798 17 948 46 111 116 181 237 238 159 74 165 78 177 102
8 16 14 172 19 492 6 359 10 474 20 487 12 16 36 19 187 23 177 5 335 3 375
-6z m-1137 -19 c0 -18 -24 -24 -82 -23 -38 1 -48 5 -48 18 0 24 3 25 69 22 43
-3 61 -8 61 -17z m1830 -5 c0 -18 -7 -20 -60 -20 -53 0 -60 2 -60 20 0 18 7
20 60 20 53 0 60 -2 60 -20z m1808 -39 l3 -31 -186 0 -186 0 3 27 c4 36 17 38
206 36 l157 -1 3 -31z m-885 10 c7 -28 1 -31 -70 -31 -61 0 -63 1 -63 25 0 24
2 25 64 25 55 0 64 -3 69 -19z m-1652 -13 c3 -34 0 -80 -6 -86 -4 -4 -14 -7
-23 -7 -13 0 -18 -11 -21 -45 l-5 -45 -5 45 -6 45 -107 2 -108 1 0 -51 c-1
-42 -3 -48 -11 -34 -6 10 -9 34 -7 52 l4 33 -66 0 c-36 1 -73 1 -82 1 -15 1
-18 10 -18 51 l0 50 230 0 c177 0 230 -3 231 -12z m-1091 -7 c-25 -15 -110
-25 -110 -13 0 12 28 19 85 20 27 1 35 -1 25 -7z m1818 0 c14 -8 -37 -21 -85
-21 -35 0 -27 18 10 23 57 7 62 7 75 -2z m-1819 -45 c-8 -8 -134 -19 -127 -11
4 4 33 11 65 14 56 7 71 6 62 -3z m1806 -6 c-46 -12 -103 -12 -85 0 8 5 38 9
65 9 44 -1 46 -2 20 -9z m935 -5 c0 -12 -14 -15 -65 -15 -51 0 -65 3 -65 15 0
12 14 15 65 15 51 0 65 -3 65 -15z m-2750 -60 c0 -24 -2 -25 -65 -25 -63 0
-65 1 -65 25 0 24 2 25 65 25 63 0 65 -1 65 -25z m717 -27 c-2 -13 -4 -5 -4
17 -1 22 1 32 4 23 2 -10 2 -28 0 -40z m153 12 c0 -22 -4 -40 -10 -40 -5 0
-10 18 -10 40 0 22 5 40 10 40 6 0 10 -18 10 -40z m40 -2 c0 -25 -4 -38 -9
-32 -8 8 -4 74 5 74 2 0 4 -19 4 -42z m50 1 c0 -24 -4 -38 -10 -34 -17 10 -11
75 7 75 2 0 3 -18 3 -41z m50 -6 c0 -13 -4 -23 -10 -23 -5 0 -10 17 -10 38 0
27 3 33 10 22 5 -8 10 -25 10 -37z m545 0 c2 -21 5 -43 7 -49 1 -7 -1 -13 -6
-13 -5 -1 -11 25 -13 56 -3 32 -2 55 2 51 4 -4 9 -24 10 -45z m273 20 c3 -22
0 -23 -57 -23 -59 0 -61 1 -61 25 0 25 2 26 58 23 50 -3 57 -6 60 -25z m-1148
-12 c0 -17 -4 -33 -10 -36 -6 -4 -10 8 -10 29 0 20 5 36 10 36 6 0 10 -13 10
-29z m90 -11 c0 -22 -2 -40 -4 -40 -2 0 -6 18 -8 40 -2 22 0 40 4 40 5 0 8
-18 8 -40z m2727 20 c4 -14 14 -20 32 -20 14 0 41 -4 59 -9 20 -6 32 -6 32 0
0 5 7 9 15 9 8 0 15 -8 15 -17 0 -16 -15 -18 -140 -21 -136 -4 -140 -3 -140
17 0 19 6 21 60 21 45 0 60 3 60 14 0 8 -8 17 -17 19 -16 4 -16 5 0 6 11 1 21
-7 24 -19z m-989 -1 c-2 -8 46 -12 167 -13 94 -1 176 -5 183 -10 15 -9 16 -33
1 -41 -6 -4 -9 0 -7 11 3 17 -3 18 -52 14 -57 -5 -160 -4 -265 4 -33 2 -66 -1
-73 -6 -9 -8 -11 -7 -6 6 3 9 15 16 25 16 12 0 16 5 13 15 -4 8 -1 15 5 15 6
0 10 -5 9 -11z m329 5 c-3 -3 -12 -4 -19 -1 -8 3 -5 6 6 6 11 1 17 -2 13 -5z
m501 -36 c12 1 22 -3 22 -8 0 -6 -13 -10 -29 -10 -16 0 -36 -3 -45 -6 -12 -4
-16 0 -16 16 0 18 4 20 23 14 12 -4 32 -7 45 -6z m-3338 -28 c0 -6 -28 -10
-65 -10 -37 0 -65 4 -65 10 0 6 28 10 65 10 37 0 65 -4 65 -10z m1828 -8 c2
-8 -16 -12 -57 -12 -47 0 -61 3 -61 15 0 11 12 14 57 11 32 -2 59 -8 61 -14z
m-888 -4 c0 -4 -6 -8 -14 -8 -7 0 -34 -3 -60 -6 -30 -5 -46 -3 -46 4 0 6 21
12 48 14 26 2 53 3 60 4 6 0 12 -3 12 -8z m1573 -5 c-7 -2 -19 -2 -25 0 -7 3
-2 5 12 5 14 0 19 -2 13 -5z m318 -23 c4 21 7 -24 7 -110 0 -80 2 -181 4 -225
4 -47 3 -60 -1 -30 -7 49 -7 50 -13 15 -3 -19 -4 43 -1 139 4 124 2 171 -6
167 -7 -5 -10 7 -9 36 1 42 1 42 6 8 l5 -35 8 35z m666 -32 c-2 -13 -4 -3 -4
22 0 25 2 35 4 23 2 -13 2 -33 0 -45z m-991 12 c-1 -31 -11 -40 -19 -17 -5 16
3 47 13 47 4 0 7 -13 6 -30z m-1596 -2 c-62 -9 -105 -10 -96 -1 9 10 118 21
131 14 6 -3 -10 -9 -35 -13z m2527 -20 c-3 -7 -5 -2 -5 12 0 14 2 19 5 13 2
-7 2 -19 0 -25z m39 2 c-1 -39 -16 -39 -16 0 0 17 4 30 9 30 4 0 8 -13 7 -30z
m-3502 -2 c10 -14 16 -44 16 -81 l0 -58 -57 3 -57 3 -1 50 c0 49 10 83 30 97
20 15 54 8 69 -14z m1849 15 c4 -3 -1 -12 -11 -20 -14 -12 -14 -14 -1 -10 9 3
22 2 29 -3 18 -11 5 -41 -15 -34 -14 6 -15 -7 -13 -107 2 -93 6 -114 18 -114
23 0 24 -32 1 -38 -14 -3 -18 -11 -14 -26 3 -12 11 -21 18 -21 7 0 15 -7 19
-15 7 -19 46 -20 46 -1 0 7 9 16 20 19 18 5 20 0 20 -48 0 -84 20 -206 42
-256 27 -65 62 -94 159 -134 140 -59 149 -84 156 -420 l5 -240 -26 -49 c-17
-31 -26 -65 -26 -93 l0 -43 -57 2 c-57 3 -58 2 -55 -22 2 -14 7 -29 12 -35 4
-5 2 -136 -5 -290 -7 -154 -9 -284 -5 -288 9 -10 37 -11 78 -2 30 7 32 6 32
-21 0 -29 -1 -29 -57 -29 -57 0 -57 0 -57 -30 0 -30 0 -30 57 -29 53 1 57 0
57 -21 0 -12 11 -43 25 -69 21 -39 25 -61 25 -127 0 -72 -2 -79 -20 -79 -15 0
-20 7 -20 26 0 22 -3 25 -22 20 -13 -3 -31 -6 -40 -6 -12 0 -18 -8 -18 -23 0
-23 -3 -24 -110 -30 -61 -4 -168 -14 -238 -22 -70 -8 -139 -17 -154 -18 l-28
-4 0 109 0 108 40 0 c38 0 40 2 40 30 0 28 -3 30 -35 30 -33 0 -35 2 -35 35
l0 35 78 0 c42 1 140 2 217 3 l140 2 0 30 0 30 -155 -3 c-181 -3 -211 2 -199
36 8 22 11 22 177 22 l169 0 7 46 c8 61 8 299 0 397 l-7 77 -183 0 c-105 0
-184 4 -184 9 0 40 7 41 190 41 l178 0 4 30 5 30 -156 0 c-191 0 -231 6 -231
31 0 15 7 19 35 19 21 0 37 6 43 16 8 15 36 18 193 21 101 2 190 6 197 8 6 3
12 16 12 30 l0 26 -72 -5 c-40 -3 -130 -8 -200 -11 l-128 -6 0 26 c0 22 -4 25
-34 25 l-33 0 -6 163 c-4 126 -10 180 -27 242 -13 44 -23 88 -24 97 0 9 -5 14
-10 11 -5 -4 -7 1 -3 11 4 10 3 15 -3 11 -6 -3 -10 -3 -10 2 0 4 -14 24 -30
43 -35 41 -37 50 -11 50 37 0 29 15 -26 53 -40 26 -60 34 -68 27 -13 -11 -45
-4 -45 10 0 4 6 13 14 19 39 32 76 188 76 316 0 48 2 53 20 48 10 -3 18 -10
17 -17 -3 -18 72 -20 79 -2 3 9 12 16 20 16 8 0 14 10 14 25 0 16 -6 25 -16
25 -9 0 -14 7 -12 16 2 8 7 14 13 14 17 -2 24 34 24 134 1 92 0 98 -18 93 -12
-3 -22 1 -25 10 -4 9 1 17 13 20 11 3 21 13 24 24 4 16 14 19 59 19 30 0 58
-3 61 -7z m-863 -44 c0 -5 -34 -9 -75 -9 -91 0 -101 18 -12 22 68 3 87 0 87
-13z m624 -12 c-9 -23 -34 -15 -34 10 0 20 3 22 20 13 10 -6 17 -16 14 -23z
m356 4 c0 -24 -34 -22 -38 2 -2 12 3 17 17 17 14 0 21 -6 21 -19z m1506 4 c-3
-23 -12 -26 -13 -5 -1 11 2 20 7 20 4 0 7 -7 6 -15z m58 0 c-4 -8 -8 -15 -10
-15 -2 0 -4 7 -4 15 0 8 4 15 10 15 5 0 7 -7 4 -15z m-764 -6 c0 -5 -4 -8 -9
-5 -5 4 -11 0 -14 -6 -2 -7 -8 -10 -12 -6 -4 4 -4 11 0 17 8 14 35 14 35 0z
m0 -29 c0 -5 -5 -10 -11 -10 -5 0 -7 5 -4 10 3 6 8 10 11 10 2 0 4 -4 4 -10z
m-3437 -257 c6 -228 4 -259 -10 -275 -12 -14 -19 -15 -30 -7 -10 9 -13 8 -13
-5 0 -12 -47 -108 -66 -134 -2 -3 -28 -9 -46 -11 -5 -1 -8 -8 -8 -16 0 -8 3
-14 8 -14 34 6 52 -3 52 -24 0 -13 20 -63 44 -112 46 -94 66 -183 66 -290 l0
-56 -30 5 c-26 4 -30 1 -30 -20 l0 -24 -157 -2 c-333 -6 -333 -6 -354 21 -26
32 -34 21 -16 -22 l15 -35 253 -1 c150 -1 258 -6 263 -11 6 -6 23 -10 38 -10
21 0 28 -5 28 -20 0 -21 -41 -23 -497 -25 -29 0 -57 -5 -63 -11 -7 -7 -9 -164
-8 -500 l3 -489 287 -3 287 -2 -6 -128 c-3 -70 -6 -128 -7 -128 0 -1 -124 -4
-273 -6 -257 -4 -273 -3 -273 14 0 13 -8 18 -30 18 -23 0 -30 -4 -30 -20 0
-12 -7 -20 -17 -20 -17 0 -18 37 -18 632 l0 633 -39 85 c-50 106 -57 178 -28
262 28 78 70 136 184 255 54 55 106 118 114 140 20 47 38 335 31 501 l-4 112
187 0 187 0 6 -257z m3414 204 c-4 -18 -4 -18 -6 6 0 15 -6 27 -12 27 -5 0 -7
5 -3 11 10 17 26 -17 21 -44z m923 18 l0 -25 -179 0 c-180 0 -199 4 -187 35 4
12 37 15 186 15 l180 0 0 -25z m-1147 -274 c-1 -2 -3 7 -3 22 0 14 -3 27 -7
29 -5 2 -6 57 -4 123 l5 120 6 -145 c4 -80 5 -147 3 -149z m14 192 c-2 -21 -4
-6 -4 32 0 39 2 55 4 38 2 -18 2 -50 0 -70z m-1569 75 c7 -7 12 -27 12 -44 0
-26 4 -33 23 -36 32 -4 33 -56 1 -64 -12 -3 -24 -13 -27 -23 -3 -14 -14 -17
-56 -16 -76 3 -81 4 -81 19 0 7 -9 16 -20 19 -14 3 -20 14 -20 32 0 18 6 29
20 32 11 3 20 12 20 19 0 8 5 14 10 14 6 0 10 8 8 17 -6 33 83 58 110 31z
m1759 -165 c-2 -32 -3 -6 -3 57 0 63 1 89 3 58 2 -32 2 -84 0 -115z m-2754 95
c3 -7 6 -3 6 10 1 12 7 22 15 22 10 0 17 -15 20 -47 3 -27 11 -79 17 -118 22
-131 22 -134 6 -150 -9 -8 -20 -15 -26 -15 -6 0 -11 -5 -11 -11 0 -16 -88 -5
-105 12 -7 8 -16 34 -19 59 -4 31 -3 39 3 25 9 -19 10 -18 11 5 1 14 5 51 9
83 4 31 4 57 0 57 -5 0 -10 -24 -12 -52 l-3 -53 -2 58 c-2 45 1 57 13 57 11 0
15 11 15 39 0 22 5 41 13 44 15 5 44 -9 50 -25z m3363 -50 c-3 -38 -9 -123
-13 -188 -5 -91 -9 -120 -20 -120 -17 0 -17 70 -1 251 10 112 14 136 26 131
12 -4 13 -19 8 -74z m339 -64 c20 -184 20 -244 0 -244 -10 0 -15 11 -16 33 0
17 -6 103 -12 189 -9 108 -9 159 -2 162 5 2 11 2 13 1 1 -1 9 -65 17 -141z
m-160 100 c31 -29 49 -106 62 -262 6 -79 5 -83 -15 -89 -12 -3 -22 -10 -22
-15 0 -6 7 -8 15 -4 13 5 15 -12 15 -115 0 -119 0 -120 -22 -117 -18 2 -24 12
-30 43 -11 63 -9 170 3 182 6 6 8 16 5 22 -9 14 -66 14 -86 1 -13 -9 -12 -12
5 -25 15 -12 19 -26 17 -63 -1 -34 1 -42 7 -27 7 16 10 11 13 -25 l5 -45 1 53
c1 33 -2 51 -8 47 -5 -3 -10 -1 -10 4 0 6 5 11 10 11 6 0 11 10 12 23 0 12 4
-23 8 -78 4 -55 11 -108 15 -117 4 -11 3 -18 -4 -18 -6 0 -11 7 -11 15 0 8 -5
15 -10 15 -6 0 -10 -8 -8 -17 4 -23 -34 -30 -51 -10 -8 10 -12 89 -14 258 -2
215 0 250 16 297 16 44 39 82 51 82 2 0 16 -12 31 -26z m-755 -61 c-11 -17
-11 -17 -6 0 3 10 7 33 8 50 l1 32 4 -32 c2 -18 -1 -41 -7 -50z m-2974 -22
c-8 -106 -35 -195 -82 -268 -35 -56 -81 -93 -187 -153 -93 -54 -97 -66 -54
-175 19 -50 40 -125 46 -169 25 -175 33 -492 29 -1029 -4 -491 -6 -550 -21
-564 -15 -16 -16 21 -10 508 6 539 -4 908 -31 1086 -8 52 -26 118 -45 160 -17
39 -31 81 -31 93 0 41 33 78 109 121 90 51 153 107 188 166 33 58 63 173 63
251 0 51 3 62 16 62 15 0 16 -10 10 -89z m359 2 c4 -49 8 -100 9 -115 1 -14 4
-24 9 -21 4 2 7 -2 7 -9 0 -22 51 -111 84 -147 17 -18 58 -51 91 -72 46 -29
55 -40 42 -45 -10 -3 -36 5 -64 22 -126 73 -193 198 -209 392 -5 69 -4 82 8
82 12 0 17 -20 23 -87z m565 53 c0 -27 -4 -34 -17 -32 -12 2 -19 13 -21 34 -3
27 0 32 17 32 17 0 21 -6 21 -34z m418 2 c-2 -22 -9 -34 -20 -36 -15 -3 -18 4
-18 32 0 30 4 36 21 36 17 0 20 -5 17 -32z m1409 -50 c-3 -8 -6 -5 -6 6 -1 11
2 17 5 13 3 -3 4 -12 1 -19z m-922 -18 c0 -8 -8 -16 -17 -18 -13 -2 -18 3 -18
18 0 15 5 20 18 18 9 -2 17 -10 17 -18z m355 0 c0 -13 -7 -20 -20 -20 -25 0
-27 27 -2 33 9 3 18 5 20 6 1 0 2 -8 2 -19z m800 -130 l-11 -25 6 25 c2 14 6
50 7 80 l2 55 3 -55 c2 -31 -1 -67 -7 -80z m-2055 -114 l0 -208 -30 -26 c-16
-14 -29 -30 -27 -35 1 -4 -2 -6 -7 -3 -5 4 -12 2 -15 -3 -4 -5 -27 -19 -54
-32 -114 -54 -240 -160 -276 -232 -17 -33 -18 -40 -5 -48 11 -8 10 -9 -5 -7
-14 2 -22 -5 -28 -27 -4 -16 -6 -38 -4 -48 2 -9 1 -15 -4 -12 -4 2 -10 -23
-14 -57 -8 -81 -8 -120 2 -115 4 3 8 -29 9 -71 0 -41 6 -119 12 -171 57 -493
72 -674 77 -918 4 -218 4 -223 -16 -223 -19 0 -20 7 -20 108 0 183 -19 432
-62 832 -61 572 -56 661 43 809 53 79 110 127 236 197 157 88 147 69 151 305
3 182 5 200 20 197 15 -3 17 -24 17 -212z m306 29 c4 -99 10 -203 14 -232 6
-44 5 -52 -11 -61 -54 -28 -201 -24 -231 6 -13 13 -15 32 -9 107 3 49 9 146
12 215 3 69 8 131 10 138 3 10 28 13 106 10 l103 -3 6 -180z m105 -10 c0 -127
4 -197 12 -212 7 -12 71 -57 143 -100 195 -116 270 -207 305 -371 18 -89 17
-152 -6 -377 -56 -533 -70 -688 -80 -885 -5 -118 -10 -239 -10 -267 0 -38 -4
-53 -14 -53 -16 0 -26 62 -26 165 0 56 -4 74 -15 79 -24 9 -20 92 5 106 24 13
28 60 5 60 -21 0 -19 31 3 37 16 4 20 25 31 164 7 88 21 235 31 327 49 425 60
655 30 637 -4 -3 -6 3 -3 13 4 19 -50 152 -62 152 -3 0 -3 -5 1 -12 4 -7 3 -8
-5 -4 -6 4 -9 11 -6 16 16 26 -164 174 -199 165 -15 -5 -17 -4 -7 3 11 8 10
11 -7 16 -11 4 -37 18 -57 32 -20 13 -42 21 -48 18 -7 -4 -9 -4 -5 1 9 9 -9
35 -24 35 -6 0 -5 -7 2 -15 9 -10 9 -15 1 -15 -6 0 -12 6 -12 13 -1 6 -2 17
-4 22 -1 6 -3 15 -4 20 -1 6 -6 3 -11 -5 -7 -11 -9 -5 -5 20 4 27 3 30 -4 15
-7 -15 -8 -6 -5 30 2 28 7 121 10 208 5 139 8 158 23 155 14 -3 16 -25 17
-193z m1596 -38 c2 -59 0 -107 -4 -107 -5 0 -7 73 -6 163 2 163 5 144 10 -56z
m-215 171 c-3 -7 -5 -2 -5 12 0 14 2 19 5 13 2 -7 2 -19 0 -25z m378 -73 c-3
-31 -9 -54 -12 -51 -3 3 -2 30 2 61 3 31 9 54 12 51 3 -3 2 -30 -2 -61z m-383
-7 c2 -21 0 -34 -6 -31 -6 4 -7 -19 -4 -58 3 -35 3 -54 1 -41 -2 12 -8 22 -11
22 -4 0 -3 37 2 82 10 84 12 87 18 26z m15 15 c-3 -10 -5 -4 -5 12 0 17 2 24
5 18 2 -7 2 -21 0 -30z m230 -25 c-2 -13 -4 -3 -4 22 0 25 2 35 4 23 2 -13 2
-33 0 -45z m40 -10 c-3 -8 -6 -5 -6 6 -1 11 2 17 5 13 3 -3 4 -12 1 -19z
m-2912 2 c3 -5 1 -10 -4 -10 -6 0 -11 5 -11 10 0 6 2 10 4 10 3 0 8 -4 11 -10z
m3015 -60 l-11 -25 6 25 c2 14 5 36 6 50 l2 25 4 -25 c2 -14 -1 -37 -7 -50z
m-4979 37 c91 -48 138 -184 90 -263 -10 -17 -56 -64 -102 -105 -135 -119 -177
-167 -214 -243 -79 -162 -94 -305 -71 -682 16 -254 15 -370 -5 -419 -5 -14 -8
-5 -8 31 -1 68 -32 236 -80 429 -68 277 -85 377 -85 515 0 106 4 134 23 183
44 113 102 155 253 188 161 34 221 81 220 171 -1 44 -20 71 -65 95 -51 26
-117 -7 -117 -59 0 -24 38 -61 56 -54 20 8 17 -14 -3 -30 -24 -18 -77 -17
-111 0 -92 48 -61 211 48 255 46 18 124 13 171 -12z m6263 -10 c45 -35 66 -75
66 -126 0 -74 -41 -121 -104 -121 -37 0 -76 18 -76 34 0 9 6 13 14 10 8 -3 24
4 36 16 26 26 21 65 -12 93 -60 51 -148 -20 -136 -111 11 -81 69 -127 193
-152 79 -16 118 -33 167 -72 82 -65 116 -203 97 -394 -10 -99 -24 -167 -115
-559 -24 -104 -39 -198 -43 -270 l-6 -110 -23 59 c-42 108 -47 193 -27 479 36
514 10 640 -166 822 -117 122 -149 173 -149 242 0 78 38 143 105 182 11 6 47
10 81 8 49 -2 69 -9 98 -30z m-3397 1 c-3 -8 -6 -5 -6 6 -1 11 2 17 5 13 3 -3
4 -12 1 -19z m1990 -10 c-3 -7 -5 -2 -5 12 0 14 2 19 5 13 2 -7 2 -19 0 -25z
m19 -44 c-3 -8 -11 -14 -18 -13 -10 0 -10 2 0 6 6 2 13 17 13 31 1 18 3 21 6
9 3 -10 2 -25 -1 -33z m121 -11 c-3 -10 -5 -4 -5 12 0 17 2 24 5 18 2 -7 2
-21 0 -30z m-2806 -3 l58 0 85 -77 c81 -73 84 -77 65 -91 -15 -10 -23 -11 -34
-2 -8 7 -15 7 -19 1 -3 -5 0 -12 6 -15 7 -2 4 -4 -7 -4 -38 2 -55 -2 -55 -13
0 -6 9 -8 20 -4 24 8 26 -7 4 -26 -10 -8 -65 -14 -175 -17 -154 -4 -161 -4
-180 17 -11 11 -27 21 -37 21 -15 0 -15 2 -2 10 15 10 8 14 -20 11 -10 -1 -16
7 -17 21 -3 51 7 66 59 92 29 14 48 26 42 26 -5 0 -2 5 6 10 8 5 20 10 25 10
6 0 3 -4 -5 -10 -8 -5 -11 -12 -8 -15 4 -4 13 -3 20 1 14 9 16 9 108 14 60 3
57 3 -45 12 -60 5 -111 11 -113 13 -2 2 -1 9 3 16 6 8 29 10 83 5 41 -3 101
-6 133 -6z m3211 -14 c8 5 9 -21 5 -87 -3 -53 -2 -81 3 -64 l8 30 1 -32 c0
-18 -4 -33 -10 -33 -7 0 -9 -10 -5 -27 5 -21 4 -24 -4 -13 -7 11 -10 6 -10
-22 0 -20 -4 -39 -8 -42 -5 -3 -5 20 0 52 6 31 8 104 5 162 -3 58 -3 97 0 87
2 -9 9 -14 15 -11z m363 -115 l1 -128 36 -49 c20 -27 45 -58 56 -68 12 -10 18
-24 15 -32 -5 -12 -9 -12 -25 3 -27 24 -66 79 -49 68 9 -5 12 -3 9 6 -3 8 -12
13 -19 11 -8 -2 -11 -1 -7 3 4 4 1 14 -7 22 -8 8 -15 31 -15 51 0 27 -3 33
-10 22 -6 -9 -8 15 -6 70 2 47 4 103 5 124 0 22 4 36 8 33 4 -4 7 -65 8 -136z
m-1198 97 c-3 -7 -5 -2 -5 12 0 14 2 19 5 13 2 -7 2 -19 0 -25z m-2672 2 c-27
-12 -43 -12 -25 0 8 5 22 9 30 9 10 0 8 -3 -5 -9z m2983 -4 c-7 -8 -15 -12
-17 -11 -5 6 10 25 20 25 5 0 4 -6 -3 -14z m126 -39 c7 -6 6 -7 -4 -4 -8 2
-16 16 -17 33 -1 25 0 26 4 4 3 -14 10 -29 17 -33z m3 21 c-3 -7 -5 -2 -5 12
0 14 2 19 5 13 2 -7 2 -19 0 -25z m-3042 12 c-3 -5 -12 -10 -18 -10 -7 0 -6 4
3 10 19 12 23 12 15 0z m2955 -19 c14 -27 13 -31 -8 -31 -27 0 -43 20 -29 36
16 18 25 17 37 -5z m-3000 5 c0 -2 -11 -6 -25 -8 -13 -3 -22 -1 -19 3 5 9 44
13 44 5z m2651 -5 c7 11 9 10 9 -3 0 -10 -7 -18 -15 -18 -8 0 -15 8 -14 18 0
12 2 13 6 3 5 -11 7 -11 14 0z m385 -156 c12 -55 36 -149 54 -210 18 -60 37
-128 42 -150 6 -22 14 -49 18 -60 14 -35 69 -276 90 -390 11 -60 26 -179 32
-262 l12 -153 72 0 72 0 7 -141 c4 -77 6 -142 4 -144 -7 -6 -272 -10 -541 -7
l-268 2 0 65 0 65 41 -6 c40 -7 41 -6 37 22 -3 25 -8 29 -39 32 -35 3 -37 5
-44 49 -4 27 -2 50 4 56 6 6 107 10 270 10 l261 0 0 51 c-1 28 -5 134 -10 236
-14 264 -31 327 -125 446 l-30 38 -1 165 c0 91 -6 195 -12 231 -6 36 -12 87
-12 113 0 44 2 48 21 45 19 -3 25 -17 45 -103z m-3206 9 c0 -2 -9 -4 -20 -4
-11 0 -20 4 -20 9 0 5 9 7 20 4 11 -3 20 -7 20 -9z m160 -14 c8 -5 11 -10 5
-10 -5 0 -17 5 -25 10 -8 5 -10 10 -5 10 6 0 17 -5 25 -10z m1270 6 c0 -2 -8
-10 -17 -17 -16 -13 -17 -12 -4 4 13 16 21 21 21 13z m-245 -36 c13 -6 15 -9
5 -9 -8 0 -22 4 -30 9 -18 12 -2 12 25 0z m62 -66 c-3 -3 -12 -4 -19 -1 -8 3
-5 6 6 6 11 1 17 -2 13 -5z m193 -11 c-8 -4 12 -13 46 -23 71 -19 184 -91 208
-131 10 -16 22 -26 28 -23 6 4 8 2 5 -3 -4 -6 -1 -29 7 -51 8 -21 17 -68 21
-103 7 -68 -6 -358 -30 -654 -22 -272 -34 -478 -41 -712 l-7 -212 -81 -26
c-45 -15 -124 -48 -177 -74 l-96 -48 -44 31 c-48 32 -89 72 -89 85 0 5 -10 11
-22 14 -13 3 -74 21 -135 40 l-113 34 0 -34 c0 -34 1 -34 33 -29 31 6 31 5 5
-5 -20 -7 -40 -6 -80 5 l-53 16 -1 297 c0 355 -23 669 -81 1093 -24 179 -5
278 66 353 47 49 132 91 166 83 18 -5 35 0 53 12 49 35 159 54 417 70 6 0 3
-2 -5 -5z m2165 -13 c3 -5 1 -10 -4 -10 -6 0 -11 5 -11 10 0 6 2 10 4 10 3 0
8 -4 11 -10z m-2775 -10 c0 -5 -5 -10 -11 -10 -5 0 -7 5 -4 10 3 6 8 10 11 10
2 0 4 -4 4 -10z m-623 -6 c-3 -3 -12 -4 -19 -1 -8 3 -5 6 6 6 11 1 17 -2 13
-5z m3377 -2 c3 -5 -1 -9 -9 -9 -8 0 -12 4 -9 9 3 4 7 8 9 8 2 0 6 -4 9 -8z
m-3306 -21 c-48 -4 -90 -9 -93 -13 -11 -11 62 -21 98 -14 23 4 28 3 17 -4 -8
-5 -25 -10 -37 -10 -13 0 -23 -4 -23 -10 0 -5 -7 -10 -15 -10 -8 0 -14 6 -12
13 1 6 -6 12 -15 11 -56 -2 -69 -5 -65 -11 3 -5 -16 -7 -42 -5 -35 3 -53 -1
-71 -16 -28 -23 -27 1 -21 -629 2 -242 4 -264 22 -287 10 -13 19 -32 19 -41 0
-9 4 -14 8 -11 5 3 8 -16 6 -42 -2 -26 -6 -126 -9 -222 -2 -96 -7 -188 -11
-205 -4 -23 -3 -26 5 -15 13 19 14 9 1 -25 -5 -14 -12 -45 -14 -70 -3 -35 0
-45 13 -48 11 -3 9 -5 -6 -6 -15 -1 -25 -9 -29 -26 -4 -16 -13 -25 -25 -25
-18 0 -19 9 -13 248 4 151 2 404 -7 652 -8 223 -14 488 -14 589 l0 184 28 21
c24 17 43 21 112 21 46 0 81 3 78 8 -2 4 42 6 99 5 l103 -1 -87 -6z m502 3 c0
-8 -19 -13 -24 -6 -3 5 1 9 9 9 8 0 15 -2 15 -3z m865 -24 c-3 -5 -12 -10 -18
-10 -7 0 -6 4 3 10 19 12 23 12 15 0z m2345 -17 c110 -50 186 -154 197 -269
l6 -66 54 5 c50 5 53 4 53 -16 0 -20 -5 -22 -57 -22 -51 0 -58 -2 -58 -20 0
-18 6 -20 58 -18 l57 2 0 -57 c0 -64 -27 -637 -36 -749 l-6 -72 -48 6 c-42 5
-49 3 -59 -16 -15 -27 1 -34 64 -29 41 3 45 1 45 -20 0 -21 -3 -22 -54 -16
-50 6 -53 5 -59 -17 -13 -47 -7 -91 19 -135 36 -61 25 -72 -52 -55 -32 7 -98
12 -148 10 -149 -4 -176 -2 -176 19 0 15 13 17 108 20 131 4 180 15 191 45 11
28 5 38 -16 30 -10 -4 -14 -2 -10 4 4 6 3 22 -3 35 -9 22 -9 21 -7 -7 2 -28
-1 -30 -33 -33 -19 -2 -58 -1 -87 3 -40 5 -54 11 -58 26 -5 16 -10 18 -21 8
-11 -9 -14 -8 -14 5 0 10 -4 14 -10 11 -5 -3 -10 1 -10 9 0 9 -7 16 -15 16 -8
0 -15 9 -15 20 0 22 -8 21 200 24 63 0 116 5 117 10 1 5 7 13 15 17 7 5 -61 9
-158 9 -194 0 -184 -5 -184 88 l0 42 40 0 c33 0 40 3 40 20 0 17 -7 20 -40 20
-23 0 -40 5 -40 11 0 9 45 11 168 7 151 -5 163 -4 123 8 -52 16 -185 34 -248
34 -24 0 -43 5 -43 10 0 6 18 10 40 10 22 0 40 5 40 10 0 6 -20 10 -45 10
l-45 0 0 45 c0 48 3 50 62 46 28 -2 68 29 68 52 -1 23 -26 45 -61 54 -35 9
-50 36 -31 55 13 13 62 2 62 -13 0 -6 -7 -8 -16 -5 -10 4 -14 1 -12 -6 7 -19
27 -21 34 -4 15 39 -51 62 -86 31 -16 -14 -19 -13 -34 19 -26 56 -21 72 23 67
7 -2 11 4 9 11 -3 7 -10 14 -16 14 -7 1 -19 2 -27 3 -8 0 -15 5 -15 9 0 5 51
10 113 11 101 2 252 22 265 36 3 3 -69 2 -159 -1 -97 -3 -180 -2 -204 4 -34 9
-36 10 -12 11 23 1 28 5 25 23 -2 16 -12 24 -32 28 -24 4 -31 12 -41 48 -7 23
-10 42 -7 42 3 0 1 5 -5 11 -8 8 -5 18 11 35 60 70 97 102 122 107 41 8 106
-24 134 -64 36 -53 49 -59 118 -59 55 0 63 2 60 18 -3 14 -14 17 -60 17 -32 1
-59 3 -60 5 -47 64 -66 83 -98 100 -76 39 -150 19 -217 -58 -35 -41 -52 -38
-34 7 23 54 105 111 160 111 11 0 22 9 26 20 3 11 13 20 21 20 8 0 14 5 14 10
0 6 5 10 11 10 5 0 7 -4 4 -10 -10 -16 2 -12 21 8 22 22 131 23 145 1 5 -8 9
-9 9 -4 0 20 -84 94 -130 114 -25 11 -63 21 -85 21 -56 0 -115 11 -115 21 0
27 196 21 260 -8z m-2230 11 c0 -3 -7 -12 -16 -21 -8 -9 -13 -21 -10 -29 3 -7
-3 -18 -12 -26 -11 -9 -14 -10 -8 0 4 7 2 12 -4 12 -7 0 -5 6 4 15 8 8 18 24
21 35 6 18 25 29 25 14z m2383 -31 c-5 -12 -2 -15 10 -10 8 3 20 0 27 -7 17
-21 -15 -28 -33 -8 -15 18 -20 55 -6 46 5 -2 5 -12 2 -21z m-4071 -10 c-13 -3
-19 -9 -16 -15 4 -7 2 -8 -5 -4 -17 11 -3 26 22 25 22 -2 22 -2 -1 -6z m748 3
c0 -3 -4 -8 -10 -11 -5 -3 -10 -1 -10 4 0 6 5 11 10 11 6 0 10 -2 10 -4z
m2548 -13 c2 -8 -5 -13 -17 -13 -21 0 -35 13 -24 24 10 10 36 3 41 -11z
m-2951 1 c-3 -3 -12 -4 -19 -1 -8 3 -5 6 6 6 11 1 17 -2 13 -5z m3808 -59 c21
-22 35 -50 39 -77 5 -32 9 -39 16 -28 8 12 10 11 10 -5 0 -11 3 -38 7 -59 4
-27 3 -37 -5 -32 -5 3 -13 0 -15 -6 -3 -7 -6 9 -6 35 -1 49 -22 103 -66 170
-32 47 -21 48 20 2z m-3817 3 c-2 -22 -5 -23 -86 -19 -47 2 -128 0 -180 -4
l-95 -7 6 -59 c7 -65 2 -89 -19 -89 -20 0 -20 153 0 169 20 17 116 28 253 30
122 1 123 1 121 -21z m269 0 c-3 -8 -6 -5 -6 6 -1 11 2 17 5 13 3 -3 4 -12 1
-19z m2717 -34 c4 -11 0 -15 -16 -12 -12 2 -23 9 -26 16 -6 18 35 15 42 -4z
m201 -34 l5 -35 -14 30 c-18 35 -21 64 -6 49 5 -5 12 -25 15 -44z m-3265 -11
c0 -5 -4 -9 -10 -9 -5 0 -10 7 -10 16 0 8 5 12 10 9 6 -3 10 -10 10 -16z m387
-1 c-3 -8 -6 -5 -6 6 -1 11 2 17 5 13 3 -3 4 -12 1 -19z m1140 -10 c-3 -7 -5
-2 -5 12 0 14 2 19 5 13 2 -7 2 -19 0 -25z m-3057 -2 c0 -23 -1 -24 -42 -14
-24 6 -50 17 -58 24 -12 12 -6 14 43 14 53 0 57 -1 57 -24z m4629 -56 c0 -11
-4 -10 -15 5 -8 11 -18 19 -22 18 -8 -3 -8 3 3 37 8 24 9 24 21 -10 7 -19 13
-42 13 -50z m-3053 19 c21 -8 25 -12 15 -19 -12 -7 -24 -7 -70 2 -3 1 -14 -2
-24 -7 -21 -9 -88 14 -95 33 -3 10 7 11 46 6 32 -4 52 -2 56 5 5 8 13 8 26 1
10 -5 31 -15 46 -21z m1399 21 c3 -5 1 -10 -4 -10 -6 0 -11 5 -11 10 0 6 2 10
4 10 3 0 8 -4 11 -10z m-3271 -16 c24 -9 19 -25 -18 -64 -39 -41 -61 -81 -71
-129 l-7 -33 58 6 c33 3 92 8 132 12 48 4 72 10 72 19 0 7 10 24 21 39 29 37
58 31 73 -14 10 -33 14 -35 59 -38 39 -3 47 -6 47 -23 0 -18 -9 -19 -177 -20
-228 -1 -287 -8 -291 -32 -3 -14 1 -18 15 -13 41 12 313 27 381 21 66 -6 72
-9 72 -29 0 -18 -8 -24 -37 -32 -23 -5 -39 -16 -41 -26 -3 -15 4 -18 37 -18
l41 0 0 -54 c0 -35 -5 -58 -15 -66 -8 -7 -15 -23 -15 -37 0 -13 7 -26 15 -29
22 -9 18 -31 -5 -37 -25 -7 -26 -27 -1 -34 12 -3 21 -17 25 -41 11 -71 10 -73
-34 -66 -34 6 -40 4 -40 -11 0 -14 7 -16 40 -13 l40 4 0 -37 0 -37 -82 -7
c-77 -6 -231 5 -335 24 -32 6 -43 5 -47 -6 -3 -7 0 -16 7 -18 43 -14 177 -25
306 -25 82 0 152 -4 155 -8 9 -15 -9 -28 -39 -28 l-30 0 -3 -107 c-2 -68 -7
-107 -14 -107 -5 0 -8 9 -5 19 2 10 1 25 -4 32 -15 24 -10 -35 6 -67 10 -21
14 -63 13 -149 0 -66 1 -127 3 -135 3 -12 -13 -15 -94 -18 l-98 -3 5 33 c14
82 47 407 45 438 -4 59 -14 70 -67 70 -26 0 -76 5 -112 10 -35 5 -65 8 -66 7
-1 -1 2 -117 7 -257 5 -140 6 -279 3 -307 -6 -50 -8 -53 -35 -53 l-29 0 0 173
c0 94 -3 236 -7 315 -6 141 -6 143 -32 155 -26 12 -26 15 -38 172 -6 88 -14
219 -18 290 l-7 131 24 11 c19 9 26 21 31 53 9 68 47 131 101 168 51 34 55 35
80 26z m1586 -88 c0 -2 -9 -6 -20 -9 -11 -3 -18 -1 -14 4 5 9 34 13 34 5z
m141 -6 c12 -7 19 -7 19 -1 0 5 12 8 28 7 26 -3 27 -6 27 -57 0 -52 -1 -54
-27 -54 -16 -1 -28 3 -28 8 0 5 -6 4 -14 -2 -19 -16 -46 -3 -57 26 -6 16 -15
23 -24 20 -9 -4 -12 -1 -8 9 7 18 19 18 27 -1 3 -8 11 -15 17 -15 8 0 8 4 -1
15 -13 15 -5 55 11 55 6 0 19 -5 30 -10z m126 -22 c-3 -8 -6 -5 -6 6 -1 11 2
17 5 13 3 -3 4 -12 1 -19z m-29 -23 c-3 -3 -9 2 -12 12 -6 14 -5 15 5 6 7 -7
10 -15 7 -18z m-195 -5 c-3 -12 -8 -19 -11 -16 -5 6 5 36 12 36 2 0 2 -9 -1
-20z m-29 -5 c3 -8 1 -15 -3 -15 -5 0 -11 7 -15 15 -3 8 -1 15 3 15 5 0 11 -7
15 -15z m31 -35 c3 -5 1 -10 -4 -10 -6 0 -11 5 -11 10 0 6 2 10 4 10 3 0 8 -4
11 -10z m-517 -59 c24 -15 -5 -16 -203 -11 -104 3 -197 4 -206 2 -22 -5 -29
-132 -29 -547 0 -294 2 -334 16 -339 9 -3 104 -6 212 -7 108 0 215 -4 237 -8
l40 -8 -55 -7 c-30 -4 -149 -5 -265 -3 l-210 4 2 109 c1 60 2 270 2 467 l1
357 223 0 c122 0 228 -4 235 -9z m443 -18 c8 -19 9 -91 4 -219 -4 -132 -3
-194 4 -198 6 -4 85 -8 176 -10 91 -1 168 -5 171 -9 4 -3 4 -14 0 -23 -6 -15
-22 -16 -166 -11 -100 4 -170 11 -186 19 l-27 13 -3 233 c-3 228 2 268 27 205z
m-388 10 c-7 -2 -19 -2 -25 0 -7 3 -2 5 12 5 14 0 19 -2 13 -5z m645 -20 c-2
-11 -22 -20 -63 -29 -75 -16 -75 -16 -75 -5 0 14 82 51 113 51 21 0 28 -4 25
-17z m423 -50 c-12 -20 -14 -14 -5 12 4 9 9 14 11 11 3 -2 0 -13 -6 -23z
m-443 -39 c21 -14 31 -44 13 -44 -5 0 -28 8 -52 19 -24 10 -53 22 -64 26 l-20
7 20 8 c25 11 72 3 103 -16z m-749 -49 c7 -8 -92 -4 -119 5 -15 5 1 6 44 4 39
-3 72 -7 75 -9z m757 -25 c40 -15 19 -27 -59 -33 -66 -5 -67 -4 -52 14 10 10
29 20 44 22 14 2 29 5 33 6 4 0 19 -4 34 -9z m-936 -25 c0 -8 -4 -15 -8 -15
-5 0 -9 7 -9 15 0 8 4 15 9 15 4 0 8 -7 8 -15z m41 -15 c6 0 7 5 4 10 -9 14 2
12 41 -6 29 -14 31 -18 19 -30 -7 -8 -18 -14 -24 -14 -15 0 -14 17 2 23 6 3
-5 6 -25 6 -33 1 -38 4 -37 24 1 16 2 18 6 5 2 -10 9 -18 14 -18z m2431 -2
c-8 -8 -9 -4 -5 13 4 13 8 18 11 10 2 -7 -1 -18 -6 -23z m-2225 -8 c-1 -21
-13 -27 -19 -9 -5 15 -74 -4 -70 -20 1 -6 -8 -12 -20 -12 -17 -1 -19 -2 -5 -6
9 -2 17 -11 17 -19 0 -13 -2 -13 -16 0 -8 9 -20 16 -25 16 -18 0 -8 19 14 26
12 4 24 10 27 14 4 6 64 25 92 29 4 1 6 -8 5 -19z m671 -11 c27 -9 49 -35 39
-46 -2 -2 -24 6 -48 17 -24 11 -54 20 -67 20 -13 0 -20 4 -17 10 8 13 54 13
93 -1z m2332 -14 c0 -22 -4 -25 -35 -22 -29 2 -35 6 -35 25 0 19 5 22 35 22
31 0 35 -3 35 -25z m-3035 5 c-3 -5 -14 -10 -23 -10 -15 0 -15 2 -2 10 20 13
33 13 25 0z m-211 -31 c4 6 26 10 49 9 l42 -1 -37 -4 c-21 -2 -38 -8 -38 -14
0 -5 -9 -9 -20 -9 -12 0 -20 7 -20 18 0 13 2 14 9 3 6 -9 11 -10 15 -2z m2473
-11 c-3 -8 -6 -5 -6 6 -1 11 2 17 5 13 3 -3 4 -12 1 -19z m1923 -62 c0 -39 -6
-30 -13 19 -4 27 -3 35 3 25 5 -8 10 -28 10 -44z m-3442 17 c2 -8 -6 -13 -22
-13 -15 0 -42 -7 -61 -14 -44 -19 -45 -5 -2 23 34 22 78 24 85 4z m3512 -18
c27 -8 36 -16 38 -37 4 -32 -22 -50 -55 -37 -26 10 -29 22 -9 38 10 8 16 9 21
1 3 -5 -2 -10 -11 -10 -14 0 -15 -3 -6 -12 16 -16 37 4 29 26 -9 23 -33 20
-51 -6 -16 -22 -16 -21 -16 20 0 32 3 41 13 35 6 -4 28 -13 47 -18z m-2013
-17 c-3 -8 -6 -5 -6 6 -1 11 2 17 5 13 3 -3 4 -12 1 -19z m-4039 -240 c-3 -89
-6 -111 -24 -135 -37 -51 -94 -71 -264 -88 -138 -14 -220 -27 -315 -50 l-30
-8 25 28 c37 40 83 60 210 90 140 33 193 59 249 120 52 56 85 126 108 225 l17
75 13 -75 c8 -41 12 -123 11 -182z m1569 232 c3 -11 9 -18 13 -15 4 2 15 -2
26 -9 15 -12 22 -11 41 1 20 13 26 13 52 0 21 -10 30 -11 28 -4 -1 7 7 12 18
12 13 0 21 -8 23 -22 4 -29 17 -30 19 -2 3 29 18 43 38 35 23 -8 16 -52 -7
-48 -22 4 -24 -14 -2 -22 10 -4 14 -14 11 -26 -3 -10 1 -24 9 -31 20 -16 17
-29 -6 -29 -17 0 -20 7 -20 40 0 22 -4 40 -8 40 -5 0 -17 -18 -27 -40 -10 -22
-22 -40 -27 -40 -5 0 -4 9 2 21 7 11 9 23 6 26 -3 3 -11 -6 -17 -21 -11 -24
-16 -26 -68 -22 -31 2 -67 -1 -80 -6 -18 -6 -28 -5 -39 5 -12 13 -11 14 10 10
51 -10 67 70 18 94 -30 15 -32 13 -41 -40 l-8 -42 4 40 c2 22 6 55 9 74 5 27
3 32 -10 27 -8 -3 -12 -2 -9 4 11 17 37 11 42 -10z m5429 -57 c31 -148 115
-259 227 -302 32 -11 99 -30 149 -41 93 -20 157 -50 193 -90 20 -23 20 -23 0
-17 -59 18 -181 38 -312 52 -167 17 -209 26 -247 56 -40 31 -56 81 -56 173 0
82 19 250 28 242 2 -3 11 -36 18 -73z m-5539 37 c4 -12 3 -12 -5 -1 -7 9 -12
10 -16 2 -4 -6 -12 -9 -17 -5 -14 8 0 26 19 22 8 -2 17 -10 19 -18z m431 3
c-20 -5 -25 -23 -6 -23 6 0 9 -3 5 -6 -3 -4 -14 -4 -23 0 -13 5 -14 9 -4 21 7
8 20 14 29 14 13 -1 13 -2 -1 -6z m-371 -35 c-3 -7 -5 -2 -5 12 0 14 2 19 5
13 2 -7 2 -19 0 -25z m2827 16 c25 -10 19 -43 -9 -54 -22 -8 -24 -13 -15 -35
11 -29 13 -105 4 -129 -12 -32 -23 -15 -18 27 4 25 0 66 -9 101 -21 80 -5 110
47 90z m264 -6 c19 -19 14 -37 -12 -44 -22 -5 -24 -11 -28 -80 -3 -58 -8 -78
-24 -95 l-21 -21 -7 49 c-6 47 -58 153 -75 153 -4 0 0 -24 10 -52 32 -93 20
-144 -32 -136 -48 7 -52 68 -4 68 23 0 25 3 19 28 -4 15 -15 47 -25 71 -24 56
-24 61 5 61 31 0 71 -42 107 -110 22 -44 28 -50 28 -30 0 14 -4 44 -9 68 -7
29 -7 49 0 62 12 22 50 26 68 8z m-3141 -55 c-3 -10 -5 -2 -5 17 0 19 2 27 5
18 2 -10 2 -26 0 -35z m1400 25 c-3 -8 -6 -5 -6 6 -1 11 2 17 5 13 3 -3 4 -12
1 -19z m-984 5 c-25 -5 -40 -40 -24 -56 6 -6 11 -16 11 -21 -1 -17 -30 26 -30
44 0 23 20 40 45 39 19 -2 18 -2 -2 -6z m-376 -65 c-3 -7 -5 -2 -5 12 0 14 2
19 5 13 2 -7 2 -19 0 -25z m820 -4 c-3 -3 -12 -4 -19 -1 -8 3 -5 6 6 6 11 1
17 -2 13 -5z m293 -68 c0 -94 11 -200 19 -187 9 14 11 -24 12 -244 1 -127 3
-162 8 -120 l8 60 1 -78 c1 -50 -2 -76 -8 -72 -5 3 -10 2 -10 -4 0 -5 6 -11
13 -14 6 -2 10 -6 7 -9 -4 -3 -191 15 -319 31 -8 2 9 208 23 281 8 41 13 77
11 81 -3 3 3 48 11 100 9 53 14 127 11 172 l-4 77 109 0 108 0 0 -74z m267 52
c-3 -8 -6 -5 -6 6 -1 11 2 17 5 13 3 -3 4 -12 1 -19z m-527 8 c0 -2 -7 -7 -16
-10 -8 -3 -12 -2 -9 4 6 10 25 14 25 6z m30 -6 c0 -5 -4 -10 -10 -10 -6 0 -10
-34 -9 -82 1 -57 4 -75 9 -58 l8 25 1 -27 c1 -31 -14 -45 -23 -22 -8 20 -8
148 0 168 7 18 24 22 24 6z m-3288 -49 c47 -20 101 -70 124 -113 47 -89 16
-184 -75 -230 -65 -33 -101 -35 -126 -8 -17 18 -17 20 -1 20 9 0 28 11 42 26
31 30 27 64 -14 107 -38 39 -99 38 -146 -3 -61 -54 -60 -131 2 -199 85 -94
225 -93 816 4 253 42 352 45 416 13 62 -32 92 -93 98 -197 l4 -78 -48 8 c-27
4 -217 8 -422 8 -484 1 -641 19 -819 92 -62 26 -91 45 -139 95 -71 71 -98 134
-97 225 2 145 117 247 280 249 39 0 77 -7 105 -19z m8986 -11 c76 -39 117 -85
138 -156 41 -141 -47 -299 -209 -374 -165 -78 -350 -100 -842 -101 -203 0
-391 -4 -417 -8 -27 -4 -49 -6 -51 -5 -2 2 0 39 5 81 11 104 40 159 98 191 42
22 52 23 160 19 63 -3 167 -15 230 -27 190 -34 448 -69 565 -76 177 -11 267
22 310 111 42 91 -15 185 -112 185 -30 0 -45 -7 -65 -27 -34 -38 -38 -54 -23
-90 8 -20 23 -33 41 -37 l29 -8 -24 -19 c-32 -26 -58 -24 -122 9 -44 22 -59
36 -78 75 -22 45 -23 53 -12 100 27 119 117 185 252 186 54 1 76 -4 127 -29z
m-5701 -2 c-3 -8 -6 -5 -6 6 -1 11 2 17 5 13 3 -3 4 -12 1 -19z m610 -20 c-3
-7 -5 -2 -5 12 0 14 2 19 5 13 2 -7 2 -19 0 -25z m-1167 14 c0 -5 -6 -9 -12
-10 -23 -1 -66 -12 -129 -32 -34 -10 -66 -17 -71 -14 -4 3 -8 0 -8 -5 0 -6 -9
-11 -20 -11 -13 0 -20 7 -20 20 0 25 20 27 21 3 0 -15 2 -15 8 2 7 16 26 23
102 36 117 20 129 21 129 11z m-743 -94 c-3 -7 -5 -2 -5 12 0 14 2 19 5 13 2
-7 2 -19 0 -25z m688 1 c12 -5 -10 -7 -55 -4 -55 3 -64 2 -35 -4 29 -6 33 -9
15 -10 -14 -1 -34 -8 -44 -16 -22 -17 -71 -21 -61 -5 3 6 18 10 33 11 22 0 23
2 9 8 -17 6 -17 8 5 18 44 23 82 23 133 2z m587 -139 c3 -47 2 -72 -2 -55 -8
30 -13 152 -6 144 2 -2 6 -42 8 -89z m1565 58 c-3 -7 -5 -2 -5 12 0 14 2 19 5
13 2 -7 2 -19 0 -25z m-2125 -8 c18 -8 12 -9 -27 -5 -27 3 -81 5 -120 6 -53 0
-64 2 -45 9 30 11 159 4 192 -10z m575 -37 c-3 -10 -5 -4 -5 12 0 17 2 24 5
18 2 -7 2 -21 0 -30z m3218 -53 c-3 -5 3 -10 14 -10 10 0 22 6 24 13 3 6 6
-25 6 -70 1 -48 5 -83 11 -83 15 0 13 -80 -2 -81 -7 0 -4 -4 7 -9 l20 -9 -20
-1 c-11 -1 -14 -4 -7 -7 17 -7 15 -33 -3 -33 -8 0 -15 5 -15 11 0 6 -7 3 -16
-5 -8 -9 -20 -13 -26 -10 -6 4 -39 6 -74 6 l-64 -1 -1 62 -1 62 -9 -50 c-15
-78 -16 -81 -39 -60 -24 21 -27 47 -5 39 9 -4 15 0 15 8 0 7 9 31 20 53 11 22
20 44 20 51 0 7 10 9 25 6 15 -2 25 0 25 7 0 6 -9 11 -19 11 -37 0 -32 19 6
26 61 11 72 20 67 54 -5 27 -3 30 21 30 15 0 24 -4 20 -10z m-4485 -9 c0 -13
-26 -32 -33 -24 -14 13 -6 33 13 33 11 0 20 -4 20 -9z m5348 -87 l-3 -49 -5
57 c-3 31 -1 53 3 49 5 -5 7 -30 5 -57z m-1240 40 c5 -9 7 -26 4 -37 -5 -18
-2 -19 41 -13 28 4 48 3 52 -4 7 -11 0 -14 -49 -25 l-29 -6 39 -40 c21 -21 46
-41 56 -45 10 -3 18 -10 18 -16 0 -7 -18 -9 -52 -5 -52 6 -81 -1 -77 -19 1 -5
1 -17 0 -26 -2 -29 -21 -20 -27 12 -5 22 -11 29 -27 27 -11 -1 -22 4 -24 11
-3 7 4 12 20 12 31 0 35 5 29 36 -4 24 -5 24 -39 -16 -19 -22 -39 -40 -45 -40
-6 0 -4 8 5 18 10 10 17 22 17 26 0 4 9 21 21 37 l20 29 -35 0 c-51 0 -44 16
10 25 46 7 46 7 41 41 -6 37 14 49 31 18z m207 -30 c11 -12 13 -20 6 -27 -8
-8 -15 -5 -26 9 -26 35 -11 49 20 18z m-6926 -127 c251 -169 649 -270 1205
-307 224 -14 827 -12 1316 4 702 25 907 28 1120 17 509 -26 857 -94 1108 -218
94 -46 112 -60 54 -44 -17 5 -91 18 -164 28 -112 15 -197 18 -528 17 -407 -1
-381 1 -1290 -69 -817 -63 -1321 -66 -1760 -9 -327 42 -630 144 -843 283 -112
74 -247 208 -323 322 -35 53 -64 99 -64 103 0 4 22 -12 48 -36 27 -24 81 -65
121 -91z m2621 123 c0 -5 -4 -10 -10 -10 -5 0 -10 -16 -10 -35 0 -25 4 -35 16
-35 8 0 12 -5 9 -10 -4 -6 -10 -8 -15 -5 -4 3 -10 0 -12 -5 -2 -7 -10 -6 -22
3 -22 16 -25 70 -5 93 13 16 49 19 49 4z m7469 -51 c-221 -365 -625 -580
-1239 -658 -436 -56 -890 -50 -1855 24 -651 50 -757 56 -1080 62 -340 5 -574
-7 -734 -41 -57 -12 -62 -12 -45 2 63 48 276 126 459 167 409 91 840 107 1855
71 575 -21 1236 -18 1480 8 478 49 799 143 1034 301 45 30 97 70 116 90 18 19
35 33 37 31 2 -2 -10 -28 -28 -57z m-2152 -1 c-3 -7 -5 -2 -5 12 0 14 2 19 5
13 2 -7 2 -19 0 -25z m-1033 16 c17 -7 22 -44 6 -44 -9 0 -30 31 -30 44 0 8 5
7 24 0z m-3057 -56 c-3 -7 -5 -2 -5 12 0 14 2 19 5 13 2 -7 2 -19 0 -25z m320
-10 c-3 -8 -6 -5 -6 6 -1 11 2 17 5 13 3 -3 4 -12 1 -19z m3853 -83 c0 -12 -7
-28 -15 -35 -12 -10 -15 -10 -15 4 0 9 5 16 10 16 6 0 10 5 10 11 0 5 -4 7
-10 4 -5 -3 -10 3 -10 14 0 11 -11 33 -25 49 -39 47 -29 48 15 2 23 -24 40
-51 40 -65z m-4263 43 c-3 -7 -5 -2 -5 12 0 14 2 19 5 13 2 -7 2 -19 0 -25z
m66 -35 c-13 -2 -33 -2 -45 0 -13 2 -3 4 22 4 25 0 35 -2 23 -4z m-1241 -58
c-2 -14 -9 -25 -14 -25 -5 0 -7 3 -5 8 2 4 7 15 10 25 9 25 15 21 9 -8z m5285
17 c6 -4 15 -20 18 -35 7 -25 5 -27 -26 -27 -32 0 -34 2 -36 35 -2 36 15 46
44 27z m-5444 -49 c-7 -2 -19 -2 -25 0 -7 3 -2 5 12 5 14 0 19 -2 13 -5z
m2084 -25 c-3 -8 -6 -5 -6 6 -1 11 2 17 5 13 3 -3 4 -12 1 -19z m230 -144 c-3
-3 -12 -4 -19 -1 -8 3 -5 6 6 6 11 1 17 -2 13 -5z m138 -64 c3 -6 -1 -7 -9 -4
-18 7 -21 14 -7 14 6 0 13 -4 16 -10z m-4790 -37 c171 -54 269 -169 284 -337
9 -106 -4 -229 -48 -457 -67 -344 -74 -459 -35 -589 32 -107 107 -190 171
-190 61 0 133 77 133 143 0 17 -10 38 -26 54 -25 25 -43 26 -86 8 -28 -11 -10
31 25 61 27 23 38 26 86 22 49 -4 58 -9 97 -50 95 -101 75 -226 -52 -317 -88
-63 -153 -84 -259 -85 -84 -1 -95 1 -165 36 -41 20 -76 35 -78 34 -1 -2 1 -11
4 -20 5 -14 9 -15 16 -4 6 9 7 6 3 -9 -4 -13 -2 -23 4 -23 6 0 7 -7 4 -17 -4
-11 -3 -14 5 -9 7 4 12 2 12 -3 0 -6 -6 -11 -13 -11 -13 0 -53 98 -43 107 2 3
-11 29 -30 58 -107 168 -127 374 -78 805 47 421 42 599 -20 758 l-25 63 32 -6
c18 -4 55 -13 82 -22z m9863 -49 c78 -121 66 -232 -30 -268 -23 -9 -94 -25
-156 -35 -122 -21 -173 -47 -193 -99 -11 -29 -13 -266 -3 -307 5 -19 15 -25
51 -31 75 -11 177 1 230 27 37 18 53 34 69 67 l20 43 32 -59 c43 -80 43 -129
2 -176 -37 -42 -92 -61 -214 -76 -179 -22 -191 -38 -183 -254 6 -161 14 -204
50 -256 35 -52 70 -73 130 -78 109 -9 194 61 205 167 4 43 2 50 -24 70 -35 27
-78 24 -126 -10 l-31 -22 5 47 c18 156 250 165 319 11 70 -152 -77 -342 -324
-420 -188 -60 -346 -16 -416 114 -64 120 -66 146 -63 650 3 472 -1 530 -39
608 -12 24 -20 45 -18 47 12 10 126 41 279 75 258 58 329 90 377 172 10 16 20
29 23 29 3 0 16 -16 28 -36z m-3795 -169 c132 -28 233 -108 262 -210 32 -110
-29 -178 -139 -155 -29 6 -75 25 -101 41 l-48 31 30 14 c36 18 56 52 56 94 0
93 -129 138 -239 84 -58 -29 -79 -65 -78 -132 4 -123 51 -178 295 -343 252
-170 323 -257 336 -408 14 -172 -74 -319 -235 -393 -58 -27 -82 -32 -172 -36
-89 -3 -115 -1 -170 18 -119 40 -234 127 -274 207 -20 41 -21 112 0 141 30 43
92 65 190 70 191 9 305 -70 233 -162 -23 -29 -40 -27 -32 4 3 11 0 27 -7 35
-16 20 -83 19 -120 0 -54 -28 -37 -111 34 -173 45 -40 91 -49 141 -28 91 39
135 95 135 176 0 86 -66 168 -270 335 -167 137 -243 218 -283 302 -29 62 -32
76 -32 163 1 77 5 105 24 147 66 149 257 222 464 178z m-2261 -25 c67 -21 181
-87 190 -111 4 -10 -14 -4 -51 14 -126 62 -279 51 -352 -26 -52 -55 -96 -188
-118 -356 -14 -106 -14 -348 -1 -356 6 -3 10 1 10 9 0 9 5 16 10 16 16 0 11
-18 -11 -38 -19 -19 -20 -24 -9 -103 24 -180 57 -280 112 -336 53 -55 108 -41
148 35 32 63 68 254 71 377 6 223 2 305 -14 305 -5 0 -4 7 3 15 8 10 10 35 5
82 -10 103 -34 237 -50 283 -19 53 -20 50 10 50 76 0 180 -97 228 -213 15 -34
37 -51 37 -27 0 6 4 10 9 10 5 0 5 -12 -1 -27 -8 -23 -5 -44 15 -108 14 -44
26 -76 27 -71 0 11 40 -34 40 -45 0 -4 -4 -11 -10 -14 -5 -3 -10 3 -10 14 0
11 -3 22 -8 24 -4 3 -7 -86 -7 -196 -1 -192 -2 -206 -27 -282 -77 -227 -230
-334 -463 -323 -115 5 -183 37 -261 120 -199 215 -228 668 -64 1003 72 148
153 231 269 276 64 25 190 25 273 -1z m2707 -51 c26 -9 92 -10 241 -3 335 14
399 7 445 -48 25 -29 27 -38 22 -86 -3 -30 -8 -56 -11 -59 -2 -3 -14 5 -26 17
-34 34 -69 42 -152 35 -43 -4 -78 -11 -78 -15 0 -4 -7 -72 -17 -151 -24 -214
-24 -655 0 -769 21 -97 42 -138 75 -147 26 -6 47 9 73 51 15 26 19 27 25 13 3
-10 4 -40 2 -67 -6 -64 -44 -121 -105 -157 -41 -24 -59 -28 -120 -28 -64 0
-75 3 -109 31 -21 16 -46 41 -56 55 -54 73 -85 270 -74 474 4 66 20 233 36
370 17 138 30 264 30 280 l0 31 -87 0 c-126 1 -199 36 -223 109 -12 35 -1 76
28 108 15 17 17 17 31 -8 9 -14 31 -30 50 -36z m-5682 19 c29 -11 74 -34 100
-51 112 -75 127 -193 109 -842 -10 -344 -2 -446 39 -550 27 -65 26 -68 -35
-85 -102 -29 -201 15 -250 111 -36 69 -42 144 -31 392 14 289 14 618 1 762 -9
97 -34 223 -55 278 -7 17 -4 18 31 11 22 -4 63 -15 91 -26z m3778 12 c263 -31
385 -86 448 -203 18 -35 22 -58 22 -137 0 -84 -3 -101 -27 -145 -14 -27 -41
-64 -60 -82 -36 -34 -142 -93 -170 -93 -9 0 -20 -4 -23 -10 -3 -5 3 -10 15
-10 35 0 141 -40 175 -66 19 -14 43 -48 55 -77 22 -49 22 -59 15 -187 -14
-232 -6 -290 45 -323 11 -6 20 -15 20 -18 0 -15 -131 -41 -183 -37 -107 9
-150 70 -167 238 -22 210 -30 261 -49 299 -36 70 -105 111 -189 111 l-33 0 8
-117 c21 -310 -11 -420 -144 -491 -51 -27 -162 -61 -199 -62 -6 0 1 24 15 52
24 49 26 61 25 183 -12 1034 -9 962 -51 1142 -5 19 0 22 53 28 33 3 66 8 74 9
36 8 242 5 325 -4z m-1509 -22 c-47 -160 -60 -345 -53 -748 7 -400 16 -486 61
-591 6 -13 -8 -20 -76 -37 -209 -55 -279 -65 -438 -66 -143 -1 -159 1 -208 23
-63 28 -107 76 -124 133 -19 66 -14 287 11 533 44 421 19 588 -99 667 l-25 16
30 12 c63 25 179 43 228 36 129 -20 179 -158 158 -434 -5 -70 -17 -215 -27
-322 -25 -292 -4 -424 79 -497 45 -39 106 -57 171 -49 27 3 50 7 52 9 2 2 0
17 -6 33 -23 68 -32 212 -37 579 -8 556 3 632 99 681 34 17 137 42 182 43 25
1 28 -2 22 -21z m-2549 -125 c67 -115 62 -243 -15 -398 -30 -62 -175 -295
-180 -290 -3 3 15 105 70 385 21 109 30 341 16 410 l-8 35 46 -49 c25 -27 57
-69 71 -93z m8398 68 c95 -42 142 -109 152 -215 14 -153 -94 -339 -250 -430
-26 -16 -47 -29 -47 -30 0 -2 28 -4 61 -5 96 -3 159 -37 197 -106 14 -25 17
-64 18 -245 0 -201 2 -218 22 -257 12 -23 34 -49 50 -57 l27 -15 -60 -26 c-87
-39 -170 -52 -216 -33 -63 27 -84 78 -108 271 -37 294 -83 368 -231 371 -49 1
-55 -1 -53 -19 2 -11 6 -81 9 -155 13 -273 -42 -422 -180 -490 -53 -26 -176
-53 -176 -39 0 3 9 22 20 43 41 81 44 127 30 425 -7 152 -11 349 -7 437 7 187
-6 370 -32 453 l-18 59 91 21 c85 20 278 55 356 65 19 2 94 3 165 2 111 -2
137 -5 180 -25z m-3565 -176 c6 -38 29 -142 50 -230 64 -261 71 -347 38 -485
-9 -40 -102 -250 -110 -250 -2 0 -2 56 0 124 4 146 -10 234 -67 416 -56 180
-64 226 -59 321 5 89 38 179 96 263 l27 39 7 -64 c4 -35 12 -95 18 -134z
m2394 179 c33 -9 86 -29 117 -45 54 -29 125 -86 117 -94 -2 -2 -32 10 -66 27
-50 25 -80 32 -143 36 -96 6 -154 -13 -198 -63 -147 -168 -169 -895 -35 -1156
19 -37 71 -79 98 -79 33 0 72 44 96 106 38 102 52 218 57 459 6 292 -12 471
-64 638 -7 23 29 23 82 -2 147 -67 255 -348 255 -665 0 -331 -106 -547 -297
-602 -90 -26 -221 -16 -303 23 -187 88 -303 322 -317 638 -9 206 40 430 125
569 63 106 160 189 252 217 44 13 160 10 224 -7z m-6012 -20 c182 -44 316
-189 375 -404 28 -101 25 -355 -5 -475 -58 -230 -199 -404 -328 -405 l-30 0
23 69 c62 187 71 646 17 910 -34 164 -83 245 -148 245 -122 0 -218 -279 -219
-639 0 -246 37 -420 117 -540 70 -106 162 -136 308 -99 101 25 172 23 226 -5
24 -12 42 -25 39 -28 -3 -2 -15 1 -27 7 -51 27 -111 18 -221 -35 l-104 -50
-105 0 c-97 0 -110 2 -173 32 -244 116 -399 487 -367 879 26 317 190 534 420
556 53 6 138 -2 202 -18z m2418 -164 c0 -6 -11 -15 -25 -20 -15 -6 -27 -21
-33 -42 -10 -36 -1 -58 36 -94 14 -14 22 -32 20 -45 -3 -21 -4 -22 -18 -4 -8
11 -10 16 -3 11 9 -5 11 -2 7 8 -3 9 -10 14 -14 11 -11 -7 -43 32 -36 44 4 5
-3 12 -14 16 -11 3 -20 10 -20 15 0 5 -6 11 -12 13 -7 2 -1 3 13 1 23 -3 28 2
33 28 8 40 23 58 43 51 11 -4 14 -2 9 5 -4 7 -2 12 3 12 6 0 11 -5 11 -10z
m-580 -306 c0 -8 -5 -12 -10 -9 -6 4 -8 11 -5 16 9 14 15 11 15 -7z m36 -21
c15 -24 15 -26 1 -14 -10 8 -17 9 -17 3 0 -6 8 -15 17 -21 10 -5 15 -13 11
-17 -4 -4 -16 4 -27 17 -12 15 -15 26 -9 30 6 4 7 12 4 18 -15 24 3 9 20 -16z
m147 2 c-6 -17 -33 -20 -33 -4 0 5 5 7 10 4 6 -3 10 1 10 10 0 9 4 14 10 10 5
-3 7 -12 3 -20z m-77 -117 c-7 -5 -5 -8 7 -8 9 0 17 -4 17 -10 0 -5 14 -22 30
-37 17 -14 30 -36 29 -47 -1 -18 -2 -18 -9 4 -4 14 -8 19 -9 12 -1 -7 -5 -11
-11 -7 -5 3 -6 13 -3 22 4 10 2 14 -5 10 -13 -9 -58 52 -54 72 2 7 -2 11 -10
9 -16 -6 -38 22 -31 40 4 9 14 3 33 -20 19 -23 24 -35 16 -40z m-83 -47 c8 -8
7 -15 -1 -23 -9 -9 -12 -8 -12 4 0 12 -6 15 -22 10 -14 -3 -19 -1 -14 6 3 6
-2 13 -11 16 -10 2 -3 3 16 1 18 -2 38 -8 44 -14z m-80 -13 c-13 -6 -23 -15
-23 -20 0 -5 -5 -6 -10 -3 -17 10 9 35 34 34 21 0 21 0 -1 -11z m185 -137 c-6
-2 -14 2 -18 9 -5 9 -9 9 -14 1 -4 -6 -13 -11 -19 -11 -7 0 -6 4 3 10 11 7 12
12 3 21 -6 6 -9 18 -6 27 4 10 2 13 -5 8 -8 -4 -10 -2 -6 7 8 21 -43 10 -59
-13 -12 -17 -17 -20 -36 -20 -5 0 -7 -10 -4 -22 4 -18 2 -20 -6 -8 -9 13 -10
13 -15 0 -13 -43 -14 -45 -15 -24 -1 11 13 36 29 54 17 18 30 30 30 25 0 -5 7
1 16 13 10 14 22 21 31 17 12 -4 13 -3 5 8 -7 8 -9 17 -6 20 4 4 28 -22 54
-56 26 -34 43 -64 38 -66z m-164 -53 c-3 -10 -1 -18 5 -18 6 0 11 5 11 12 0 6
2 9 5 6 3 -3 3 -13 -1 -22 -10 -26 -33 -1 -32 35 1 20 4 26 9 17 5 -7 6 -21 3
-30z m119 27 c-3 -9 -8 -14 -10 -11 -3 3 -2 9 2 15 9 16 15 13 8 -4z m-34 -41
c-10 -9 -19 -10 -29 -4 -13 8 -13 10 1 10 9 0 20 8 24 18 6 13 9 14 12 4 3 -8
-1 -20 -8 -28z m5146 -424 c-3 -5 -2 -10 3 -10 5 0 14 -12 21 -27 l12 -27 -26
26 c-23 23 -27 48 -9 48 3 0 2 -4 -1 -10z m32 -101 c-5 -4 -1 -11 9 -17 15 -9
17 -13 7 -23 -11 -11 -13 -10 -13 4 0 9 -5 17 -11 17 -6 0 -9 7 -6 15 4 8 2
17 -3 20 -6 4 -10 11 -10 17 0 6 8 3 19 -8 10 -11 14 -22 8 -25z m-8894 -6
c-3 -7 0 -13 6 -13 6 0 11 5 11 11 0 5 5 7 11 3 8 -5 7 -9 -4 -15 -21 -12 -49
0 -42 18 3 11 1 13 -10 10 -8 -4 -17 -2 -20 3 -8 13 18 18 37 7 9 -6 14 -17
11 -24z m5887 7 c287 -15 499 -35 1045 -96 776 -86 881 -95 1223 -101 304 -6
313 -5 335 14 23 21 57 27 54 10 -3 -17 74 -29 138 -22 33 4 98 8 144 10 91 5
121 11 121 26 0 6 -3 8 -7 6 -10 -6 -34 19 -26 27 4 3 -4 6 -16 6 -12 0 -20 3
-18 8 3 4 -1 13 -9 20 -9 8 -14 9 -14 2 0 -6 -5 -8 -10 -5 -6 4 -7 11 -4 17 5
8 1 9 -10 5 -11 -5 -26 2 -43 21 -15 15 -23 21 -19 15 4 -8 2 -11 -6 -8 -8 3
-14 15 -15 26 -2 19 -1 19 28 -2 16 -11 26 -25 23 -31 -3 -5 2 -8 12 -7 11 2
39 -7 63 -20 35 -18 45 -20 52 -9 6 8 7 0 4 -22 -4 -25 -3 -29 3 -15 8 18 10
16 16 -12 9 -39 15 -40 156 -18 52 8 96 13 97 11 2 -2 -45 -22 -104 -45 -60
-23 -120 -49 -135 -57 -14 -8 -39 -16 -55 -18 -49 -7 -187 -47 -211 -62 -12
-8 -27 -12 -33 -9 -5 4 -33 1 -62 -5 -93 -21 -90 -18 -54 -50 23 -21 29 -32
21 -40 -8 -8 -14 -7 -24 5 -7 8 -9 15 -4 15 4 0 -6 10 -24 23 -31 23 -85 27
-98 6 -3 -5 -29 -9 -57 -9 -29 0 -68 -5 -87 -11 -19 -6 -61 -10 -93 -9 -51 1
-59 -2 -64 -20 -3 -11 -10 -20 -15 -20 -5 0 -7 4 -4 9 10 16 -46 19 -169 10
-289 -21 -866 -6 -1220 31 -327 35 -677 89 -899 140 -72 17 -135 30 -142 30
-8 0 -11 -15 -9 -45 2 -25 -1 -45 -6 -45 -5 0 -9 -5 -9 -11 0 -5 5 -7 10 -4
14 9 13 -8 -2 -23 -7 -7 -8 -12 -3 -12 5 0 -1 -7 -13 -16 -13 -9 -26 -13 -30
-9 -4 3 1 11 11 16 10 6 17 22 17 39 0 15 6 31 13 34 6 4 2 4 -10 2 -15 -3
-23 1 -23 10 0 8 9 14 20 14 12 0 20 7 20 18 0 15 -2 15 -11 2 -8 -12 -9 -10
-4 7 5 19 1 23 -30 29 -22 4 -41 2 -50 -6 -9 -8 -15 -8 -15 -2 0 6 6 13 13 15
25 11 -15 24 -156 52 -258 52 -421 38 -498 -41 -32 -34 -34 -38 -34 -109 0
-82 14 -111 75 -152 78 -53 200 -3 200 82 0 16 -12 39 -31 58 l-31 31 22 18
c12 10 35 18 51 18 41 0 103 -59 123 -117 20 -58 21 -153 2 -198 -36 -86 -145
-162 -266 -185 -77 -15 -120 -12 -193 10 -131 41 -223 163 -234 312 -19 254
190 398 633 437 132 12 443 12 664 1z m2845 -10 c3 -5 1 -10 -4 -10 -6 0 -11
5 -11 10 0 6 2 10 4 10 3 0 8 -4 11 -10z m-8669 -22 c4 -7 3 -8 -4 -4 -7 4
-12 2 -12 -4 0 -6 -5 -8 -11 -4 -8 4 -7 9 2 15 18 11 17 11 25 -3z m91 -29 c1
-24 0 -26 -4 -9 -3 14 -10 31 -16 39 -10 11 -9 13 3 9 9 -3 16 -18 17 -39z
m3999 20 c164 -16 414 -69 414 -88 0 -7 -45 -20 -278 -81 -624 -162 -1312
-239 -2027 -227 -623 10 -1069 88 -1486 259 -43 17 -77 33 -76 35 2 1 62 -6
133 -16 229 -34 460 -44 848 -38 431 7 595 20 1296 106 195 24 354 40 495 50
170 12 559 12 681 0z m-4049 -11 c11 -19 13 -39 2 -32 -5 3 -9 12 -9 20 0 8
-5 14 -11 14 -5 0 -7 -4 -4 -10 3 -5 2 -10 -4 -10 -16 0 -22 18 -9 23 21 9 26
8 35 -5z m-161 -23 c17 -17 17 -17 -6 -10 -14 4 -28 13 -32 19 -6 8 -8 7 -8
-1 0 -7 -7 -10 -15 -6 -18 6 -40 -18 -57 -60 -6 -15 -12 -26 -15 -24 -7 8 27
81 44 94 21 16 67 10 89 -12z m243 -18 c1 -5 -5 -5 -11 -1 -9 5 -10 4 -3 -3 6
-6 43 -20 83 -32 40 -12 180 -76 312 -142 339 -170 574 -251 914 -314 717
-132 1723 -79 2680 141 82 19 151 33 153 31 5 -6 -270 -131 -446 -202 -1075
-433 -2072 -454 -2896 -60 -145 70 -229 118 -412 237 -179 116 -297 175 -375
188 -76 12 -118 -1 -162 -50 -29 -32 -36 -48 -36 -81 0 -49 31 -104 63 -113
48 -13 88 -6 112 19 30 29 32 66 5 90 -24 22 -17 35 19 35 19 0 40 -13 71 -45
40 -40 44 -50 48 -102 3 -49 0 -64 -20 -93 -85 -125 -264 -131 -381 -13 -75
74 -100 155 -73 239 33 106 43 123 89 161 32 26 46 44 43 56 -2 10 2 17 11 17
8 0 12 -4 9 -9 -4 -5 15 -3 41 5 27 7 68 19 93 26 36 10 46 18 49 38 3 23 4
24 12 5 4 -11 8 -24 8 -28z m8732 16 c-8 -15 -10 -15 -11 -2 0 17 10 32 18 25
2 -3 -1 -13 -7 -23z m-8784 -15 c-3 -8 -6 -5 -6 6 -1 11 2 17 5 13 3 -3 4 -12
1 -19z m8549 7 c4 -8 10 -13 14 -10 4 3 13 -2 20 -10 9 -10 9 -15 1 -15 -6 0
-11 6 -11 13 0 8 -3 8 -9 -2 -7 -11 -12 -10 -22 8 -8 11 -20 21 -27 21 -7 0
-10 -4 -7 -10 3 -5 -1 -10 -9 -10 -8 0 -22 -10 -30 -22 -9 -12 -18 -19 -22
-15 -3 3 3 17 14 31 10 14 22 22 26 19 3 -3 6 -1 6 5 0 17 50 15 56 -3z
m-8716 -25 c0 -5 -4 -10 -9 -10 -6 0 -13 5 -16 10 -3 6 1 10 9 10 9 0 16 -4
16 -10z m9922 -28 c111 -49 191 -168 192 -288 1 -53 -4 -68 -36 -120 -93 -151
-278 -188 -396 -80 -49 44 -68 127 -41 179 23 44 82 97 109 97 38 0 42 -8 18
-40 -38 -52 2 -112 76 -112 113 0 146 144 51 224 -82 71 -236 26 -490 -142
-228 -151 -373 -232 -552 -306 -808 -337 -1737 -302 -2763 103 -178 70 -474
208 -503 234 -12 11 -15 19 -8 24 6 3 11 1 11 -4 0 -6 10 -11 23 -11 15 0 18
-3 9 -8 -20 -13 27 -30 179 -62 527 -113 980 -175 1449 -200 329 -17 709 -8
718 18 2 6 8 12 13 12 6 0 7 -5 3 -11 -7 -12 24 -10 201 10 44 5 109 12 145
16 149 14 504 102 680 168 107 41 259 110 365 168 129 70 252 126 318 144 68
19 169 14 229 -13z m-1160 -14 c-7 -7 -12 -8 -12 -2 0 14 12 26 19 19 2 -3 -1
-11 -7 -17z m-8975 -10 c-2 -7 -11 -12 -20 -12 -12 1 -18 -9 -23 -35 -9 -55
-15 -62 -10 -11 3 27 12 49 22 57 23 16 37 17 31 1z m8828 -7 c-3 -6 -11 -11
-16 -11 -5 0 -4 6 3 14 14 16 24 13 13 -3z m166 -4 c-10 -9 -11 -8 -5 6 3 10
9 15 12 12 3 -3 0 -11 -7 -18z m-8946 3 c4 -6 10 -8 15 -5 4 3 13 -1 19 -9 9
-10 8 -15 -3 -19 -11 -4 -13 -1 -9 10 4 10 2 14 -4 10 -5 -4 -19 0 -29 8 -10
8 -14 15 -7 15 6 0 15 -5 18 -10z m62 -66 c-9 -9 -28 6 -21 18 4 6 10 6 17 -1
6 -6 8 -13 4 -17z m-181 -9 c-6 -17 13 -35 31 -28 12 5 14 1 8 -18 -3 -13 -3
-19 2 -12 11 16 74 -59 78 -93 3 -29 -11 -19 -17 11 -2 11 -8 20 -15 20 -6 0
-15 3 -19 8 -4 4 -2 7 5 7 7 0 9 5 6 10 -4 6 -11 8 -16 4 -5 -3 -8 0 -7 8 2 7
-2 12 -9 11 -6 -1 -24 14 -39 35 -16 20 -32 39 -36 40 -5 2 -6 8 -3 12 8 14
37 -1 31 -15z m5887 -69 c-17 -22 -33 -26 -33 -7 0 6 33 27 48 30 2 1 -5 -10
-15 -23z m-5949 -8 c15 -8 16 -12 5 -19 -20 -13 -29 -11 -23 4 3 9 -6 13 -31
14 -20 1 -34 -1 -31 -5 7 -7 -36 -38 -47 -34 -5 1 -7 -3 -5 -10 3 -7 -1 -18
-8 -25 -20 -21 -24 -15 -9 15 8 15 18 27 22 26 11 -1 33 23 33 35 0 13 68 12
94 -1z m59 -73 c21 -25 35 -50 32 -55 -4 -6 1 -7 11 -3 11 4 15 2 13 -6 -3 -7
-8 -12 -12 -12 -4 1 -16 1 -27 1 -11 0 -20 5 -20 11 0 5 5 7 10 4 11 -7 13 6
4 30 -5 13 -8 14 -15 3 -6 -9 -9 -7 -9 10 0 12 -4 22 -10 22 -5 0 -10 7 -10
16 0 8 -5 12 -10 9 -6 -4 -8 -10 -5 -15 3 -4 -15 -23 -40 -41 -42 -32 -58 -59
-34 -59 5 0 7 -5 3 -11 -4 -8 -9 -7 -15 2 -7 11 -9 11 -9 -2 0 -17 35 -59 50
-59 5 0 12 5 15 10 9 14 25 12 25 -2 0 -7 -13 -14 -30 -15 -21 -2 -35 5 -50
24 -28 36 -25 58 16 100 20 21 43 48 51 61 8 12 18 22 22 22 4 0 24 -20 44
-45z m-283 -72 c0 -7 4 -13 8 -13 10 0 72 -87 72 -101 0 -6 4 -8 9 -5 5 3 16
-5 25 -19 20 -30 20 -34 2 -31 -20 3 -59 53 -51 66 3 5 -1 10 -9 10 -8 0 -18
9 -21 20 -4 11 -10 18 -15 15 -4 -3 -11 3 -16 13 -4 9 -8 19 -9 22 -2 3 -6 15
-10 28 -4 12 -11 22 -16 22 -15 0 -44 35 -46 55 -1 12 11 5 37 -26 22 -24 39
-50 40 -56z m8970 34 c-19 -18 -39 -29 -44 -25 -11 8 43 57 64 58 8 0 0 -13
-20 -33z m68 16 c-2 -10 2 -18 7 -18 6 0 21 -10 35 -23 20 -18 22 -24 10 -35
-10 -10 -11 -9 -5 2 6 11 4 13 -9 8 -10 -4 -15 -3 -11 3 3 5 1 18 -5 27 -11
17 -11 17 -6 1 8 -25 -18 -79 -53 -111 -39 -36 -29 -7 10 33 28 28 42 90 20
90 -6 0 -9 9 -8 20 1 11 5 20 10 20 4 0 7 -8 5 -17z m-292 -45 c4 -7 3 -8 -4
-4 -7 4 -12 2 -12 -3 0 -6 6 -11 14 -11 14 0 86 -79 86 -94 0 -3 -7 -6 -15 -6
-22 0 -107 112 -92 122 15 10 15 10 23 -4z m178 -29 c-3 -5 -13 -9 -22 -8 -10
0 -12 3 -5 5 7 3 9 13 6 22 -6 15 -5 15 10 3 9 -7 14 -17 11 -22z m-8641 -9
c-6 -24 -31 -45 -41 -36 -4 4 1 13 11 20 9 7 17 18 17 25 0 6 4 11 9 11 5 0 7
-9 4 -20z m8637 -20 c0 -5 -2 -10 -4 -10 -3 0 -8 5 -11 10 -3 6 -1 10 4 10 6
0 11 -4 11 -10z m0 -32 c0 -9 3 -8 10 2 8 12 10 12 16 -4 5 -14 9 -15 15 -4 7
10 9 10 9 0 0 -23 -31 -25 -53 -3 -12 11 -16 21 -9 21 7 0 12 -6 12 -12z
m-239 -8 c33 -18 21 -30 -24 -24 -33 5 -47 2 -60 -11 -10 -9 -23 -15 -30 -12
-7 2 -2 9 13 17 13 7 31 19 38 27 16 16 36 17 63 3z m164 -30 c3 -6 -4 -10
-17 -10 -18 0 -20 2 -8 10 19 12 18 12 25 0z m-128 -16 c-3 -3 -12 -4 -19 -1
-8 3 -5 6 6 6 11 1 17 -2 13 -5z m-3641 -49 c210 -103 217 -414 13 -518 -69
-35 -122 -43 -188 -27 -58 14 -130 71 -155 124 -38 81 -6 175 74 216 47 24
112 26 130 5 15 -18 15 -18 -25 -31 -41 -13 -54 -53 -33 -97 33 -68 122 -74
177 -11 89 100 -18 264 -172 264 -72 0 -147 -39 -260 -135 -48 -41 -108 -89
-133 -105 -172 -119 -408 -140 -756 -68 -56 11 -79 28 -39 28 40 0 414 101
566 153 191 66 223 78 391 153 71 32 152 63 179 70 71 19 168 10 231 -21z
m1192 20 c34 -8 88 -28 120 -44 211 -105 657 -256 927 -312 58 -13 105 -25
105 -29 0 -8 -147 -37 -265 -51 -49 -6 -139 -9 -200 -6 -190 9 -298 56 -475
206 -118 101 -194 141 -264 141 -157 -1 -264 -163 -175 -264 39 -45 88 -56
135 -31 65 35 70 119 9 139 -40 13 -40 13 -25 31 19 22 88 19 135 -8 54 -30
85 -79 85 -133 0 -58 -12 -86 -60 -138 -68 -74 -161 -94 -262 -56 -142 53
-214 195 -174 343 30 111 102 186 203 213 64 17 105 17 181 -1z"/>
<path d="M3777 10243 c-26 -7 -37 -44 -37 -123 0 -78 12 -120 35 -120 14 0 16
14 15 88 -1 48 -1 97 -1 110 1 22 2 22 160 22 l159 0 10 -52 c5 -29 10 -43 11
-31 0 12 6 25 11 28 6 3 10 20 10 36 0 22 -6 32 -26 39 -25 10 -312 12 -347 3z"/>
<path d="M3810 10180 c0 -17 7 -20 44 -20 39 0 44 2 39 20 -4 16 -14 20 -44
20 -32 0 -39 -3 -39 -20z"/>
<path d="M4047 10180 c-4 -16 0 -20 19 -20 17 0 24 6 24 20 0 13 -7 20 -19 20
-10 0 -21 -9 -24 -20z"/>
<path d="M3925 10165 c23 -8 83 -10 79 -3 -3 4 -24 8 -47 7 -23 0 -37 -2 -32
-4z"/>
<path d="M4142 10140 c0 -14 2 -19 5 -12 2 6 2 18 0 25 -3 6 -5 1 -5 -13z"/>
<path d="M3835 10139 c-21 -4 -24 -7 -10 -9 l20 -1 -20 -9 c-13 -6 -15 -9 -5
-9 13 -1 13 -2 0 -11 -17 -11 -10 -13 40 -10 19 1 40 6 47 11 6 6 44 13 85 16
40 3 80 10 88 14 9 6 -21 7 -72 3 -48 -4 -95 -3 -105 1 -26 12 -35 12 -68 4z"/>
<path d="M3977 10103 c-26 -2 -45 -8 -42 -12 6 -11 147 -1 160 10 9 9 -20 9
-118 2z"/>
<path d="M4114 10053 c3 -32 6 -76 7 -98 1 -30 3 -33 6 -13 3 19 9 25 20 21
13 -5 14 3 9 58 -7 89 -7 89 -29 89 -17 0 -18 -5 -13 -57z"/>
<path d="M3811 10051 c-14 -25 -5 -31 46 -31 47 0 48 2 33 31 -14 25 -66 26
-79 0z"/>
<path d="M3984 10021 c18 -7 66 -3 66 5 0 2 -19 4 -42 3 -31 0 -37 -3 -24 -8z"/>
<path d="M3812 9988 c6 -18 78 -21 78 -3 0 11 -12 15 -41 15 -27 0 -39 -4 -37
-12z"/>
<path d="M3740 9923 c0 -51 4 -69 18 -79 9 -7 21 -14 26 -14 7 0 5 60 -6 145
-1 6 -10 12 -20 12 -16 2 -18 -6 -18 -64z"/>
<path d="M3990 9980 c-9 -6 -10 -10 -3 -10 6 0 15 5 18 10 8 12 4 12 -15 0z"/>
<path d="M3837 9953 c-5 -8 26 -53 38 -53 3 0 5 12 3 27 -3 27 -30 44 -41 26z"/>
<path d="M4051 9951 c-14 -9 -23 -79 -10 -86 21 -14 39 9 39 51 0 45 -5 50
-29 35z"/>
<path d="M3820 9838 c0 -37 6 -52 35 -84 l34 -39 1 41 c0 37 -23 80 -66 123
-2 2 -4 -16 -4 -41z"/>
<path d="M3746 9824 c-3 -8 -6 -26 -6 -39 0 -18 4 -22 20 -18 14 4 19 13 18
30 -3 31 -23 49 -32 27z"/>
<path d="M4040 9740 l0 -80 -77 0 c-43 0 -85 4 -93 9 -27 18 -50 -40 -50 -129
0 -78 1 -80 24 -80 25 0 47 16 72 55 9 15 28 24 49 27 37 4 45 -5 45 -47 0
-23 17 -35 50 -35 17 0 19 10 22 98 2 53 2 134 0 180 -3 74 -5 82 -22 82 -18
0 -20 -7 -20 -80z"/>
<path d="M3756 9744 c-16 -15 -22 -87 -10 -118 5 -12 10 -13 25 -5 16 8 19 21
19 74 0 67 -7 77 -34 49z"/>
<path d="M3935 9430 c-3 -5 3 -10 14 -10 12 0 21 5 21 10 0 6 -6 10 -14 10 -8
0 -18 -4 -21 -10z"/>
<path d="M4010 9431 c0 -15 38 -24 68 -16 20 5 23 8 11 16 -19 12 -79 12 -79
0z"/>
<path d="M3949 9368 c-7 -23 -5 -38 5 -38 6 0 12 9 13 20 1 11 -2 20 -8 20 -5
0 -9 -1 -10 -2z"/>
<path d="M4015 9360 c-10 -16 4 -30 32 -30 l27 0 -22 20 c-24 23 -28 24 -37
10z"/>
<path d="M3836 9341 c17 -17 64 -17 64 -1 0 6 -17 10 -37 10 -23 0 -33 -4 -27
-9z"/>
<path d="M4043 9262 c-32 -5 -28 -22 5 -22 36 0 61 15 35 21 -10 3 -28 3 -40
1z"/>
<path d="M3934 9249 c-3 -5 7 -9 22 -9 15 0 24 3 20 7 -11 11 -35 12 -42 2z"/>
<path d="M8900 10190 c0 -5 5 -10 11 -10 5 0 7 5 4 10 -3 6 -8 10 -11 10 -2 0
-4 -4 -4 -10z"/>
<path d="M8945 10189 c-4 -6 -5 -12 -2 -15 2 -3 7 2 10 11 7 17 1 20 -8 4z"/>
<path d="M8980 10184 c0 -8 5 -12 10 -9 6 4 8 11 5 16 -9 14 -15 11 -15 -7z"/>
<path d="M9101 10184 c0 -11 3 -14 6 -6 3 7 2 16 -1 19 -3 4 -6 -2 -5 -13z"/>
<path d="M9182 10180 c0 -14 2 -19 5 -12 2 6 2 18 0 25 -3 6 -5 1 -5 -13z"/>
<path d="M9214 10180 c0 -13 4 -16 10 -10 7 7 7 13 0 20 -6 6 -10 3 -10 -10z"/>
<path d="M6305 10170 c-17 -7 -15 -9 10 -8 17 0 44 4 60 8 29 7 28 8 -10 8
-22 0 -49 -3 -60 -8z"/>
<path d="M6575 10160 c-15 -6 -7 -9 30 -9 28 0 59 4 70 9 15 6 7 9 -30 9 -27
0 -59 -4 -70 -9z"/>
<path d="M6300 10120 c-11 -7 -8 -9 15 -9 17 1 44 5 60 9 27 7 26 8 -15 9 -25
0 -52 -4 -60 -9z"/>
<path d="M6598 10122 c-16 -2 -28 -8 -28 -13 0 -10 50 -10 95 0 l30 7 -35 5
c-19 2 -47 3 -62 1z"/>
<path d="M7155 9262 c-3 -3 -5 -12 -5 -19 0 -21 94 -13 98 8 2 13 -6 16 -42
16 -25 0 -48 -2 -51 -5z"/>
<path d="M7464 9259 c-10 -17 7 -29 42 -29 28 0 35 4 32 18 -4 18 -63 28 -74
11z"/>
<path d="M7773 8780 c0 -30 2 -43 4 -27 2 15 2 39 0 55 -2 15 -4 2 -4 -28z"/>
<path d="M7763 7603 c9 -2 23 -2 30 0 6 3 -1 5 -18 5 -16 0 -22 -2 -12 -5z"/>
<path d="M4563 9785 c-2 -6 -2 -71 -1 -145 3 -132 3 -134 26 -133 12 0 33 1
47 2 25 1 25 2 25 85 0 47 5 88 10 91 6 3 10 17 10 30 0 28 26 45 68 45 36 0
42 -21 42 -155 l0 -93 36 -4 c21 -2 38 0 40 7 3 6 3 71 2 145 l-3 134 -149 1
c-96 0 -150 -3 -153 -10z"/>
<path d="M4311 7404 c0 -11 3 -14 6 -6 3 7 2 16 -1 19 -3 4 -6 -2 -5 -13z"/>
<path d="M8918 9813 c-35 -9 -17 -21 24 -17 41 4 66 14 35 14 -8 0 -21 2 -29
4 -7 2 -21 2 -30 -1z"/>
<path d="M9168 9803 c12 -2 30 -2 40 0 9 3 -1 5 -23 4 -22 0 -30 -2 -17 -4z"/>
<path d="M9040 9160 c0 -5 5 -10 10 -10 6 0 10 5 10 10 0 6 -4 10 -10 10 -5 0
-10 -4 -10 -10z"/>
<path d="M5420 9131 c0 -19 41 -22 195 -13 l150 9 -135 2 c-74 1 -152 4 -172
7 -25 4 -38 3 -38 -5z m47 -7 c-3 -3 -12 -4 -19 -1 -8 3 -5 6 6 6 11 1 17 -2
13 -5z"/>
<path d="M8872 9280 c0 -14 2 -19 5 -12 2 6 2 18 0 25 -3 6 -5 1 -5 -13z"/>
<path d="M9231 9244 c0 -11 3 -14 6 -6 3 7 2 16 -1 19 -3 4 -6 -2 -5 -13z"/>
<path d="M9298 8974 c12 -23 40 -49 46 -43 3 2 -9 18 -26 34 -22 21 -28 24
-20 9z"/>
<path d="M8705 7780 c-18 -8 -18 -9 5 -9 14 0 32 4 40 9 12 8 12 10 -5 9 -11
0 -29 -4 -40 -9z"/>
<path d="M6280 8690 c19 -35 70 -53 70 -25 0 8 8 15 18 16 19 1 -13 12 -66 22
-30 6 -32 5 -22 -13z"/>
<path d="M6494 8693 c7 -7 77 -5 85 2 2 3 -17 5 -44 5 -27 0 -45 -3 -41 -7z"/>
<path d="M6394 8675 c-10 -8 -14 -15 -7 -15 6 0 15 5 19 11 4 7 22 9 48 6 28
-4 35 -3 21 3 -30 13 -59 12 -81 -5z"/>
<path d="M6223 8635 c15 -90 53 -104 173 -59 38 14 55 23 37 20 -17 -3 -33 -1
-35 5 -2 6 -12 7 -23 3 -19 -8 -18 -9 5 -14 l25 -6 -27 -6 c-23 -4 -28 -2 -28
13 0 15 -8 19 -36 19 -26 0 -43 8 -66 31 l-31 30 6 -36z"/>
<path d="M6610 8651 c0 -11 25 -21 53 -21 11 0 29 -7 39 -17 10 -9 18 -11 18
-5 0 19 -52 52 -81 52 -16 0 -29 -4 -29 -9z"/>
<path d="M6548 8643 c12 -2 30 -2 40 0 9 3 -1 5 -23 4 -22 0 -30 -2 -17 -4z"/>
<path d="M6468 8623 c7 -3 16 -2 19 1 4 3 -2 6 -13 5 -11 0 -14 -3 -6 -6z"/>
<path d="M6505 8620 c-8 -13 5 -13 25 0 13 8 13 10 -2 10 -9 0 -20 -4 -23 -10z"/>
<path d="M6428 8613 c7 -3 16 -2 19 1 4 3 -2 6 -13 5 -11 0 -14 -3 -6 -6z"/>
<path d="M6622 8578 c3 -7 18 -15 34 -19 l29 -8 -24 19 c-26 22 -45 26 -39 8z"/>
<path d="M6520 8559 c0 -5 9 -9 20 -9 11 0 20 2 20 4 0 2 -9 6 -20 9 -11 3
-20 1 -20 -4z"/>
<path d="M6588 8563 c7 -3 16 -2 19 1 4 3 -2 6 -13 5 -11 0 -14 -3 -6 -6z"/>
<path d="M6478 8543 c7 -3 16 -2 19 1 4 3 -2 6 -13 5 -11 0 -14 -3 -6 -6z"/>
<path d="M6700 8494 c-6 -16 -10 -52 -9 -81 3 -56 -21 -99 -48 -88 -8 2 -11 0
-8 -5 9 -15 26 -12 47 6 16 16 18 16 24 0 8 -20 28 -21 44 -1 10 12 10 19 2
27 -7 7 -15 8 -19 4 -4 -4 -2 -11 6 -15 10 -7 10 -9 -3 -14 -24 -9 -29 27 -12
78 20 57 20 89 1 105 -12 10 -16 7 -25 -16z m25 -48 c-4 -20 -12 -36 -17 -36
-6 0 -8 10 -4 23 3 12 6 33 6 47 0 17 3 21 11 13 6 -6 8 -25 4 -47z"/>
<path d="M6806 8512 c-2 -4 10 -8 29 -8 19 0 31 4 29 8 -3 4 -16 8 -29 8 -13
0 -26 -4 -29 -8z"/>
<path d="M6232 8500 c-33 -14 -55 -74 -47 -126 8 -53 43 -85 89 -82 18 1 37
-2 44 -6 7 -4 12 -1 12 8 0 9 -7 16 -15 16 -14 0 -13 3 1 25 12 18 15 39 12
75 -3 28 -2 50 2 50 4 0 8 11 8 25 0 28 -13 33 -26 9 -8 -14 -10 -14 -21 0
-15 18 -26 19 -59 6z m52 -22 c13 -14 36 -73 36 -93 0 -7 -8 -23 -19 -36 l-19
-23 -42 19 c-41 20 -41 21 -37 63 7 65 49 101 81 70z"/>
<path d="M6618 8483 c5 -21 7 -23 10 -9 2 10 0 22 -6 28 -6 6 -7 0 -4 -19z"/>
<path d="M6757 8504 c-4 -4 -7 -14 -7 -23 0 -14 2 -14 10 -1 11 19 18 11 26
-28 4 -21 3 -32 -5 -32 -6 0 -11 -7 -11 -15 0 -8 5 -15 11 -15 11 0 8 -25 -8
-66 -4 -11 -3 -15 5 -10 6 4 14 22 18 40 4 23 13 36 27 40 34 9 36 8 40 -31 2
-24 4 -17 4 20 0 34 -4 54 -9 49 -15 -15 -58 -2 -58 18 0 22 -33 64 -43 54z
m73 -88 c0 -3 -4 -8 -10 -11 -5 -3 -10 -1 -10 4 0 6 5 11 10 11 6 0 10 -2 10
-4z"/>
<path d="M6140 8485 c-10 -12 -9 -27 5 -77 9 -34 14 -75 11 -92 -5 -29 -5 -30
9 -12 14 18 14 63 -1 108 -3 12 1 27 11 39 15 15 15 21 5 34 -16 19 -24 19
-40 0z m22 -27 c-7 -7 -12 -8 -12 -2 0 14 12 26 19 19 2 -3 -1 -11 -7 -17z"/>
<path d="M6421 8474 c0 -11 3 -14 6 -6 3 7 2 16 -1 19 -3 4 -6 -2 -5 -13z"/>
<path d="M6481 8444 c0 -11 3 -14 6 -6 3 7 2 16 -1 19 -3 4 -6 -2 -5 -13z"/>
<path d="M6538 8393 c7 -3 16 -2 19 1 4 3 -2 6 -13 5 -11 0 -14 -3 -6 -6z"/>
<path d="M6423 8363 c-3 -10 -13 -27 -22 -38 -16 -20 -15 -20 5 -2 11 9 23 15
25 13 2 -2 4 7 4 20 0 28 -3 30 -12 7z"/>
<path d="M6566 8371 c-4 -5 3 -7 14 -4 23 6 26 13 6 13 -8 0 -17 -4 -20 -9z"/>
<path d="M6100 8335 c0 -9 6 -12 17 -8 11 4 14 3 9 -5 -4 -7 -14 -12 -22 -12
-8 0 -14 -4 -14 -10 0 -13 16 -13 41 0 29 16 25 50 -6 50 -15 0 -25 -6 -25
-15z"/>
<path d="M6470 8332 c0 -6 -8 -13 -17 -15 -16 -4 -16 -5 -1 -6 18 -1 34 16 24
26 -3 4 -6 1 -6 -5z"/>
<path d="M6443 8263 c-13 -2 -23 -9 -23 -14 0 -5 -5 -9 -11 -9 -5 0 -7 4 -4
10 4 7 -3 7 -20 0 -24 -9 -70 -7 -134 6 -22 5 -23 3 -11 -11 17 -20 64 -45 85
-45 8 0 15 7 15 15 0 8 3 15 8 15 4 0 18 3 31 7 18 4 22 3 17 -6 -5 -7 9 -4
30 7 22 11 46 22 54 25 13 5 13 5 0 5 -8 0 -25 -3 -37 -5z"/>
<path d="M6634 8243 c-4 -10 -6 -22 -5 -26 1 -5 -13 -6 -31 -3 -25 5 -28 4
-13 -3 11 -5 37 -10 58 -10 44 -1 74 -14 100 -45 l19 -21 -6 25 c-3 14 -6 30
-6 36 0 6 -11 23 -25 38 -29 31 -79 36 -91 9z"/>
<path d="M6608 8243 c7 -3 16 -2 19 1 4 3 -2 6 -13 5 -11 0 -14 -3 -6 -6z"/>
<path d="M6568 8233 c7 -3 16 -2 19 1 4 3 -2 6 -13 5 -11 0 -14 -3 -6 -6z"/>
<path d="M6512 8216 c-35 -19 -8 -37 38 -26 35 8 26 13 -20 11 -25 -1 -25 -1
-2 9 12 5 22 12 22 15 0 8 -13 5 -38 -9z"/>
<path d="M6200 8192 c0 -5 11 -21 25 -36 25 -27 70 -34 123 -20 38 11 25 20
-30 23 -32 1 -66 10 -85 22 -18 12 -33 16 -33 11z"/>
<path d="M6445 8190 c-13 -6 -15 -9 -5 -9 8 0 22 4 30 9 18 12 2 12 -25 0z"/>
<path d="M6403 8173 c9 -2 15 -9 12 -14 -8 -11 6 -12 23 0 10 6 8 10 -10 14
-12 4 -27 6 -33 6 -5 -1 -2 -3 8 -6z"/>
<path d="M6380 8150 c0 -5 5 -10 11 -10 5 0 7 5 4 10 -3 6 -8 10 -11 10 -2 0
-4 -4 -4 -10z"/>
<path d="M6558 8133 c6 -2 18 -2 25 0 6 3 1 5 -13 5 -14 0 -19 -2 -12 -5z"/>
<path d="M6597 8126 c-4 -10 9 -17 46 -24 29 -6 53 -9 54 -8 2 1 -6 12 -17 24
-23 25 -75 30 -83 8z"/>
<path d="M6459 8115 c-3 -2 -30 -9 -60 -14 l-54 -9 60 0 c33 0 83 3 110 8 45
7 47 7 13 9 -20 0 -43 3 -50 6 -8 3 -16 3 -19 0z"/>
<path d="M6310 8062 c0 -15 28 -34 45 -30 12 2 8 8 -14 21 -17 10 -31 14 -31
9z"/>
<path d="M6380 8046 c0 -2 7 -7 16 -10 8 -3 12 -2 9 4 -6 10 -25 14 -25 6z"/>
<path d="M6520 8040 c0 -5 -15 -7 -32 -5 l-33 5 29 -10 c19 -6 36 -6 48 1 22
12 23 19 3 19 -8 0 -15 -4 -15 -10z"/>
<path d="M6428 8013 c6 -2 18 -2 25 0 6 3 1 5 -13 5 -14 0 -19 -2 -12 -5z"/>
<path d="M9297 8698 c8 -70 13 -74 13 -10 0 28 -4 53 -10 57 -5 3 -7 -15 -3
-47z"/>
<path d="M9080 8716 c0 -2 11 -6 25 -8 13 -3 22 -1 19 3 -5 9 -44 13 -44 5z"/>
<path d="M9158 8693 c12 -2 22 -9 22 -14 0 -6 5 -7 11 -3 15 9 -9 24 -36 22
-17 -1 -17 -1 3 -5z"/>
<path d="M9281 8678 c-1 -20 -5 -26 -16 -22 -9 4 -15 0 -15 -10 0 -9 7 -16 15
-16 16 0 30 41 22 62 -3 7 -6 1 -6 -14z"/>
<path d="M9245 8680 c3 -5 10 -10 16 -10 5 0 9 5 9 10 0 6 -7 10 -16 10 -8 0
-12 -4 -9 -10z"/>
<path d="M9214 8651 c21 -23 26 -26 26 -11 0 5 -10 15 -22 21 -23 12 -23 12
-4 -10z"/>
<path d="M9320 8635 c0 -14 4 -25 9 -25 4 0 6 11 3 25 -2 14 -6 25 -8 25 -2 0
-4 -11 -4 -25z"/>
<path d="M9243 8606 c2 -6 26 -11 53 -12 46 -1 46 -1 6 3 -23 2 -40 8 -38 12
3 4 -2 8 -10 8 -8 0 -13 -5 -11 -11z"/>
<path d="M9410 8384 c0 -11 5 -14 16 -10 9 3 22 6 30 6 8 0 14 5 14 10 0 6
-13 10 -30 10 -21 0 -30 -5 -30 -16z"/>
<path d="M9221 8369 c17 -11 69 -12 69 -1 0 4 -18 8 -41 8 -26 1 -36 -2 -28
-7z"/>
<path d="M9300 8370 c0 -5 5 -10 10 -10 6 0 10 5 10 10 0 6 -4 10 -10 10 -5 0
-10 -4 -10 -10z"/>
<path d="M9178 8353 c6 -2 18 -2 25 0 6 3 1 5 -13 5 -14 0 -19 -2 -12 -5z"/>
<path d="M9208 8263 c7 -3 16 -2 19 1 4 3 -2 6 -13 5 -11 0 -14 -3 -6 -6z"/>
<path d="M9193 8173 c-7 -2 -13 -18 -13 -33 0 -37 -18 -48 -26 -16 -3 14 -12
30 -20 37 -18 15 -18 8 0 -27 8 -15 12 -32 8 -38 -6 -9 -11 -96 -6 -96 1 0 12
20 24 45 26 53 46 54 42 3 -4 -41 19 -68 42 -49 10 8 16 9 21 1 11 -18 54 -11
65 11 12 22 -4 54 -21 43 -12 -7 -11 -34 1 -34 5 0 7 8 4 18 -5 14 -4 14 4 2
8 -10 8 -18 0 -27 -16 -19 -35 -16 -52 9 -19 27 -21 49 -3 42 28 -10 64 14 69
45 10 69 -70 82 -92 15 -15 -45 -44 -43 -48 4 -2 23 1 32 12 32 8 0 18 -5 22
-12 5 -8 2 -9 -9 -5 -10 3 -17 2 -17 -3 0 -13 27 -13 35 0 4 6 1 17 -5 25 -13
16 -17 17 -37 8z m117 -27 c6 -8 10 -25 8 -38 -2 -18 -10 -24 -35 -26 -29 -3
-33 0 -33 22 0 24 23 56 39 56 5 0 14 -7 21 -14z m-70 -103 c0 -7 -6 -13 -14
-13 -9 0 -12 8 -8 26 3 19 7 22 13 12 5 -7 9 -19 9 -25z"/>
<path d="M9417 8174 c-4 -4 -7 -26 -7 -48 0 -28 -3 -36 -9 -27 -6 9 -10 -5
-12 -43 -4 -58 13 -76 19 -20 2 16 8 33 13 39 5 5 9 17 9 26 0 9 9 19 21 22
28 7 23 51 -6 55 -12 2 -24 0 -28 -4z"/>
<path d="M9168 7883 c6 -2 18 -2 25 0 6 3 1 5 -13 5 -14 0 -19 -2 -12 -5z"/>
<path d="M9200 7780 l45 -6 -45 -5 c-30 -4 -14 -6 48 -7 51 -1 91 2 88 7 -3 5
-23 6 -45 4 -22 -3 -42 0 -46 6 -3 6 -25 10 -48 9 l-42 -1 45 -7z"/>
<path d="M9390 7758 c0 -8 12 -12 32 -11 44 2 46 3 23 13 -30 13 -55 12 -55
-2z"/>
<path d="M9068 7543 c6 -2 18 -2 25 0 6 3 1 5 -13 5 -14 0 -19 -2 -12 -5z"/>
<path d="M9140 7535 c0 -8 5 -15 10 -15 6 0 10 4 10 10 0 5 39 11 88 13 l87 3
-97 2 c-81 2 -98 -1 -98 -13z"/>
<path d="M9322 7510 c0 -14 2 -19 5 -12 2 6 2 18 0 25 -3 6 -5 1 -5 -13z"/>
<path d="M9168 7493 c6 -2 18 -2 25 0 6 3 1 5 -13 5 -14 0 -19 -2 -12 -5z"/>
<path d="M9450 8801 c5 -11 15 -23 21 -27 6 -3 3 5 -6 20 -20 30 -30 35 -15 7z"/>
<path d="M3530 8388 c0 -18 7 -123 15 -233 8 -110 15 -219 15 -242 0 -32 4
-43 16 -43 17 0 17 -8 -12 295 -8 83 -14 171 -14 197 0 26 -4 50 -10 53 -6 4
-10 -7 -10 -27z"/>
<path d="M3720 8360 c-19 -6 -13 -8 30 -9 30 -1 71 -4 91 -7 29 -5 36 -3 36
10 0 13 -12 16 -66 15 -36 -1 -77 -5 -91 -9z"/>
<path d="M3717 8299 c17 -17 35 -24 68 -25 57 -2 85 5 85 20 0 8 -19 11 -64 8
-38 -3 -73 1 -87 8 l-24 12 22 -23z"/>
<path d="M3640 8205 c-12 -15 -6 -50 7 -42 5 3 6 -19 5 -49 -3 -36 0 -54 8
-54 6 0 8 5 5 11 -4 6 2 5 13 -2 27 -17 72 2 72 31 0 11 5 20 11 20 7 0 9 -10
5 -26 -5 -17 -3 -23 4 -19 5 3 10 14 10 25 0 15 18 30 36 30 2 0 4 -16 4 -35
0 -34 20 -49 35 -25 4 7 13 6 27 -1 16 -9 24 -7 37 7 15 17 15 17 -3 4 -16
-13 -20 -12 -36 8 -21 26 -15 62 10 62 29 0 50 -11 50 -26 0 -8 4 -14 9 -14 4
0 6 10 4 23 -4 17 -12 23 -42 25 -43 3 -66 -16 -58 -48 3 -13 1 -18 -6 -13 -6
4 -8 0 -4 -10 3 -10 2 -17 -4 -17 -10 0 -6 53 7 98 8 28 -11 52 -42 52 -27 0
-39 -15 -39 -49 0 -13 -6 -26 -12 -28 -20 -7 -27 25 -9 42 21 22 20 28 -3 20
-11 -3 -22 -1 -26 5 -9 15 -61 12 -75 -5z m61 -5 c27 -15 24 -30 -6 -30 -18 0
-25 5 -25 20 0 23 4 24 31 10z m133 -5 c3 -8 3 -22 -1 -31 -8 -21 -47 -14 -51
10 -6 31 40 50 52 21z m-139 -45 c-3 -5 -11 -10 -16 -10 -6 0 -7 5 -4 10 3 6
11 10 16 10 6 0 7 -4 4 -10z m43 -34 c6 -29 -24 -47 -54 -34 -26 12 -28 17
-16 34 18 28 65 28 70 0z"/>
<path d="M4045 8210 c-3 -6 -4 -31 0 -58 l6 -47 -26 48 c-37 69 -79 82 -51 16
9 -19 15 -28 16 -21 0 7 -5 22 -10 33 -8 13 -7 19 0 19 15 0 49 -79 50 -115 1
-29 1 -29 16 -10 10 14 14 37 12 73 -2 38 1 52 10 52 7 0 10 5 7 10 -8 13 -22
13 -30 0z"/>
<path d="M3860 8195 c0 -8 2 -15 4 -15 2 0 6 7 10 15 3 8 1 15 -4 15 -6 0 -10
-7 -10 -15z"/>
<path d="M3920 8203 c8 -3 19 -11 23 -17 6 -7 7 -6 4 4 -2 8 -12 16 -23 17
-13 2 -15 1 -4 -4z"/>
<path d="M3991 8104 c0 -11 3 -14 6 -6 3 7 2 16 -1 19 -3 4 -6 -2 -5 -13z"/>
<path d="M4038 8013 c6 -2 18 -2 25 0 6 3 1 5 -13 5 -14 0 -19 -2 -12 -5z"/>
<path d="M3820 7983 c-19 -15 -44 -36 -54 -45 -11 -10 -25 -18 -30 -19 -6 0
-3 -3 6 -7 10 -4 46 -5 80 -2 49 4 64 9 66 23 4 19 -9 21 -57 7 -52 -15 -49
-4 5 22 47 22 59 40 32 46 -7 1 -29 -10 -48 -25z"/>
<path d="M4008 7392 c-1 -34 0 -62 4 -62 8 0 15 99 6 112 -3 6 -8 -17 -10 -50z"/>
<path d="M5426 8581 c-3 -5 8 -14 24 -20 21 -7 30 -16 30 -32 0 -12 3 -20 6
-16 3 3 3 19 -1 35 -5 24 -10 29 -27 24 -14 -3 -19 -1 -14 6 4 7 3 12 -3 12
-5 0 -12 -4 -15 -9z"/>
<path d="M5500 8549 c0 -16 4 -28 9 -25 5 4 12 0 14 -6 3 -7 6 -3 6 9 1 27 -9
53 -20 53 -5 0 -9 -14 -9 -31z"/>
<path d="M5445 8526 c0 -15 5 -22 13 -18 15 5 12 34 -3 39 -5 2 -10 -8 -10
-21z"/>
<path d="M4600 8026 c0 -2 7 -7 16 -10 8 -3 12 -2 9 4 -6 10 -25 14 -25 6z"/>
<path d="M4698 7974 c4 -50 6 -55 25 -52 30 4 34 47 7 81 -12 15 -24 27 -28
27 -4 0 -5 -25 -4 -56z"/>
<path d="M4757 8017 c-3 -7 -1 -20 3 -28 7 -11 10 -10 16 4 4 10 2 23 -3 28
-7 7 -12 6 -16 -4z"/>
<path d="M4650 7954 c0 -9 7 -14 17 -12 25 5 28 28 4 28 -12 0 -21 -6 -21 -16z"/>
<path d="M7325 7999 c-10 -14 -1 -21 19 -13 9 3 13 10 10 15 -7 12 -21 11 -29
-2z"/>
<path d="M7580 7995 c0 -9 6 -12 15 -9 8 4 15 10 15 15 0 5 -7 9 -15 9 -8 0
-15 -7 -15 -15z"/>
<path d="M7441 7831 c-8 -6 -9 -11 -3 -15 6 -3 14 -1 17 5 9 14 2 20 -14 10z"/>
<path d="M5662 7560 c0 -14 2 -19 5 -12 2 6 2 18 0 25 -3 6 -5 1 -5 -13z"/>
<path d="M4668 7813 c-16 -2 -28 -9 -28 -14 0 -11 39 -2 55 12 5 5 7 8 5 8 -3
-1 -17 -4 -32 -6z"/>
<path d="M8584 7554 c3 -9 6 -20 6 -26 0 -6 6 -8 14 -5 16 7 36 -11 36 -33 0
-11 -9 -15 -35 -14 -19 1 -35 -2 -35 -7 0 -5 11 -7 23 -5 35 6 50 -7 42 -35
-5 -18 -4 -21 4 -13 7 7 11 34 9 70 -3 54 -5 59 -25 57 -15 -2 -23 3 -23 12 0
8 -5 15 -11 15 -6 0 -8 -7 -5 -16z"/>
<path d="M8536 7465 c4 -8 8 -15 10 -15 2 0 4 7 4 15 0 8 -4 15 -10 15 -5 0
-7 -7 -4 -15z"/>
<path d="M8494 7395 c-1 -40 11 -35 21 8 5 19 3 27 -6 27 -9 0 -14 -13 -15
-35z"/>
<path d="M8542 7409 c-2 -28 -19 -54 -42 -62 -8 -3 1 -5 20 -6 19 0 44 4 54 8
19 7 19 8 -1 13 -15 4 -23 15 -26 39 -3 26 -4 28 -5 8z"/>
<path d="M8582 7405 c0 -16 2 -22 5 -12 2 9 2 23 0 30 -3 6 -5 -1 -5 -18z"/>
<path d="M8622 7365 c-1 -26 3 -35 15 -35 11 0 13 3 5 13 -6 7 -9 23 -5 35 3
12 1 22 -4 22 -5 0 -10 -16 -11 -35z"/>
<path d="M8500 7310 c0 -13 30 -13 50 0 11 7 7 10 -17 10 -18 0 -33 -4 -33
-10z"/>
<path d="M8628 7313 c7 -3 16 -2 19 1 4 3 -2 6 -13 5 -11 0 -14 -3 -6 -6z"/>
<path d="M8240 7378 c0 -18 5 -28 15 -28 19 0 19 11 0 36 -14 18 -14 18 -15
-8z"/>
<path d="M6060 6598 c0 -2 7 -27 15 -54 25 -86 35 -211 28 -351 l-6 -135 34 7
c118 23 202 76 248 156 38 68 46 125 27 192 -33 112 -124 176 -262 185 -46 2
-84 3 -84 0z"/>
<path d="M10070 6506 c0 -3 9 -42 20 -88 16 -68 20 -118 20 -276 l0 -192 28 6
c60 15 140 61 190 110 67 68 95 129 95 214 1 148 -96 230 -273 230 -44 0 -80
-2 -80 -4z"/>
<path d="M5295 5820 c3 -5 8 -10 11 -10 2 0 4 5 4 10 0 6 -5 10 -11 10 -5 0
-7 -4 -4 -10z"/>
<path d="M10056 5013 c-11 -11 -6 -23 9 -23 8 0 15 4 15 9 0 13 -16 22 -24 14z"/>
<path d="M1030 4595 c0 -5 5 -17 10 -25 5 -8 10 -10 10 -5 0 6 -5 17 -10 25
-5 8 -10 11 -10 5z"/>
<path d="M9690 4693 c0 -7 3 -13 8 -13 4 0 15 -14 25 -31 10 -18 20 -29 23
-26 3 3 1 12 -5 19 -6 7 -20 24 -31 38 -10 14 -19 19 -20 13z"/>
<path d="M9571 4626 c2 -2 18 -6 34 -10 22 -5 26 -4 15 4 -14 9 -59 15 -49 6z"/>
<path d="M0 450 l0 -450 6500 0 6500 0 0 450 0 450 -6500 0 -6500 0 0 -450z
m970 241 c6 -12 10 -109 10 -245 0 -191 -2 -227 -16 -240 -23 -24 -465 -24
-488 0 -14 13 -16 49 -16 240 0 136 4 233 10 245 10 18 24 19 250 19 226 0
240 -1 250 -19z m534 13 c14 -5 16 -33 16 -204 0 -172 -2 -199 -16 -204 -9 -3
-20 -4 -25 0 -10 6 -13 397 -2 407 8 8 8 8 27 1z m2106 -126 l5 -118 48 60
c35 44 54 60 72 60 14 0 25 -3 25 -7 0 -4 -17 -27 -38 -52 -20 -25 -43 -54
-51 -63 -11 -15 -6 -25 44 -84 36 -43 53 -70 47 -76 -18 -18 -49 2 -99 60
l-48 56 -5 -59 c-4 -52 -8 -60 -25 -60 -19 0 -20 8 -23 203 l-2 203 22 -3 c22
-3 23 -8 28 -120z m640 51 c0 -64 2 -70 18 -63 9 5 39 9 65 9 71 0 77 -13 77
-156 0 -65 -4 -120 -9 -123 -5 -4 -16 -3 -25 0 -13 5 -16 25 -16 115 0 106 -1
110 -24 120 -18 9 -31 8 -52 -3 -29 -13 -29 -14 -34 -123 -5 -102 -7 -110 -25
-110 -19 0 -20 8 -23 203 l-2 202 25 0 c24 0 25 -2 25 -71z m-1292 -16 c3 -26
8 -32 30 -35 16 -2 28 -10 30 -20 3 -14 -3 -18 -28 -18 l-31 0 3 -97 3 -98 28
-3 c22 -3 28 -8 25 -25 -4 -26 -30 -33 -68 -17 -35 14 -40 32 -40 148 0 85 -1
92 -20 92 -26 0 -26 30 -1 37 12 3 21 17 26 40 8 45 39 43 43 -4z m1840 -1 c3
-26 7 -32 28 -32 17 0 24 -5 24 -20 0 -15 -7 -20 -25 -20 l-25 0 0 -100 0
-100 25 0 c29 0 45 -27 24 -41 -19 -13 -71 -2 -86 18 -9 11 -13 53 -13 120 0
96 -1 103 -20 103 -12 0 -20 7 -20 16 0 9 9 18 20 21 14 4 20 14 20 32 0 54
43 56 48 3z m6977 -53 l11 -44 12 48 c7 26 16 47 21 47 5 0 16 -19 24 -42 l14
-43 12 43 c6 23 16 42 22 42 6 0 8 -8 5 -17 -2 -10 -10 -37 -17 -61 -15 -51
-30 -50 -45 4 l-12 39 -11 -28 c-6 -16 -11 -35 -11 -43 0 -8 -6 -14 -14 -14
-8 0 -19 23 -29 61 -10 41 -11 59 -4 56 6 -2 16 -23 22 -48z m214 -5 c23 -60
21 -82 -5 -46 -19 27 -50 28 -57 2 -3 -11 -10 -20 -15 -20 -6 0 -1 27 11 60
12 33 27 60 33 60 6 0 21 -25 33 -56z m117 49 c-4 -4 -19 -7 -34 -8 -17 0 -28
-6 -30 -17 -3 -14 4 -18 30 -19 l33 -1 -30 -7 c-23 -5 -31 -12 -33 -34 -6 -51
-22 -27 -22 33 l0 60 47 0 c25 0 43 -3 39 -7z m80 -23 c1 -14 5 -33 9 -43 10
-24 -13 -49 -44 -45 -24 3 -26 7 -28 53 -2 52 8 67 42 63 14 -2 20 -11 21 -28z
m120 -16 c0 -23 4 -49 7 -58 4 -10 1 -16 -8 -16 -8 0 -15 12 -17 28 -2 21 -8
27 -28 27 -20 0 -26 -6 -28 -27 -6 -53 -20 -28 -19 32 l1 61 46 -3 45 -3 1
-41z m113 32 c16 -20 17 -72 1 -91 -7 -9 -29 -15 -51 -15 l-39 0 0 60 0 60 39
0 c21 0 44 -6 50 -14z m-11042 -40 c27 -24 28 -27 31 -140 4 -113 3 -116 -17
-116 -12 0 -24 7 -28 15 -5 14 -7 14 -22 1 -25 -23 -67 -29 -106 -16 -39 13
-55 35 -55 75 0 60 47 95 130 95 55 0 61 9 34 49 -17 24 -41 25 -116 6 -24 -6
-28 -4 -28 14 0 27 29 40 97 40 41 1 58 -4 80 -23z m398 -1 c23 -22 25 -32 25
-117 0 -51 3 -103 6 -115 5 -20 2 -23 -20 -23 -15 0 -26 6 -26 14 0 10 -9 9
-40 -6 -78 -39 -144 -4 -138 73 4 57 47 89 119 89 44 0 49 2 49 23 0 46 -42
59 -110 36 -25 -9 -34 -9 -40 2 -18 29 20 47 98 48 43 1 57 -3 77 -24z m131
10 c5 -13 8 -13 27 0 28 20 87 19 115 -1 20 -14 24 -14 44 0 35 25 94 20 123
-9 24 -23 25 -30 25 -140 l0 -115 -25 0 -25 0 0 104 c0 82 -3 108 -16 120 -20
20 -43 20 -72 0 -20 -14 -22 -23 -22 -120 l0 -104 -25 0 c-25 0 -25 0 -25 98
0 131 -27 169 -88 126 -20 -14 -22 -23 -22 -120 0 -103 0 -104 -24 -104 l-24
0 -4 133 c-2 72 -2 135 0 140 6 13 32 8 38 -8z m455 -75 c18 -49 36 -90 40
-90 4 0 13 17 20 38 39 121 50 142 75 142 13 0 24 -3 24 -7 0 -4 -28 -78 -61
-165 -64 -164 -100 -218 -144 -218 -36 0 -37 32 -1 50 17 8 37 27 45 41 14 25
12 35 -32 151 -26 68 -47 130 -47 136 0 7 11 12 23 12 21 0 28 -12 58 -90z
m458 81 c8 -5 11 -16 7 -26 -5 -13 -14 -16 -40 -11 -43 8 -66 -1 -66 -26 0
-14 15 -26 54 -43 57 -25 66 -38 66 -88 -1 -36 -15 -58 -47 -75 -27 -15 -47
-15 -96 -1 -28 7 -37 15 -35 27 3 14 15 17 63 17 60 0 60 0 60 30 0 30 -7 36
-80 67 -26 11 -30 19 -33 55 -4 56 24 83 87 83 25 0 52 -4 60 -9z m408 -11
c39 -23 58 -82 50 -152 -7 -59 -23 -84 -66 -104 -48 -23 -106 -13 -144 25 -59
58 -45 200 22 236 37 20 101 18 138 -5z m278 7 c31 -23 9 -39 -44 -32 -38 5
-52 3 -70 -12 -28 -23 -39 -98 -21 -143 15 -35 43 -45 105 -37 32 5 45 3 48
-8 14 -36 -83 -58 -145 -32 -53 22 -71 63 -66 148 4 70 21 102 63 120 32 13
110 10 130 -4z m453 -3 c9 -16 11 -16 33 0 33 23 94 21 119 -4 30 -30 40 -63
40 -128 0 -113 -66 -164 -162 -127 -15 6 -17 -2 -20 -57 -3 -55 -5 -63 -23
-63 -19 0 -20 8 -25 188 -5 175 -1 207 22 207 4 0 11 -7 16 -16z m682 3 c35
-17 60 -73 60 -132 0 -73 -25 -117 -77 -135 -38 -13 -48 -13 -85 0 -51 19 -76
51 -84 112 -8 61 15 127 53 150 33 21 98 23 133 5z m421 -4 c37 -22 54 -65 54
-135 -1 -70 -24 -107 -82 -127 -57 -20 -116 -3 -143 42 -42 69 -17 203 43 227
36 14 97 11 128 -7z m6689 -263 c0 -33 -4 -60 -10 -60 -6 0 -10 27 -10 60 0
33 4 60 10 60 6 0 10 -27 10 -60z m-505 3 l7 -28 10 28 c5 15 13 27 18 27 5 0
13 -12 18 -27 l10 -28 7 28 c10 39 41 36 51 -5 l7 -33 9 33 c5 17 13 32 18 32
5 0 13 -15 18 -32 l9 -33 7 33 c9 40 38 43 53 5 l10 -28 8 28 c10 36 22 34 33
-5 l9 -33 7 33 c4 17 12 32 18 32 6 0 7 -8 3 -17 -3 -10 -9 -30 -12 -45 -6
-33 -23 -37 -30 -8 -3 11 -9 20 -14 20 -5 0 -9 -9 -9 -20 0 -34 -27 -22 -34
15 -9 45 -22 45 -30 -1 -8 -38 -29 -42 -34 -6 -5 30 -22 28 -22 -3 0 -39 -28
-31 -36 10 -3 19 -10 35 -15 35 -4 0 -11 -16 -15 -35 -8 -42 -20 -45 -36 -7
l-12 27 -4 -27 c-2 -16 -9 -28 -16 -28 -8 0 -16 12 -19 28 -3 15 -9 35 -12 45
-4 9 -3 17 3 17 5 0 13 -12 17 -27z m466 -19 l5 -42 -35 2 c-29 1 -36 5 -36
21 0 13 8 21 23 23 12 2 22 10 22 18 0 17 -12 18 -28 2 -14 -14 -27 -4 -17 12
4 6 19 10 33 8 23 -3 28 -9 33 -44z m129 0 l6 -41 -38 -1 c-32 -2 -38 1 -38
18 0 12 7 23 15 25 51 16 50 16 35 25 -9 5 -19 5 -27 -2 -16 -13 -28 -4 -18
12 4 6 19 10 33 8 23 -3 28 -9 32 -44z m138 -1 c2 -26 -1 -43 -7 -43 -6 0 -11
18 -11 41 0 52 -24 48 -28 -4 -4 -50 -22 -47 -22 4 0 52 -24 48 -28 -4 -5 -53
-22 -46 -22 8 l0 45 58 -2 57 -3 3 -42z m42 15 l13 -33 10 33 c5 17 14 32 20
32 5 0 7 -6 5 -12 -3 -7 -13 -37 -22 -65 -10 -31 -24 -53 -32 -53 -11 0 -12 4
-3 18 9 15 8 29 -4 65 -18 53 -6 65 13 15z m188 14 c3 -9 -3 -11 -22 -6 -30 7
-46 -17 -26 -41 10 -12 16 -13 27 -4 15 13 28 6 18 -10 -3 -6 -17 -11 -31 -11
-31 0 -50 41 -33 71 12 23 59 23 67 1z m93 -3 c16 -31 -3 -69 -36 -69 -31 0
-51 40 -35 71 14 26 56 25 71 -2z m137 -26 c2 -24 -1 -43 -6 -43 -5 0 -9 13
-10 30 -2 60 -32 65 -32 4 0 -19 -4 -34 -10 -34 -5 0 -10 18 -10 41 0 52 -24
48 -28 -4 -5 -53 -22 -46 -22 8 l0 45 58 -2 57 -3 3 -42z m-828 -33 c0 -5 -5
-10 -11 -10 -5 0 -7 5 -4 10 3 6 8 10 11 10 2 0 4 -4 4 -10z m500 0 c0 -5 -4
-10 -10 -10 -5 0 -10 5 -10 10 0 6 5 10 10 10 6 0 10 -4 10 -10z"/>
<path d="M642 589 c-26 -10 -27 -47 -1 -40 8 2 31 8 51 13 28 8 46 7 68 -2 25
-10 30 -18 30 -46 l0 -34 -50 0 c-60 0 -114 -20 -129 -48 -6 -12 -11 -36 -11
-56 0 -69 94 -101 168 -56 32 20 32 20 32 0 0 -14 7 -20 21 -20 20 0 21 4 17
126 -3 124 -3 126 -31 150 -23 19 -39 24 -85 23 -31 0 -67 -4 -80 -10z m146
-181 c-3 -39 -7 -45 -42 -62 -56 -27 -90 -14 -94 37 -3 34 0 39 30 52 18 8 50
14 71 15 l38 0 -3 -42z"/>
<path d="M11946 564 c-9 -22 -8 -24 9 -24 8 0 15 6 15 14 0 22 -17 28 -24 10z"/>
<path d="M12140 574 c0 -9 7 -14 17 -12 25 5 28 28 4 28 -12 0 -21 -6 -21 -16z"/>
<path d="M12140 540 c-13 -8 -13 -11 2 -27 21 -20 45 -5 35 21 -7 18 -16 20
-37 6z"/>
<path d="M12230 580 c0 -15 7 -20 24 -20 14 0 28 5 31 11 9 13 7 15 -27 23
-24 5 -28 3 -28 -14z"/>
<path d="M12357 593 c-11 -10 -8 -81 3 -88 15 -9 60 22 60 40 0 16 -34 55 -48
55 -5 0 -12 -3 -15 -7z"/>
<path d="M1263 420 c-26 -11 -39 -46 -23 -65 16 -19 53 -19 90 0 23 12 30 22
30 45 0 28 -2 30 -37 29 -21 0 -48 -4 -60 -9z"/>
<path d="M1652 414 c-16 -11 -22 -24 -20 -42 2 -22 9 -28 36 -30 47 -5 82 21
82 58 0 28 -3 30 -38 30 -21 0 -48 -7 -60 -16z"/>
<path d="M3113 525 c-39 -27 -43 -134 -7 -170 23 -22 77 -19 100 6 14 16 19
36 19 81 -1 51 -4 63 -24 79 -28 23 -59 24 -88 4z"/>
<path d="M3998 524 c-27 -14 -28 -18 -28 -89 0 -82 9 -95 69 -95 40 0 61 32
61 93 0 93 -38 126 -102 91z"/>
<path d="M4531 521 c-42 -42 -33 -165 13 -177 75 -19 109 16 103 105 -3 41 -9
59 -27 73 -29 23 -65 23 -89 -1z"/>
<path d="M4945 515 c-20 -19 -25 -34 -25 -77 0 -72 19 -98 70 -98 57 0 76 34
72 128 -4 66 -71 94 -117 47z"/>
<path d="M11655 271 c-10 -18 17 -23 33 -7 15 15 15 16 -5 16 -12 0 -24 -4
-28 -9z"/>
<path d="M11785 271 c-10 -18 17 -23 33 -7 15 15 15 16 -5 16 -12 0 -24 -4
-28 -9z"/>
<path d="M12250 305 c-16 -20 -6 -45 20 -45 23 0 28 31 6 49 -10 9 -16 8 -26
-4z"/>
</g>
</svg>
