<?xml version="1.0" standalone="no"?>
<!DOCTYPE svg PUBLIC "-//W3C//DTD SVG 20010904//EN"
 "http://www.w3.org/TR/2001/REC-SVG-20010904/DTD/svg10.dtd">
<svg version="1.0" xmlns="http://www.w3.org/2000/svg"
 width="960.000000pt" height="502.000000pt" viewBox="0 0 960.000000 502.000000"
 preserveAspectRatio="xMidYMid meet">

<g transform="translate(0.000000,502.000000) scale(0.100000,-0.100000)"
fill="#000000" stroke="none">
<path d="M5830 4430 c-14 -4 -39 -8 -56 -9 -50 -2 -175 -46 -245 -87 -70 -41
-201 -166 -240 -229 -82 -131 -119 -261 -119 -415 0 -127 22 -223 77 -338 35
-75 60 -109 126 -177 45 -47 87 -85 94 -85 7 0 13 -4 13 -9 0 -5 35 -26 78
-46 42 -21 85 -41 94 -46 10 -5 25 -9 33 -9 8 0 23 -4 33 -9 34 -18 205 -33
252 -22 25 6 62 11 82 11 20 0 40 5 43 10 3 6 19 10 36 10 16 0 29 5 29 10 0
6 7 10 15 10 8 0 23 4 33 10 9 5 33 16 53 25 20 9 46 25 57 35 12 11 24 20 27
20 3 0 17 10 30 23 13 12 32 29 42 37 27 22 113 134 113 148 0 7 3 12 8 12 4
0 13 15 21 33 7 17 20 45 27 61 8 16 14 37 14 48 0 10 4 18 9 18 8 0 12 25 28
148 3 23 9 42 14 42 12 0 12 47 0 54 -4 3 -12 29 -15 58 -15 110 -18 128 -27
134 -5 3 -9 16 -9 30 0 13 -4 24 -10 24 -5 0 -10 7 -10 15 0 18 -31 86 -47
103 -7 7 -13 17 -13 21 0 4 -8 17 -17 29 -10 11 -27 33 -38 48 -37 51 -158
153 -182 154 -6 0 -13 4 -15 8 -5 13 -89 49 -153 65 -141 36 -231 44 -285 27z
m668 -338 c9 -7 12 -85 10 -358 l-3 -349 -64 -3 c-45 -2 -67 1 -72 10 -7 11
-12 11 -29 0 -28 -17 -131 -17 -161 0 -85 47 -115 128 -107 283 7 121 36 178
115 223 27 14 139 16 148 2 3 -5 12 -10 18 -10 9 0 11 24 9 84 -5 112 3 126
71 126 29 0 58 -4 65 -8z m-1080 -191 c6 -1 12 -8 12 -17 0 -13 5 -12 29 5 40
28 111 28 162 -1 22 -12 39 -26 39 -31 0 -4 -19 -31 -42 -58 -40 -48 -63 -60
-70 -38 -6 19 -80 13 -92 -7 -6 -11 -13 -95 -16 -194 l-5 -175 -72 -3 -73 -3
0 255 c0 210 2 256 14 263 12 7 40 8 114 4z m509 -12 c40 -22 79 -60 101 -98
16 -27 27 -148 18 -185 l-7 -27 -147 1 c-157 1 -158 1 -126 -47 12 -19 23 -23
67 -23 36 0 60 6 77 20 14 11 30 19 35 19 6 0 30 -18 54 -40 l45 -40 -27 -25
c-14 -13 -31 -24 -37 -24 -5 0 -10 -3 -10 -7 0 -19 -60 -33 -135 -33 -73 0
-86 3 -128 30 -26 16 -47 33 -47 38 0 4 -8 17 -18 28 -38 40 -53 170 -31 257
14 56 65 124 114 152 54 32 149 34 202 4z"/>
<path d="M6231 3753 c-10 -11 -14 -44 -14 -114 -1 -87 1 -101 19 -114 23 -18
81 -19 98 -2 39 39 48 162 16 215 -17 28 -25 32 -62 32 -26 -1 -48 -7 -57 -17z"/>
<path d="M5770 3760 c-11 -11 -20 -24 -20 -30 0 -5 0 -13 0 -16 0 -7 139 -8
146 -1 7 7 -15 49 -30 59 -22 15 -76 8 -96 -12z"/>
<path d="M3120 3751 c0 -317 1 -339 18 -337 9 2 29 0 45 -5 18 -5 27 -4 27 4
1 7 0 92 0 189 -1 117 3 179 10 183 13 8 40 -13 40 -31 0 -8 17 -51 38 -97 21
-45 44 -97 52 -114 11 -30 16 -33 57 -33 43 0 44 1 64 48 11 26 32 72 46 102
14 30 30 66 35 80 19 46 25 55 39 55 11 0 14 -35 16 -190 1 -104 4 -189 7
-187 3 1 24 2 46 2 l40 0 0 335 0 335 -48 0 c-53 0 -44 11 -102 -125 -30 -70
-48 -109 -86 -192 -19 -40 -34 -80 -34 -88 0 -8 -9 -15 -20 -15 -11 0 -20 7
-20 15 0 9 -20 58 -45 108 -25 51 -45 96 -45 100 0 3 -21 49 -46 102 l-46 95
-44 0 -44 0 0 -339z"/>
<path d="M3926 3891 c-45 -10 -116 -77 -116 -110 0 -11 -4 -23 -10 -26 -5 -3
-10 -44 -10 -91 0 -172 84 -255 242 -241 58 5 138 41 138 62 0 6 -13 24 -29
39 -28 27 -31 27 -46 12 -10 -9 -33 -23 -52 -31 -30 -13 -42 -13 -70 -3 -46
17 -75 50 -76 90 l-2 33 148 3 147 3 0 59 c0 84 -35 157 -90 185 -36 18 -123
26 -174 16z m122 -91 c37 -35 52 -72 37 -93 -10 -14 -28 -17 -92 -17 -89 0
-108 10 -97 54 17 68 104 100 152 56z"/>
<path d="M4362 3889 c-90 -12 -122 -72 -122 -235 0 -121 22 -189 72 -218 40
-24 146 -25 179 -2 38 27 48 21 42 -26 -8 -63 -44 -98 -101 -98 -29 0 -54 7
-73 21 -27 19 -32 20 -53 6 -13 -9 -31 -23 -40 -33 -16 -15 -16 -18 4 -36 11
-11 42 -29 67 -40 77 -34 196 -12 246 46 43 49 47 76 47 352 l0 264 -50 0
c-38 0 -50 -4 -50 -15 0 -18 -12 -19 -27 -4 -17 17 -82 25 -141 18z m110 -81
c43 -21 58 -57 58 -141 0 -105 -15 -139 -70 -163 -19 -9 -32 -7 -61 9 -49 26
-59 52 -59 148 0 83 19 139 47 139 7 0 13 5 13 10 0 14 41 13 72 -2z"/>
<path d="M4815 3891 c-39 -7 -95 -36 -95 -50 0 -4 8 -13 18 -21 52 -44 50 -43
73 -21 36 33 108 29 148 -8 30 -28 37 -53 25 -85 -5 -13 -24 -16 -105 -16
-111 0 -141 -10 -169 -55 -36 -58 -27 -135 21 -181 28 -26 38 -29 113 -32 53
-3 92 1 106 8 18 9 24 9 30 0 4 -7 29 -13 54 -14 l46 -1 0 190 c0 171 -2 193
-20 222 -10 18 -32 38 -47 46 -34 18 -144 28 -198 18z m156 -271 c38 -21 14
-93 -39 -116 -19 -8 -44 -14 -57 -14 -33 0 -80 27 -94 54 -11 20 -10 28 4 49
9 14 29 28 43 30 55 8 124 7 143 -3z"/>
<path d="M3914 2676 c-106 -26 -194 -100 -242 -205 -21 -46 -26 -71 -25 -136
0 -104 34 -184 103 -249 152 -142 358 -134 498 18 63 70 87 134 86 236 0 161
-105 293 -269 336 -60 16 -84 16 -151 0z m183 -35 c23 -11 46 -29 52 -40 10
-17 7 -23 -16 -38 -22 -15 -49 -18 -143 -18 -94 0 -121 3 -143 18 -23 15 -26
21 -16 38 17 33 86 59 159 59 42 0 79 -7 107 -19z m63 -196 c0 -24 -5 -35 -15
-35 -10 0 -15 11 -15 35 0 24 5 35 15 35 10 0 15 -11 15 -35z m110 2 c0 -7
-16 -28 -35 -47 -30 -29 -35 -31 -41 -16 -4 11 3 27 22 47 29 31 54 38 54 16z
m-446 -64 c9 -23 -2 -29 -24 -15 -48 29 -93 -5 -71 -54 12 -26 40 -31 71 -12
27 17 37 2 15 -22 -27 -30 -78 -27 -104 6 -12 15 -21 39 -21 54 0 26 30 63 60
72 22 7 67 -11 74 -29z m54 -45 c-2 -46 -7 -73 -15 -76 -10 -3 -13 16 -13 72
0 62 3 76 15 76 13 0 15 -12 13 -72z m100 30 c7 -7 12 -31 12 -54 l0 -43 -47
2 c-41 2 -48 5 -48 22 0 13 12 25 33 35 18 9 30 19 26 23 -4 3 -15 2 -26 -4
-23 -12 -33 -6 -25 16 8 18 58 20 75 3z m92 -8 c0 -11 -7 -20 -15 -20 -11 0
-15 -11 -15 -40 0 -29 -4 -40 -15 -40 -11 0 -15 13 -15 54 0 52 1 55 28 59 15
2 28 5 30 6 1 0 2 -8 2 -19z m102 3 c37 -33 11 -103 -38 -103 -20 0 -64 41
-64 60 0 4 9 19 21 34 23 30 54 33 81 9z m118 -23 c0 -16 -7 -20 -35 -20 -28
0 -35 4 -35 20 0 16 7 20 35 20 28 0 35 -4 35 -20z m-245 -162 c29 -13 43 -53
28 -77 -5 -9 -28 -23 -51 -31 -37 -13 -45 -12 -76 3 -58 27 -58 84 -1 107 29
13 70 12 100 -2z"/>
<path d="M3925 2300 c-3 -5 1 -10 9 -10 8 0 18 5 21 10 3 6 -1 10 -9 10 -8 0
-18 -4 -21 -10z"/>
<path d="M4110 2335 c-11 -13 -11 -19 3 -32 21 -21 49 -9 45 19 -4 28 -30 35
-48 13z"/>
<path d="M5700 2674 c-162 -44 -260 -172 -260 -339 0 -95 27 -168 86 -234 166
-184 461 -140 570 87 25 49 28 69 28 147 0 78 -3 98 -27 147 -48 99 -130 164
-242 194 -62 17 -85 17 -155 -2z m340 -188 c10 -28 8 -29 -26 -11 -37 19 -64
19 -92 -1 -28 -19 -38 -13 -23 15 24 44 123 42 141 -3z m-366 -29 c-8 -21 -27
-22 -43 -3 -9 11 -8 18 5 31 14 14 19 14 31 2 7 -7 11 -21 7 -30z m-134 -7 c0
-16 7 -20 31 -20 23 0 30 -4 27 -17 -2 -9 -14 -20 -28 -23 -19 -4 -26 -13 -28
-39 -4 -39 14 -64 40 -55 15 5 19 2 16 -13 -4 -25 -54 -30 -79 -7 -16 14 -19
31 -19 94 0 71 9 100 32 100 4 0 8 -9 8 -20z m489 -48 c19 -21 22 -33 18 -65
-9 -68 -61 -101 -116 -73 -84 44 -37 192 54 169 11 -2 31 -16 44 -31z m-361
-35 c2 -45 7 -59 23 -68 16 -8 18 -13 8 -25 -14 -17 -41 -18 -57 -2 -7 7 -12
42 -12 86 0 65 2 73 18 70 13 -2 18 -15 20 -61z m190 51 c24 -24 13 -36 -28
-31 -48 7 -70 -8 -70 -47 0 -51 61 -70 68 -22 5 33 36 24 40 -11 5 -40 -14
-57 -62 -57 -57 0 -91 35 -90 91 2 56 34 89 89 89 22 0 46 -5 53 -12z m16
-248 c38 0 81 19 98 44 12 18 19 0 12 -29 -11 -43 -59 -67 -123 -62 -44 3 -59
9 -78 31 -13 15 -23 36 -23 46 0 18 2 18 36 -5 25 -17 51 -25 78 -25z"/>
<path d="M5946 2385 c-31 -31 -14 -85 26 -85 28 0 41 35 26 67 -16 33 -31 38
-52 18z"/>
<path d="M4817 2670 c-98 -25 -182 -95 -226 -189 -22 -48 -26 -70 -26 -146 0
-82 3 -97 33 -157 37 -76 82 -120 162 -157 46 -22 69 -26 140 -26 71 0 94 4
141 26 72 34 134 96 168 168 22 47 26 70 26 146 0 76 -4 99 -26 146 -54 115
-160 187 -286 194 -37 2 -85 0 -106 -5z m270 -132 c29 -32 43 -82 43 -149 0
-72 -16 -111 -44 -107 -18 3 -21 11 -24 63 -1 33 -5 66 -7 74 -10 26 -44 -19
-64 -82 -24 -78 -51 -107 -101 -107 -42 0 -74 29 -111 101 -27 53 -44 51 -34
-3 14 -84 12 -103 -11 -106 -51 -7 -81 186 -39 255 26 45 67 61 100 39 14 -9
32 -29 42 -44 26 -42 55 -72 70 -72 8 0 27 29 43 64 16 35 36 71 45 80 23 23
68 20 92 -6z m-74 -384 l-2 -29 12 28 c7 18 18 27 34 27 13 0 23 -6 24 -12 0
-10 2 -10 6 0 6 14 43 16 43 2 0 -5 -4 -10 -10 -10 -5 0 -10 -11 -10 -25 0
-25 -2 -25 -57 -24 -32 1 -61 7 -65 13 -5 8 -8 7 -8 -1 0 -8 -15 -13 -40 -13
-25 0 -40 5 -41 13 0 10 -2 10 -6 0 -7 -18 -32 -16 -40 3 -5 15 -7 15 -15 0
-6 -10 -23 -16 -48 -16 -37 0 -40 2 -41 28 l-2 27 -4 -27 c-5 -35 -23 -37 -23
-3 0 14 -4 25 -10 25 -5 0 -10 -11 -10 -25 0 -14 -4 -25 -10 -25 -5 0 -10 16
-10 35 l0 34 95 -1 c89 -1 95 -3 96 -22 2 -20 2 -20 6 1 4 19 11 22 54 21 39
0 49 -3 45 -14 -3 -7 -1 -16 4 -19 6 -4 10 6 10 20 0 17 5 25 13 22 6 -2 11
-17 10 -33z"/>
<path d="M4800 2145 c0 -8 5 -15 10 -15 6 0 10 7 10 15 0 8 -4 15 -10 15 -5 0
-10 -7 -10 -15z"/>
<path d="M4930 2140 c0 -5 5 -10 11 -10 5 0 7 5 4 10 -3 6 -8 10 -11 10 -2 0
-4 -4 -4 -10z"/>
<path d="M7509 2665 c-193 -62 -291 -283 -209 -474 27 -60 111 -143 177 -174
68 -31 208 -31 275 0 66 30 141 104 174 171 25 50 28 68 28 147 -1 77 -5 98
-28 147 -33 67 -108 141 -174 170 -61 27 -179 34 -243 13z m326 -155 c0 -24
-3 -25 -67 -28 l-67 -3 -54 -162 c-53 -162 -54 -162 -85 -165 -23 -2 -32 1
-32 11 0 9 23 79 50 157 28 78 50 144 50 147 0 5 -31 1 -84 -13 -23 -5 -26 -3
-26 19 0 14 5 29 12 33 31 19 121 32 208 31 94 -2 95 -2 95 -27z m-49 -65 c3
-8 -1 -36 -10 -62 -9 -25 -16 -48 -16 -50 0 -2 11 4 24 12 38 25 89 16 100
-17 23 -64 -63 -196 -130 -200 -68 -3 -104 16 -104 57 0 20 71 243 85 265 9
15 45 12 51 -5z m-254 -32 c50 -45 -16 -133 -101 -133 -33 0 -39 -8 -19 -28
15 -15 53 -15 80 -1 26 14 31 8 19 -23 -18 -46 -101 -62 -145 -27 -36 28 -36
95 -1 154 38 66 125 96 167 58z"/>
<path d="M7764 2282 c-22 -17 -54 -72 -54 -92 0 -6 12 -10 27 -8 31 3 73 57
73 94 0 28 -17 30 -46 6z"/>
<path d="M7440 2370 c-26 -26 -25 -40 3 -40 40 0 64 41 32 54 -9 3 -24 -3 -35
-14z"/>
<path d="M3344 2589 c-3 -6 -2 -15 3 -20 5 -5 9 -1 9 11 0 23 -2 24 -12 9z"/>
<path d="M1869 2481 c-49 -31 -78 -78 -86 -142 -11 -82 55 -180 132 -195 55
-10 133 1 163 23 31 23 35 33 22 53 -8 13 -13 13 -42 1 -18 -8 -57 -16 -86
-18 -49 -5 -54 -3 -88 31 -20 20 -34 41 -32 48 3 9 41 14 135 16 113 2 133 5
147 21 36 39 -13 139 -85 177 -48 25 -128 18 -180 -15z m178 -66 c19 -19 32
-39 28 -45 -9 -14 -215 -13 -215 1 0 40 54 78 114 79 30 0 45 -7 73 -35z"/>
<path d="M2315 2493 c-44 -23 -65 -44 -86 -85 -18 -35 -19 -58 -17 -250 l3
-213 24 -3 c13 -2 28 2 32 10 5 7 9 59 9 114 l0 102 37 -19 c79 -40 190 -9
243 68 20 30 25 49 25 103 0 55 -4 73 -27 107 -49 74 -168 106 -243 66z m152
-69 c56 -35 74 -121 36 -172 -50 -69 -138 -79 -194 -23 -51 52 -51 128 1 180
43 43 104 48 157 15z"/>
<path d="M6440 2445 c-17 -20 9 -21 36 0 19 14 19 14 -2 15 -12 0 -27 -7 -34
-15z"/>
<path d="M6740 2441 c0 -24 -15 -30 -57 -23 l-33 5 0 -62 c0 -34 5 -71 10 -82
7 -13 7 -19 0 -19 -14 0 -13 -25 3 -38 18 -16 39 1 36 29 -1 13 -1 53 -1 88 2
55 4 62 17 51 9 -7 15 -29 15 -51 0 -43 22 -71 54 -67 25 4 35 38 12 38 -12 0
-16 10 -16 40 0 29 4 40 15 40 8 0 15 7 15 15 0 8 -7 15 -15 15 -8 0 -15 9
-15 20 0 13 -7 20 -20 20 -13 0 -20 -7 -20 -19z"/>
<path d="M6390 2400 c-12 -12 -20 -33 -20 -54 0 -71 99 -104 131 -44 10 18 7
19 -37 16 -31 -2 -48 1 -51 10 -3 8 10 12 46 12 29 0 51 5 51 11 0 15 -21 53
-34 61 -21 14 -66 8 -86 -12z m70 -31 c0 -5 -9 -9 -20 -9 -22 0 -27 16 -7 23
15 5 27 -1 27 -14z"/>
<path d="M6521 2389 c22 -31 22 -31 3 -67 -10 -21 -20 -40 -22 -44 -9 -19 39
-6 52 14 l16 22 16 -22 c14 -20 54 -31 54 -14 0 4 -9 22 -21 41 l-21 34 21 28
c12 16 21 31 21 34 0 12 -50 4 -58 -11 -8 -14 -10 -14 -21 0 -8 9 -24 16 -38
16 l-24 0 22 -31z"/>
<path d="M6830 2400 c-48 -48 -2 -139 63 -126 62 12 85 70 46 120 -26 33 -79
36 -109 6z m75 -55 c0 -23 -5 -31 -21 -33 -24 -3 -38 20 -28 50 4 13 13 18 27
16 17 -2 22 -10 22 -33z"/>
<path d="M6956 2411 c-3 -5 1 -14 9 -21 8 -7 15 -11 16 -9 6 32 5 39 -6 39 -8
0 -16 -4 -19 -9z"/>
<path d="M4561 1798 c-35 -84 -74 -213 -96 -322 -13 -61 -24 -101 -24 -88 -1
12 -2 24 -3 27 -1 2 -9 42 -18 87 -22 112 -37 114 -73 6 -14 -45 -25 -84 -22
-86 11 -11 34 10 40 37 6 27 25 45 25 24 0 -12 18 -130 31 -200 7 -42 16 -63
25 -63 8 0 14 3 14 8 1 15 25 177 36 237 19 105 77 269 110 313 28 36 26 62
-6 62 -15 0 -26 -12 -39 -42z"/>
<path d="M3559 1727 c-23 -15 -49 -51 -80 -109 l-45 -86 30 19 c17 11 46 19
63 19 23 0 43 10 65 31 l33 30 -65 -4 -65 -5 24 19 c19 16 39 19 119 19 105 0
157 17 202 65 l23 25 -135 0 c-124 0 -138 -2 -169 -23z"/>
<path d="M6841 1610 c-39 -60 -71 -112 -71 -115 0 -12 42 -3 72 16 24 15 27
19 10 14 -22 -6 -21 -3 14 53 21 34 41 59 44 57 4 -2 12 -36 19 -75 12 -64 15
-70 38 -70 18 0 23 4 20 18 -3 9 -13 53 -22 97 -22 109 -24 115 -40 115 -7 0
-45 -49 -84 -110z"/>
<path d="M7602 1708 c-5 -7 -18 -52 -27 -100 -21 -103 -15 -118 47 -118 32 0
39 3 36 18 -2 10 -14 18 -31 20 -28 3 -31 10 -21 60 4 21 13 32 28 34 25 4 36
38 12 38 -11 0 -16 9 -16 30 0 32 -11 38 -28 18z"/>
<path d="M7910 1663 c-7 -32 -18 -84 -25 -115 -12 -54 -12 -58 5 -58 21 0 21
2 45 115 9 44 19 88 21 98 4 12 0 17 -15 17 -16 0 -22 -11 -31 -57z"/>
<path d="M4860 1700 c-11 -7 -12 -12 -4 -20 8 -8 14 -7 23 4 14 17 1 28 -19
16z"/>
<path d="M4965 1683 c-17 -9 -37 -19 -45 -23 -20 -9 -28 -134 -8 -128 7 3 16
27 21 53 15 90 50 104 45 19 l-3 -57 -89 -53 c-49 -30 -91 -54 -93 -54 -2 0 0
36 3 80 6 67 4 80 -8 80 -11 0 -17 -19 -24 -67 -7 -50 -13 -68 -24 -68 -21 0
-24 40 -6 77 19 38 19 38 1 38 -22 0 -45 -53 -45 -103 0 -48 12 -60 49 -50 34
9 24 -10 -22 -42 -49 -34 -186 -151 -204 -173 -7 -9 -13 -22 -13 -29 0 -26 26
-12 75 38 50 51 168 149 179 149 3 0 6 -49 6 -110 0 -101 2 -110 19 -110 18 0
19 7 14 124 l-6 125 72 46 c40 26 111 65 157 86 46 21 84 43 84 48 0 19 -20
22 -48 7 -16 -8 -32 -12 -36 -9 -3 4 -6 30 -6 59 0 29 -3 55 -8 58 -4 2 -21
-3 -37 -11z"/>
<path d="M2778 1650 c-9 -6 -19 -23 -23 -39 -3 -16 -13 -32 -21 -35 -19 -7
-18 -35 1 -42 9 -4 15 -19 15 -38 0 -52 11 -76 36 -82 36 -9 54 12 54 63 0 34
5 49 22 62 22 18 18 41 -8 41 -22 0 -17 27 7 33 13 4 20 12 17 24 -2 13 -14
19 -43 20 -22 2 -48 -2 -57 -7z"/>
<path d="M6995 1623 c22 -124 26 -133 50 -133 18 0 34 17 74 82 47 77 51 98
17 85 -8 -3 -27 -28 -43 -56 -15 -28 -31 -51 -34 -51 -4 0 -10 17 -13 38 -12
62 -17 72 -38 72 -18 0 -19 -4 -13 -37z"/>
<path d="M7185 1629 c-28 -25 -35 -38 -35 -68 0 -54 23 -71 97 -71 l61 0 10
48 c6 26 14 64 17 85 l7 37 -61 0 c-53 0 -64 -4 -96 -31z m104 -46 c-5 -21 -9
-41 -9 -45 0 -5 -18 -8 -40 -8 -46 0 -65 23 -48 55 16 28 28 35 69 35 l37 0
-9 -37z"/>
<path d="M7386 1637 c-14 -14 -26 -42 -30 -71 -4 -27 -10 -55 -13 -62 -3 -9 2
-14 15 -14 17 0 23 11 34 63 l13 62 49 3 49 3 -7 -51 c-4 -27 -9 -57 -12 -65
-4 -10 0 -15 13 -15 15 0 22 11 31 51 24 102 14 119 -65 119 -43 0 -59 -5 -77
-23z"/>
<path d="M7722 1635 c-38 -31 -50 -86 -27 -121 13 -21 23 -24 76 -24 52 0 60
2 57 18 -2 12 -16 18 -52 22 -27 3 -51 11 -54 18 -3 9 15 12 67 12 67 0 71 1
77 25 4 16 0 34 -10 50 -23 35 -92 35 -134 0z m103 -25 c0 -16 -54 -26 -82
-16 -13 5 -13 9 -2 22 16 20 84 15 84 -6z"/>
<path d="M1741 1641 c-65 -18 -92 -142 -42 -195 32 -34 115 -37 149 -6 27 25
28 64 3 82 -17 12 -17 16 -5 33 8 10 14 26 14 35 0 37 -68 66 -119 51z m47
-73 c-3 -7 -11 -13 -18 -13 -7 0 -15 6 -17 13 -3 7 4 12 17 12 13 0 20 -5 18
-12z m-2 -69 c10 -17 -13 -36 -27 -22 -12 12 -4 33 11 33 5 0 12 -5 16 -11z"/>
<path d="M2915 1630 c-10 -11 -15 -23 -12 -27 4 -3 34 -7 68 -7 44 -1 63 3 67
13 15 39 -91 57 -123 21z"/>
<path d="M4009 1599 c-15 -31 -24 -38 -32 -30 -18 18 -82 13 -111 -10 -34 -26
-34 -57 0 -69 28 -11 28 -33 0 -38 -12 -3 -16 2 -14 15 3 19 -12 21 -45 8 -16
-7 -16 -1 7 43 14 28 26 53 26 56 0 2 -29 4 -65 4 -59 0 -68 -2 -95 -30 -17
-17 -34 -43 -37 -59 -3 -16 -9 -29 -14 -29 -17 0 -9 26 26 90 19 36 35 69 35
73 0 5 -12 7 -27 5 -24 -2 -35 -16 -70 -82 -60 -111 -59 -115 25 -114 37 1 73
6 80 11 10 8 16 7 22 -3 10 -17 146 -23 175 -8 13 8 20 8 23 -1 2 -6 14 -11
27 -11 18 0 30 13 54 54 30 54 47 73 57 63 3 -3 -4 -24 -16 -47 -24 -48 -21
-70 12 -70 35 0 56 16 41 31 -9 9 -7 21 8 50 27 53 26 83 -3 76 -13 -2 -31 -8
-41 -12 -17 -7 -17 -5 2 26 27 44 26 49 -4 49 -19 0 -30 -10 -46 -41z m-83
-55 c-5 -13 -1 -15 19 -12 27 6 30 1 16 -21 -7 -11 -13 -10 -35 4 -27 18 -31
27 -19 38 12 13 25 7 19 -9z m-166 -8 c0 -16 -38 -66 -51 -66 -16 0 -10 26 12
54 22 28 39 34 39 12z"/>
<path d="M4846 1631 c-4 -5 -9 -37 -13 -72 -5 -50 -4 -61 8 -57 16 5 27 39 28
90 1 36 -12 58 -23 39z"/>
<path d="M1910 1565 c-7 -9 -13 -37 -12 -63 0 -37 5 -51 27 -69 40 -35 109
-27 142 16 16 21 17 103 1 119 -29 29 -68 2 -68 -47 0 -35 -17 -24 -27 17 -10
41 -40 55 -63 27z"/>
<path d="M2135 1555 c-31 -30 -34 -86 -6 -114 37 -37 137 -39 148 -4 3 7 -8
18 -23 23 l-28 11 24 12 c58 29 22 97 -50 97 -30 0 -47 -7 -65 -25z m75 -28
c0 -8 -3 -17 -7 -20 -9 -9 -34 13 -27 24 8 14 34 11 34 -4z"/>
<path d="M2316 1558 c-17 -24 -20 -48 -10 -97 13 -63 80 -62 86 1 4 41 28 50
28 11 0 -50 33 -72 69 -47 26 19 29 88 5 123 -15 20 -22 23 -60 17 -24 -3 -46
-1 -49 4 -11 18 -54 10 -69 -12z"/>
<path d="M2566 1559 c-21 -16 -26 -29 -26 -64 0 -35 5 -48 26 -64 60 -47 144
-10 144 64 0 74 -84 111 -144 64z m74 -32 c0 -8 -3 -17 -7 -20 -9 -9 -34 13
-27 24 8 14 34 11 34 -4z"/>
<path d="M2910 1560 c-79 -79 26 -198 114 -129 35 27 37 98 4 129 -29 27 -91
27 -118 0z m73 -27 c9 -9 -13 -34 -24 -27 -14 8 -11 34 4 34 8 0 17 -3 20 -7z"/>
<path d="M3090 1561 c-25 -48 -2 -151 35 -151 23 0 45 30 45 61 0 16 4 29 9
29 11 0 21 -25 21 -50 0 -25 29 -40 57 -29 41 15 40 104 -1 138 -10 9 -28 11
-50 7 -20 -4 -37 -2 -41 4 -11 18 -63 12 -75 -9z"/>
<path d="M4557 1573 c-12 -11 -8 -23 7 -23 8 0 16 7 20 15 5 15 -14 21 -27 8z"/>
<path d="M4630 1533 c-24 -10 -30 -25 -30 -85 0 -43 4 -58 14 -58 17 0 26 22
26 64 0 20 8 40 20 51 11 10 20 22 20 27 0 9 -27 10 -50 1z"/>
<path d="M4542 1488 c-14 -14 -16 -138 -3 -138 15 0 18 10 26 83 7 66 2 80
-23 55z"/>
<path d="M7712 1408 c-5 -24 -7 -46 -5 -50 2 -5 40 -8 83 -8 87 0 91 3 103 68
5 23 3 32 -7 32 -9 0 -12 -8 -9 -24 6 -29 -12 -66 -32 -66 -7 0 -16 12 -18 28
l-4 27 -2 -27 c-1 -29 -15 -38 -24 -15 -4 10 -6 10 -6 0 -1 -7 -6 -13 -12 -13
-7 0 -9 10 -5 25 6 24 5 25 -14 13 -11 -7 -20 -18 -20 -25 0 -7 -4 -13 -10
-13 -12 0 -13 16 -1 58 5 18 6 32 1 32 -5 0 -13 -19 -18 -42z"/>
<path d="M7760 1446 c0 -2 7 -6 15 -10 8 -3 15 -1 15 4 0 6 -7 10 -15 10 -8 0
-15 -2 -15 -4z"/>
<path d="M7825 1440 c4 -6 11 -8 16 -5 14 9 11 15 -7 15 -8 0 -12 -5 -9 -10z"/>
<path d="M7576 1418 c-8 -32 -7 -58 2 -58 4 0 8 18 9 40 2 45 -2 51 -11 18z"/>
<path d="M7613 1405 c-1 -20 3 -33 8 -30 5 4 9 17 9 30 0 13 6 26 13 28 6 3 3
6 -8 6 -16 1 -20 -6 -22 -34z"/>
<path d="M7656 1418 c-10 -38 -7 -58 9 -58 18 0 20 20 3 20 -8 1 -6 6 5 14 14
11 15 15 5 19 -10 4 -10 8 2 16 13 9 13 11 -1 11 -9 0 -19 -10 -23 -22z"/>
<path d="M4827 1402 c-22 -24 -21 -65 1 -85 15 -14 41 -17 145 -17 114 0 129
2 147 20 11 11 20 29 20 40 0 11 -9 29 -20 40 -18 18 -33 20 -148 20 -112 0
-131 -2 -145 -18z m80 -48 c3 -18 2 -18 -6 1 -5 11 -10 14 -10 7 -1 -14 -21
-7 -21 8 0 17 35 2 37 -16z m49 15 c10 -17 -13 -36 -27 -22 -12 12 -4 33 11
33 5 0 12 -5 16 -11z m21 -21 c-3 -7 -5 -2 -5 12 0 14 2 19 5 13 2 -7 2 -19 0
-25z m26 17 c4 -8 3 -16 -1 -19 -4 -3 -9 4 -9 15 -2 23 3 25 10 4z m83 3 c5
-7 3 -8 -6 -3 -10 6 -12 4 -7 -8 3 -10 2 -17 -3 -17 -11 0 -13 23 -3 33 9 9
11 9 19 -5z m-229 -20 c-3 -8 -6 -5 -6 6 -1 11 2 17 5 13 3 -3 4 -12 1 -19z"/>
<path d="M4930 1360 c0 -5 5 -10 10 -10 6 0 10 5 10 10 0 6 -4 10 -10 10 -5 0
-10 -4 -10 -10z"/>
<path d="M7851 1404 c0 -11 3 -14 6 -6 3 7 2 16 -1 19 -3 4 -6 -2 -5 -13z"/>
<path d="M1810 886 l0 -64 -30 15 c-38 18 -93 3 -117 -33 -20 -32 -20 -96 1
-128 22 -34 85 -53 117 -36 17 10 24 10 27 1 2 -6 17 -11 33 -11 l29 0 0 160
0 160 -30 0 -30 0 0 -64z m-16 -102 c36 -35 10 -104 -39 -104 -25 0 -55 33
-55 60 0 49 61 77 94 44z"/>
<path d="M4550 791 l0 -158 25 4 c23 5 24 9 27 87 l3 81 26 -75 c22 -66 29
-75 50 -75 l24 0 3 148 c2 142 2 147 -18 147 -19 0 -20 -6 -20 -87 0 -49 -4
-83 -9 -77 -4 5 -21 44 -36 87 -24 67 -31 77 -51 77 l-24 0 0 -159z"/>
<path d="M4767 944 c-4 -4 -7 -70 -7 -147 l0 -140 46 7 c26 3 57 6 70 6 17 0
24 6 24 20 0 17 -7 20 -45 20 -44 0 -45 0 -45 34 0 35 13 46 51 46 12 0 19 7
19 20 0 16 -7 20 -35 20 -33 0 -35 2 -35 35 0 35 0 35 46 35 41 0 45 2 42 23
-3 20 -9 22 -63 25 -34 2 -64 0 -68 -4z"/>
<path d="M4930 925 c0 -20 5 -25 25 -25 l25 0 0 -109 c0 -61 4 -112 9 -115 5
-4 16 -3 25 0 13 5 16 25 16 115 l0 109 25 0 c20 0 25 5 25 25 0 24 -2 25 -75
25 -73 0 -75 -1 -75 -25z"/>
<path d="M5120 815 c0 -128 1 -135 20 -135 18 0 20 7 20 55 l0 55 35 0 c28 0
35 4 35 19 0 15 -8 21 -32 23 -29 3 -33 7 -36 36 -3 32 -3 32 42 32 42 0 46 2
46 25 0 24 -2 25 -65 25 l-65 0 0 -135z"/>
<path d="M5290 810 l0 -140 65 0 c57 0 65 2 65 19 0 19 -25 31 -67 31 -23 0
-23 2 -23 115 0 108 -1 115 -20 115 -19 0 -20 -7 -20 -140z"/>
<path d="M5460 806 l0 -146 25 0 26 0 -3 143 c-3 139 -4 142 -25 145 -23 3
-23 3 -23 -142z"/>
<path d="M5560 937 c0 -8 11 -41 25 -75 l25 -62 -30 -67 c-23 -51 -27 -68 -18
-75 25 -15 36 -8 53 35 l18 42 19 -46 c16 -37 25 -48 47 -51 l28 -4 -33 83
-33 84 34 74 34 75 -27 0 c-22 0 -30 -8 -45 -43 l-19 -42 -19 43 c-13 30 -24
42 -39 42 -11 0 -20 -6 -20 -13z"/>
<path d="M3668 923 c6 -2 18 -2 25 0 6 3 1 5 -13 5 -14 0 -19 -2 -12 -5z"/>
<path d="M3933 895 c0 -22 2 -30 4 -17 2 12 2 30 0 40 -3 9 -5 -1 -4 -23z"/>
<path d="M4189 918 c-1 -7 0 -22 1 -32 1 -14 -3 -18 -19 -13 -12 3 -21 1 -21
-4 0 -5 11 -9 25 -9 22 0 25 4 25 35 0 33 -9 50 -11 23z"/>
<path d="M3642 895 c0 -16 2 -22 5 -12 2 9 2 23 0 30 -3 6 -5 -1 -5 -18z"/>
<path d="M3840 910 c0 -6 7 -10 15 -10 8 0 15 2 15 4 0 2 -7 6 -15 10 -8 3
-15 1 -15 -4z"/>
<path d="M3055 896 c-11 -8 -18 -26 -18 -46 0 -26 7 -39 36 -63 34 -27 50 -67
27 -67 -5 0 -10 9 -10 20 0 15 -7 20 -29 20 -27 0 -29 -2 -22 -27 4 -16 19
-35 34 -43 24 -13 30 -13 55 0 47 27 42 97 -8 127 -28 16 -42 53 -20 53 6 0
10 -7 10 -15 0 -9 9 -15 25 -15 18 0 25 5 25 19 0 45 -64 67 -105 37z"/>
<path d="M3180 796 c0 -108 1 -116 19 -116 17 0 20 8 23 48 l4 47 13 -47 c11
-40 17 -48 37 -48 24 0 24 1 24 115 0 108 -1 115 -20 115 -17 0 -20 -7 -20
-47 0 -52 -10 -50 -25 5 -8 27 -17 38 -33 40 -22 3 -22 2 -22 -112z"/>
<path d="M3320 795 l0 -115 25 0 c23 0 25 3 25 50 0 28 5 50 10 50 6 0 10 -22
10 -50 0 -47 2 -50 25 -50 24 0 25 3 25 54 0 34 -5 57 -12 60 -10 5 -10 7 0
12 15 7 16 76 0 92 -7 7 -34 12 -60 12 l-48 0 0 -115z m70 50 c0 -14 -4 -25
-10 -25 -5 0 -10 11 -10 25 0 14 5 25 10 25 6 0 10 -11 10 -25z"/>
<path d="M3791 883 c1 -22 2 -23 6 -8 3 11 10 23 17 27 7 5 5 8 -6 8 -13 0
-18 -7 -17 -27z"/>
<path d="M3892 885 c0 -16 2 -22 5 -12 2 9 2 23 0 30 -3 6 -5 -1 -5 -18z"/>
<path d="M3982 885 c0 -16 2 -22 5 -12 2 9 2 23 0 30 -3 6 -5 -1 -5 -18z"/>
<path d="M4013 894 c-8 -20 10 -37 33 -31 15 4 14 5 -5 6 -18 1 -22 5 -18 21
6 24 -1 27 -10 4z"/>
<path d="M4112 885 c0 -16 2 -22 5 -12 2 9 2 23 0 30 -3 6 -5 -1 -5 -18z"/>
<path d="M4224 895 c-8 -20 4 -35 27 -35 23 0 36 27 21 42 -8 8 -9 5 -5 -11 4
-17 1 -21 -17 -21 -17 0 -21 4 -17 20 6 23 -1 27 -9 5z"/>
<path d="M3720 886 c0 -8 4 -17 9 -20 5 -4 7 3 4 14 -6 23 -13 26 -13 6z"/>
<path d="M4310 886 c0 -2 7 -7 16 -10 8 -3 12 -2 9 4 -6 10 -25 14 -25 6z"/>
<path d="M7155 880 c-3 -6 -10 -33 -14 -60 -7 -44 -6 -50 10 -50 12 0 19 9 22
28 l4 27 2 -27 c1 -35 33 -38 49 -5 l11 22 0 -22 c1 -14 7 -23 16 -23 9 0 15
9 16 23 l0 22 9 -22 c7 -18 17 -23 43 -23 19 0 40 7 48 16 11 14 9 15 -26 8
-27 -5 -36 -4 -31 5 4 6 20 11 37 11 24 0 29 4 29 25 0 23 -4 25 -40 25 -33 0
-43 -5 -51 -22 -8 -19 -9 -17 -5 15 4 31 2 37 -13 37 -19 0 -45 -25 -53 -50
-3 -9 -8 -2 -12 18 -8 32 -37 45 -51 22z m195 -40 c0 -5 -7 -10 -16 -10 -8 0
-12 5 -9 10 3 6 10 10 16 10 5 0 9 -4 9 -10z"/>
<path d="M7518 847 c-31 -76 -31 -77 -14 -77 9 0 16 5 16 10 0 6 9 10 20 10
11 0 20 -4 20 -10 0 -5 9 -10 20 -10 18 0 19 5 14 48 -8 67 -11 72 -36 72 -18
0 -27 -10 -40 -43z m38 -34 c-10 -10 -19 5 -10 18 6 11 8 11 12 0 2 -7 1 -15
-2 -18z"/>
<path d="M8052 873 c-5 -10 -9 -36 -8 -58 1 -35 4 -40 26 -43 20 -3 23 -1 13
9 -15 15 -17 55 -4 63 11 7 2 46 -10 46 -4 0 -12 -8 -17 -17z"/>
<path d="M3668 863 c6 -2 18 -2 25 0 6 3 1 5 -13 5 -14 0 -19 -2 -12 -5z"/>
<path d="M7411 858 c-17 -6 -21 -16 -21 -48 0 -39 8 -47 43 -41 4 0 7 -3 7 -9
0 -5 -11 -10 -25 -10 -14 0 -25 -4 -25 -10 0 -14 66 -12 78 3 5 6 13 35 17 63
7 51 6 52 -23 56 -17 2 -39 1 -51 -4z m41 -34 c-6 -39 -12 -48 -24 -36 -14 14
-1 65 15 59 7 -2 11 -13 9 -23z"/>
<path d="M7620 846 c0 -7 -3 -34 -6 -60 -6 -38 -4 -46 10 -46 9 0 16 7 16 15
0 10 10 15 29 15 30 0 41 18 41 68 0 20 -5 22 -45 22 -31 0 -45 -4 -45 -14z
m58 -28 c-2 -21 -8 -33 -18 -33 -14 0 -16 20 -5 53 9 26 26 11 23 -20z"/>
<path d="M7726 838 c-3 -13 -6 -33 -6 -45 0 -21 5 -23 45 -23 40 0 45 3 45 23
0 12 3 32 6 45 5 16 2 22 -9 22 -10 0 -18 -14 -22 -40 -9 -54 -38 -57 -33 -3
3 41 -16 57 -26 21z"/>
<path d="M7835 848 c-2 -7 -6 -26 -7 -43 -3 -28 0 -30 33 -33 23 -2 40 2 49
12 10 13 10 16 -2 16 -8 0 -19 -5 -26 -12 -9 -9 -15 -9 -23 -1 -17 17 -1 33
32 33 22 0 29 5 29 20 0 17 -7 20 -40 20 -24 0 -42 -5 -45 -12z m55 -8 c0 -5
-7 -10 -15 -10 -8 0 -15 5 -15 10 0 6 7 10 15 10 8 0 15 -4 15 -10z"/>
<path d="M7937 846 c-7 -17 11 -36 35 -36 10 0 18 -7 18 -15 0 -8 -7 -15 -15
-15 -8 0 -15 5 -15 10 0 6 -7 10 -15 10 -8 0 -15 -7 -15 -16 0 -12 9 -14 43
-12 37 3 42 6 42 28 0 20 -6 26 -28 28 -15 2 -25 8 -22 13 4 5 17 6 31 3 14
-4 24 -2 24 5 0 16 -77 14 -83 -3z"/>
<path d="M8114 848 c-5 -8 2 -9 24 -5 42 8 41 -6 0 -18 -23 -7 -33 -16 -33
-30 0 -17 8 -20 48 -23 l47 -3 0 45 0 46 -39 0 c-22 0 -43 -5 -47 -12z m54
-50 c-3 -7 -11 -13 -18 -13 -7 0 -15 6 -17 13 -3 7 4 12 17 12 13 0 20 -5 18
-12z"/>
<path d="M1950 837 c-50 -17 -77 -74 -61 -128 15 -49 52 -74 107 -74 31 0 49
7 68 24 31 30 32 38 5 46 -13 4 -27 1 -38 -9 -22 -20 -55 -20 -75 0 -28 27
-18 34 54 34 l70 0 0 33 c0 60 -63 96 -130 74z m78 -54 c2 -9 -10 -13 -43 -13
-42 0 -46 2 -35 16 15 18 71 15 78 -3z"/>
<path d="M2163 839 c-61 -18 -90 -99 -54 -156 38 -61 128 -66 177 -11 16 16
16 21 4 28 -21 14 -36 12 -50 -5 -22 -27 -90 -11 -90 20 0 12 15 15 70 15 l70
0 0 33 c0 59 -61 94 -127 76z m67 -54 c11 -13 6 -15 -35 -15 -41 0 -46 2 -35
15 7 8 23 15 35 15 12 0 28 -7 35 -15z"/>
<path d="M2308 845 c-3 -3 -4 -15 -1 -26 4 -15 14 -19 54 -19 27 0 49 -4 49
-8 0 -4 -25 -32 -55 -60 -38 -36 -55 -60 -55 -77 0 -25 1 -25 95 -25 l95 0 0
30 c0 30 0 30 -57 30 l-58 0 58 57 c40 39 57 62 55 77 -3 19 -10 21 -88 24
-47 1 -89 0 -92 -3z"/>
<path d="M2555 835 c-40 -20 -57 -50 -57 -98 1 -64 64 -114 129 -102 33 6 73
36 73 54 0 18 -40 23 -56 7 -21 -21 -57 -20 -77 2 -10 10 -17 22 -17 25 0 4
34 7 75 7 69 0 75 2 75 20 0 41 -29 79 -68 89 -46 13 -41 14 -77 -4z m83 -52
c2 -9 -10 -13 -43 -13 -42 0 -46 2 -35 16 15 18 71 15 78 -3z"/>
<path d="M2743 842 c-22 -3 -23 -7 -23 -108 l0 -105 28 3 c26 3 27 4 28 73 1
39 2 76 3 83 1 17 40 15 47 -3 7 -17 64 -21 64 -4 0 40 -49 73 -86 58 -12 -4
-25 -4 -30 0 -5 4 -19 5 -31 3z"/>
<path d="M3822 798 c-2 -35 0 -38 26 -37 22 1 23 2 5 6 -16 3 -23 13 -26 36
-4 31 -4 31 -5 -5z"/>
<path d="M3923 798 c1 -28 5 -34 24 -36 26 -2 42 23 25 40 -8 8 -9 4 -5 -12 5
-18 2 -21 -13 -18 -12 2 -19 12 -20 26 -2 37 -12 36 -11 0z"/>
<path d="M4120 810 c0 -5 5 -10 11 -10 5 0 7 5 4 10 -3 6 -8 10 -11 10 -2 0
-4 -4 -4 -10z"/>
<path d="M3642 788 c2 -15 11 -24 26 -26 12 -2 22 1 22 6 0 6 -10 8 -22 4 -18
-4 -20 -2 -16 16 4 12 2 22 -4 22 -5 0 -8 -10 -6 -22z"/>
<path d="M3892 785 c0 -16 2 -22 5 -12 2 9 2 23 0 30 -3 6 -5 -1 -5 -18z"/>
<path d="M4004 785 c1 -12 9 -21 21 -22 14 -1 15 0 3 3 -9 3 -19 13 -21 22 -3
12 -4 11 -3 -3z"/>
<path d="M4071 783 c1 -22 2 -23 6 -8 3 11 10 23 17 27 7 5 5 8 -6 8 -13 0
-18 -7 -17 -27z"/>
<path d="M4205 784 c0 -13 3 -24 8 -24 4 0 7 9 7 19 0 11 -3 22 -7 24 -5 3 -8
-6 -8 -19z"/>
<path d="M4242 788 c2 -15 11 -24 26 -26 12 -2 22 1 22 6 0 6 -10 8 -22 4 -18
-4 -20 -2 -16 16 4 12 2 22 -4 22 -5 0 -8 -10 -6 -22z"/>
<path d="M3723 780 c2 -8 12 -16 23 -17 13 -2 15 -1 4 4 -8 3 -19 11 -23 17
-6 7 -7 6 -4 -4z"/>
<path d="M4127 769 c7 -7 15 -10 18 -7 3 3 -2 9 -12 12 -14 6 -15 5 -6 -5z"/>
<path d="M3948 723 c-2 -10 -1 -29 3 -43 6 -20 7 -17 8 18 1 44 -4 54 -11 25z"/>
<path d="M1391 717 c-9 -12 -8 -16 3 -20 19 -7 32 11 19 24 -6 6 -14 5 -22 -4z"/>
<path d="M1432 713 c2 -12 14 -19 36 -21 27 -3 32 0 32 17 0 17 -6 21 -36 21
-28 0 -35 -3 -32 -17z"/>
<path d="M1520 710 c0 -15 7 -20 28 -20 34 0 43 7 35 26 -3 8 -18 14 -34 14
-22 0 -29 -5 -29 -20z"/>
<path d="M3744 701 c0 -21 7 -36 16 -38 10 -3 11 -2 3 4 -6 4 -13 22 -16 38
-4 27 -5 27 -3 -4z"/>
<path d="M7666 723 c-11 -11 -7 -20 9 -20 8 0 15 4 15 8 0 11 -16 20 -24 12z"/>
<path d="M7700 710 c0 -12 4 -18 10 -15 6 4 7 12 4 18 -5 8 -3 8 7 0 15 -15
39 -17 39 -5 0 5 -6 9 -12 9 -7 0 -21 4 -30 8 -14 5 -18 2 -18 -15z"/>
<path d="M7820 719 c0 -5 -4 -7 -10 -4 -5 3 -10 2 -10 -3 0 -5 16 -9 35 -10
19 -1 35 3 35 9 0 6 -9 8 -21 4 -15 -5 -19 -4 -15 4 4 6 2 11 -3 11 -6 0 -11
-5 -11 -11z"/>
<path d="M7932 714 c-9 -10 -6 -12 13 -10 32 3 41 12 18 18 -10 3 -24 -1 -31
-8z"/>
<path d="M7990 707 c0 -10 5 -15 10 -12 6 4 7 12 3 18 -4 7 1 6 10 -2 14 -11
23 -11 42 -3 18 8 25 8 29 -1 3 -8 5 -6 5 3 1 12 -11 15 -49 15 -42 0 -50 -2
-50 -18z"/>
<path d="M4226 710 c7 -8 14 -24 17 -35 4 -19 5 -19 6 1 0 12 -7 28 -16 35
-16 12 -17 12 -7 -1z"/>
<path d="M7770 709 c0 -5 5 -7 10 -4 6 3 10 8 10 11 0 2 -4 4 -10 4 -5 0 -10
-5 -10 -11z"/>
<path d="M8145 710 c-4 -6 5 -9 19 -8 15 1 26 6 26 10 0 12 -38 10 -45 -2z"/>
<path d="M3790 685 c0 -14 2 -25 4 -25 2 0 6 11 8 25 3 14 1 25 -3 25 -5 0 -9
-11 -9 -25z"/>
<path d="M3872 685 c0 -16 2 -22 5 -12 2 9 2 23 0 30 -3 6 -5 -1 -5 -18z"/>
<path d="M3905 700 c-8 -12 12 -40 28 -40 6 0 3 6 -8 13 -10 8 -15 19 -11 25
4 7 5 12 2 12 -3 0 -8 -5 -11 -10z"/>
<path d="M4160 689 c0 -17 -5 -20 -21 -16 -16 4 -19 3 -11 -5 16 -16 42 -2 42
22 0 11 -2 20 -5 20 -3 0 -5 -10 -5 -21z"/>
<path d="M4190 685 c0 -14 2 -25 4 -25 2 0 6 11 8 25 3 14 1 25 -3 25 -5 0 -9
-11 -9 -25z"/>
<path d="M3662 683 c-6 -2 -9 -9 -6 -15 4 -6 0 -15 -7 -20 -12 -8 -12 -9 0 -6
8 2 18 14 22 26 5 12 7 22 6 21 -1 0 -8 -3 -15 -6z"/>
<path d="M3835 681 c-6 -11 13 -26 22 -17 4 3 1 6 -6 6 -7 0 -9 5 -6 10 3 6 4
10 1 10 -3 0 -7 -4 -11 -9z"/>
<path d="M4028 668 c5 -5 16 -8 23 -6 8 3 3 7 -10 11 -17 4 -21 3 -13 -5z"/>
<path d="M5903 668 c2 -7 18 -13 34 -13 23 0 29 -4 25 -15 -5 -12 -3 -13 9 -3
14 11 19 13 39 13 6 0 10 4 10 9 0 5 -25 8 -55 6 -30 -1 -52 2 -49 6 3 5 0 9
-6 9 -7 0 -10 -6 -7 -12z"/>
<path d="M6072 663 c3 -14 11 -18 43 -16 22 2 42 -2 47 -10 6 -9 10 -9 16 1 5
7 22 12 38 12 16 0 36 0 44 1 8 1 20 0 25 -2 6 -2 11 1 12 6 2 6 -33 10 -90
11 -50 0 -103 4 -115 8 -20 7 -23 5 -20 -11z"/>
<path d="M6733 672 c-51 -8 -17 -20 63 -21 49 -1 83 2 80 7 -3 5 -23 9 -43 8
-21 -1 -47 1 -58 4 -11 3 -30 4 -42 2z"/>
<path d="M1370 650 c0 -15 7 -20 25 -20 18 0 25 5 25 20 0 15 -7 20 -25 20
-18 0 -25 -5 -25 -20z"/>
<path d="M1430 650 c0 -16 7 -20 35 -20 28 0 35 4 35 20 0 16 -7 20 -35 20
-28 0 -35 -4 -35 -20z"/>
<path d="M1520 650 c0 -16 7 -20 35 -20 28 0 35 4 35 20 0 16 -7 20 -35 20
-28 0 -35 -4 -35 -20z"/>
<path d="M6030 654 c0 -8 5 -12 10 -9 6 3 10 10 10 16 0 5 -4 9 -10 9 -5 0
-10 -7 -10 -16z"/>
<path d="M6325 660 c-4 -6 5 -10 19 -10 14 0 26 5 26 10 0 6 -9 10 -19 10 -11
0 -23 -4 -26 -10z"/>
<path d="M6395 660 c-3 -5 3 -10 14 -10 12 0 21 5 21 10 0 6 -6 10 -14 10 -8
0 -18 -4 -21 -10z"/>
<path d="M6445 661 c-3 -5 -2 -12 3 -15 5 -3 9 1 9 9 0 17 -3 19 -12 6z"/>
<path d="M6470 662 c0 -5 29 -9 63 -10 35 0 69 -2 74 -4 6 -2 13 2 15 7 2 6
-28 11 -74 13 -43 1 -78 -2 -78 -6z"/>
<path d="M6647 664 c-4 -4 -4 -10 -2 -14 6 -10 45 0 45 11 0 10 -33 12 -43 3z"/>
</g>
</svg>
